<?xml version="1.0" encoding="UTF-8" standalone="no"?>
<svg
   xmlns:dc="http://purl.org/dc/elements/1.1/"
   xmlns:cc="http://creativecommons.org/ns#"
   xmlns:rdf="http://www.w3.org/1999/02/22-rdf-syntax-ns#"
   xmlns:svg="http://www.w3.org/2000/svg"
   xmlns="http://www.w3.org/2000/svg"
   xmlns:sodipodi="http://sodipodi.sourceforge.net/DTD/sodipodi-0.dtd"
   xmlns:inkscape="http://www.inkscape.org/namespaces/inkscape"
   inkscape:version="1.0 (4035a4f, 2020-05-01)"
   sodipodi:docname="boat-1297042.svg"
   id="svg839"
   xml:space="preserve"
   viewBox="0 0 1920 1920"
   version="1.1"
   enable-background="new 0 0 1920 1920"><metadata
   id="metadata845"><rdf:RDF><cc:Work
       rdf:about=""><dc:format>image/svg+xml</dc:format><dc:type
         rdf:resource="http://purl.org/dc/dcmitype/StillImage" /></cc:Work></rdf:RDF></metadata><defs
   id="defs843" /><sodipodi:namedview
   inkscape:current-layer="svg839"
   inkscape:window-maximized="0"
   inkscape:window-y="99"
   inkscape:window-x="97"
   inkscape:cy="650.94567"
   inkscape:cx="960"
   inkscape:zoom="0.12942708"
   showgrid="false"
   id="namedview841"
   inkscape:window-height="555"
   inkscape:window-width="1015"
   inkscape:pageshadow="2"
   inkscape:pageopacity="0"
   guidetolerance="10"
   gridtolerance="10"
   objecttolerance="10"
   borderopacity="1"
   bordercolor="#666666"
   pagecolor="#ffffff" />
<g
   transform="matrix(0.30117693,0,0,0.31275442,693.00221,666.77251)"
   id="g837"
   stroke-width="0.0938"
   stroke="#000000">
	<path
   id="path833"
   d="m 1055.1,102.06 c 11.09,-25.41 21.72,-51.05 33.37,-76.22 0.6201,17.76 2.5701,35.42 4.2101,53.1 1.52,13.39 2.1899,26.87 4.2899,40.19 2.4301,16.22 5.52,32.36 6.6801,48.74 5.2,54.12 11.9,108.08 18.18,162.08 5.1499,43.07 10.14,86.17 14.86,129.27 2.49,-8.54 3.09,-17.49 4.2,-26.28 3.24,-29.59 5.52,-59.28 7.61,-88.97 1.1901,-19.65 2.79,-39.31 2.66,-59.01 6.4399,-0.89 14.28,-2.91 19.61,2.02 -2.01,10.22 -1.54,20.7 -1.66,31.05 0.04,9.63 0.04,19.27 0.5,28.89 1.76,8.84 4.9401,17.32 7.7301,25.88 7.11,20.09 13.29,40.49 20.28,60.62 12.92,37.23 24.22,74.98 36.29,112.48 0.75,2.3 1.39,4.66 2.41,6.87 18.88,32.82 36.48,66.37 54.24,99.81 38.1,71.81 75.1,144.19 112.54,216.34 75.81,146.48 151.59,292.99 227.62,439.36 31.83,61.09 63.45,122.29 95.78,183.12 2.4501,4.5699 4.89,9.15 7.48,13.65 -2.0399,5.01 2.54,8.6899 6.0901,11.33 3.48,-1.5699 7.39,-0.8 10.64,0.99 4.59,2.4 8.83,5.74 11.75,10.09 5.7999,8.8301 12.14,17.29 17.99,26.1 2.73,4.1899 5.64,8.35 7.2699,13.14 -6.8999,1.9701 -13.55,4.88 -20.61,6.2301 -3.98,0.34 -5.5699,4.6599 -8.0599,7.1799 -12.96,17.24 -27.67,33.02 -41.62,49.43 -3.24,5.22 -7.78,9.3999 -11.84,13.96 -20.87,22.79 -42,45.35 -63.28,67.76 -13.55,14.13 -27.09,28.28 -41.27,41.78 -3.61,3.33 -7.17,6.7999 -11.4,9.36 -0.74,5.6 -3.53,11.55 -0.92,17.05 0.38,1.42 1.9701,1.7101 3.29,1.67 5.2001,-0.13 10.4,-1.5599 15.62,-0.7 0.23,0.6599 0.7101,1.98 0.9401,2.63 0.58,-0.88 1.12,-1.78 1.84,-2.53 5.95,-0.77 11.82,1.01 17.74,1.48 12.92,1.03 25.99,-0.01 38.83,2.0699 3.39,0.38 5.66,4.05 9.3301,3.2401 -0.1,0.9399 -0.25,1.95 0.1,2.9399 2.83,0.54 5.71,0.97 8.48,1.87 -0.36,1.88 -0.67,3.79 -1.29,5.63 -4.2899,0.58 -8.3099,-1.54 -12.54,-1.66 -1.91,-0.09 -3.0801,1.5601 -4.4,2.64 -7.9,-5.91 -18.44,-2.72 -27.48,-4.54 0.75,-1.25 1.58,-2.45 2.46,-3.6 -6.48,0.67 -12.8,-1.4199 -19.26,-1.36 0.24,0.88 0.7101,2.63 0.9401,3.51 2.0699,0.66 4.2899,1.03 6.1699,2.27 -5.8199,2.91 -12.6,3.67 -17.9,7.62 11.68,0.01 23.69,-0.34 34.94,3.38 -1.2,0.84 -2.3199,1.76 -3.41,2.73 10.81,-0.48 21.19,-4.12 31.98,-4.88 6.9701,-0.61 14.14,0.9301 20.01,4.84 -2.25,0.62 -4.45,1.3501 -6.5,2.4601 3.01,0.22 6.05,0.1599 9.1001,0.12 -0.28,-0.91 -0.8301,-2.74 -1.1101,-3.65 10.55,1.4399 22.73,-1.36 31.75,5.6899 -1.4399,0.4701 -2.84,0.9801 -4.22,1.55 5.6901,1.89 11.97,1.52 17.4,4.3101 -2.33,1.1399 -4.3101,2.7899 -6.3,4.4099 0.25,-0.76 0.74,-2.27 0.99,-3.02 -4.1399,1.89 -8.61,0.78 -12.71,-0.5299 -3.13,3.7799 -8.39,1.9299 -12.55,3.22 -1.6901,-0.09 -5.12,1.78 -4.17,-2.01 -0.91,0.8101 -1.29,2.64 -2.8,2.42 -13.62,0.1899 -27.28,-1.14 -40.61,-3.88 8.8,-2.6001 18.07,-1.54 27.09,-2.51 -2.0399,-2.35 -5.3099,-2.5 -7.75,-4.15 0.16,-1.46 0.53,-2.84 0.8601,-4.22 -4.63,1.12 -9.6101,2.6599 -14.14,0.3099 -8.66,8.9 -23.14,0.87 -32.56,8.4301 -5.4,-0.62 -10.47,-2.9401 -15.89,-3.22 -2.1599,-0.4 -3.59,1.33 -4.9199,2.6899 2.4099,5.41 9.85,-0.5599 11.97,5.21 -3.71,1.25 -7.52,0.27 -11.04,-1.0199 -3.33,3.5099 -9.02,0.6799 -12.94,3.2799 5.3099,0.4501 10.66,-0.1799 15.97,0.51 8.53,0.8101 17.24,3.1 25.77,1.76 6.29,-4.86 14.92,-3.09 21.39,0.47 -9.5,5.6801 -21.01,0.3 -31.27,2.39 1.22,1.52 2.49,2.97 3.89,4.42 -1.88,0.2 -3.79,0.2 -5.65,0.3199 2.1801,1.9501 5.5,1.65 7.6,3.8101 -16.63,-1.46 -33.33,-7.28 -50.07,-3.24 0.03,1.74 -0.24,3.46 -0.48,5.22 1.08,-0.41 2.21,-0.74 3.33,-1.1 0.3,0.77 0.91,2.3099 1.21,3.08 -3.22,2.8301 -7.5599,3.62 -11.71,3.35 -7.14,-0.21 -14.4,-2.13 -21.44,-0.02 -0.12,-1.16 -0.25,-2.29 -0.36,-3.4 -0.95,-0.01 -2.85,-0.03 -3.7999,-0.04 0.08,2.66 1.33,5.04 3.26,6.86 -1.3301,0.71 -2.53,1.61 -3.3301,2.91 0.73,-0.24 2.2001,-0.74 2.9301,-0.98 1.53,1.61 2.73,3.46 3.63,5.5299 -6.59,0.16 -13.22,0.6001 -19.59,2.3201 4.37,0.99 8.96,-0.4 13.29,0.91 1.77,0.5599 2.1901,2.51 2.9601,4.01 -1.2001,-0.4501 -2.39,-0.8401 -3.5701,-1.1801 -2.35,1 -4.08,2.98 -6.35,4.08 -4.26,0.74 -8.96,-1.14 -12.8,1.52 -1.3199,0.9601 -2.6599,-0.62 -3.98,-0.73 -2.61,-0.03 -5.01,1.17 -7.48,1.8 -3.12,-4.52 -8.88,-2.6001 -12.75,-0.24 -2.5601,-3.79 -7.35,-0.65 -10.34,-3.51 8.58,-3.0701 17.69,-0.3201 26.51,-1.3401 -3.05,-3.35 -7.87,-4.84 -12.22,-3.46 -0.84,-5.27 -7.34,-2.6801 -10.76,-4.88 4.9401,-1.9299 10.33,-1.9 15.44,-3.14 -1.9,-0.89 -3.73,-1.77 -5.51,-2.78 2.5,0.4 4.73,-0.02 5.55,-2.74 -4.9501,0.4301 -9.77,2.3201 -14.78,1.4301 -0.71,2.02 -1.0801,4.76 -3.38,5.66 -8.11,3.0199 -16.94,1.6899 -25.3,3.22 -2.9099,0.4399 -5.36,2.16 -7.27,4.33 3.5701,0.8301 7.7401,-0.38 10.67,2.4401 -1.52,0.7899 -3,1.62 -4.48,2.47 6.6799,-0.1901 11.84,-4.86 18.16,-6.28 1.12,3.7001 4.6799,5.52 7.12,8.24 -4.7001,-0.99 -9.51,-0.84 -14.26,-0.65 2.4,4.4401 7.3199,1.0701 11.12,1.01 1.4,0.7301 2.65,1.74 4.0699,2.53 4.8,0.53 9.4301,-1.73 14.24,-1.1899 2.29,0.22 3.9,2.0499 5.5,3.5399 -7.9299,-1.1899 -15.85,-0.02 -23.67,1.2101 -3.51,0.7999 -6.6901,-1.29 -10.08,-1.52 -1.6899,-0.1 -2.5599,1.7 -3.76,2.5499 4.4801,4.3 10.75,5.75 16.7,6.65 7.4199,1.11 15,0.79 22.31,-0.86 -2.1499,-0.64 -4.34,-1.2999 -5.97,-2.9 3.23,-0.06 7.47,-1.21 9.58,2.0901 -5.2,4.2699 -12.28,4.5499 -18.69,4.25 -10.8,-0.53 -21.44,-3.24 -32.29,-2.79 1.4401,-3.6901 3.26,-7.38 3.13,-11.44 -0.8199,-0.37 -1.63,-0.72 -2.4199,-1.0399 -0.02,0.71 -0.07,2.13 -0.09,2.84 -9.9199,-0.99 -19.63,-3.9 -29.66,-3.62 6.13,1.79 12.37,3.1801 18.62,4.54 -0.4401,0.5699 -0.87,1.1599 -1.28,1.77 -2.47,-0.04 -4.74,0.96 -6.86,2.09 2.6599,1.52 5.5599,0.2899 8.25,-0.4601 0.1599,-0.4299 0.46,-1.2799 0.62,-1.71 2.99,1.67 6.1699,3.11 8.7,5.51 -4.99,-1.1 -4.6799,5.6801 -9.21,5.97 1.13,2.88 4.48,3.66 6.11,6.2001 -2.84,-0.99 -5.87,-2.15 -8.84,-0.98 -5.39,1.6399 -11.08,3.8999 -16.72,1.8999 0.39,1.05 0.8,2.13 1.2101,3.24 -5.92,-0.46 -14.05,-2.62 -18.11,3.0901 0.76,0.38 2.2799,1.14 3.0399,1.51 -1.71,-0.2001 -3.5599,-0.12 -5.01,-1.12 -0.4199,-2.1901 1.4401,-4.1001 2.03,-6.12 -6.23,-1.02 -13.89,4.4399 -18.85,-1.2101 3.8101,-2.2999 8.53,-3.28 11.42,-6.9099 5.7699,4.0599 11.84,-1.9901 17.91,-2.2101 -2.4299,-3.2 -6.84,1.8 -9.46,-1.23 0.03,-3.27 3.66,-1.3099 5.35,-0.99 0.37,-0.6801 0.76,-1.34 1.16,-1.98 -5.8,0.3199 -11.17,2.6899 -16.81,3.78 -3.6899,0.7799 -7.4199,-0.05 -11,-0.9 -0.47,0.3199 -1.4099,0.97 -1.88,1.2999 -3.6899,-0.21 -7.4299,-0.46 -11.03,0.4601 -2.2001,-2.11 -5,-3.62 -8.11,-3.5 -8.6001,0.03 -17.08,3 -25.7,1.4099 -1.13,1.14 -1.3199,4.1901 -3.4299,3.7201 -2.37,-1.11 -4.7101,-2.28 -6.9601,-3.5701 1.16,-0.98 2.4,-1.85 3.55,-2.84 -4.8,-2.13 -10.13,-1.6801 -15.19,-2.4301 1.8,-1.2799 3.7201,-2.4299 5.2001,-4.11 -1.85,0.14 -3.6901,0.23 -5.51,0.28 -2.89,-0.88 -4.9,-3.5699 -7.9301,-4.08 -0.2899,0.47 -0.87,1.39 -1.1599,1.86 -2.2201,-0.11 -5.6001,-2.03 -6.42,1.1599 3.63,0.75 7.36,0.38 11.02,0.92 2.23,0.3201 3.3099,2.5 4.47,4.1901 -3.83,-0.63 -7.4399,-2.7101 -11.4,-2.04 -1.2799,3.36 1.73,5.0699 3.9501,6.92 -5.86,2.0599 -12.35,4 -18.52,2.2 0.36,-2.73 4.08,-2.7 6.01,-3.85 -3.2001,-1.67 -6.85,-1.8 -10.2,-2.9301 0.16,-0.89 0.4801,-2.6799 0.64,-3.58 -4.87,0.97 -10.22,-0.47 -14.7,2.09 0.47,1.42 0.88,2.88 1.27,4.38 3.59,-1.4399 7.48,-2.26 11.26,-0.89 -1.67,1.63 -3.17,3.4501 -3.9701,5.6801 3.4401,1.25 4.9601,4.63 6.79,7.52 0.15,-1.5701 0.38,-3.12 0.6901,-4.63 0.7,0.06 2.1,0.1699 2.7899,0.23 -0.14,1.5 -0.3199,3.02 -0.5399,4.5499 4.9299,-1.5599 11.99,-3.0399 15.26,2.1801 -3.0499,0.21 -6.1399,-0.08 -9.11,0.66 -4.5699,0.98 -8.5,3.97 -13.18,4.4399 -2.8201,0.29 -5.42,-0.91 -7.9501,-1.87 1.2001,-2.11 2.17,-4.41 3.92,-6.13 2.29,-1.29 3.79,2.3 5.9,2.8101 -2.9,-6.88 -10,-10.34 -14.97,-15.48 -3.4,-3.0801 -5.4801,-7.3401 -6.13,-11.84 5.1499,4.6901 12.71,4.4501 19.05,2.74 -1.51,-1.47 -2.86,-3.0499 -4.12,-4.7 3.96,-0.36 8.88,2.17 11.83,-1.55 -3.64,0.66 -7.1201,-0.26 -10.5,-1.4299 -3.3201,-1.28 -3.8301,3.1 -5.42,4.96 -1.1801,-1.17 -2.2001,-2.48 -3.52,-3.4399 -1.72,-0.4801 -3.52,-0.4401 -5.22,-0.77 -1.4501,-0.9501 -2.62,-2.24 -3.9,-3.3301 0.23,2.01 0.7,4.03 0.76,6.1001 -0.95,1.1699 -2.42,1.6499 -3.88,1.6599 -2.0699,-0.76 -2.08,-4.61 -4.62,-4.1499 -3.89,0.6899 -9.16,2.98 -11.67,-1.4601 4.37,-1.1699 9.92,1.77 13.35,-2.1 -7.5499,-0.05 -15.11,-0.45 -22.58,-1.59 0.39,-1.23 0.9,-2.4701 1.41,-3.61 -9.3301,-1.4701 -19.38,0.85 -28.03,-3.8501 -0.97,0.79 -1.91,1.63 -2.88,2.4301 -1.4299,-1.5601 -2.45,-3.48 -4.16,-4.72 -1.9099,-0.8301 -4.08,-0.14 -6.0599,-0.16 -0.16,-1.91 -0.15,-3.79 -0.16,-5.66 -1.46,0.38 -2.84,0.9 -4.25,1.37 1.8201,1.05 4.17,1.92 4.3101,4.4301 -7.6001,-0.08 -14.99,-2.66 -22.61,-2.11 -3.2001,0.1699 -6.25,1.23 -9.26,2.21 -0.42,-1.7 -0.8101,-3.38 -1.2301,-5.03 -6.33,1.74 -12.96,2.25 -19.48,1.4601 -7.4399,-0.89 -15.01,-0.8 -22.33,0.89 0.9,0.71 1.8099,1.3899 2.75,2.1399 -1.26,0.3601 -3.12,0 -3.63,1.5701 -1.09,1.4199 -1.2,4.3099 -3.5699,3.97 -1.4401,-1.28 -2.4401,-3.6899 -4.8101,-2.9 -0.63,3.42 2.33,6.02 5.4401,6.5601 7.9199,1.6 16.14,0.27 24.03,2.11 -0.1899,0.75 -0.5699,2.25 -0.76,3 1.7101,-0.38 3.39,-1.09 4.92,-1.99 -3.09,-0.46 -4.47,-3.22 -5.77,-5.63 1.46,0.09 2.9401,0.21 4.4301,0.35 0.87,-1.2 1.7799,-2.36 2.73,-3.48 -0.03,1.14 -0.09,3.4 -0.12,4.54 1.15,-1.6101 2.39,-3.15 3.8199,-4.5 0.53,2.13 0.06,4.2699 -0.62,6.35 5.55,-1.3101 10.41,1.9399 14.99,4.53 -0.04,0.4099 -0.14,1.21 -0.1799,1.62 1.1899,1.0299 3.0499,1.9399 2.62,3.8899 -3.99,2.4401 -9.62,-1.6399 -12.7,2.54 6.24,1.49 13.85,-1.53 18.91,3.5801 -12.37,5.4099 -25.75,9.1899 -39.34,8.4299 1.53,-1.2 3.1899,-2.2 4.7999,-3.28 -8.0399,-1.46 -17.19,-5.3199 -24.79,-0.47 1.4099,0.6901 2.97,1.33 4.33,2.22 0.74,1.3101 -0.03,2.8301 -0.02,4.25 2.54,-0.5299 5.38,-1.3999 7.3,1.05 -5.8101,3.0599 -12.48,2.86 -18.84,2.98 0.5,2.42 1.7899,4.54 3.01,6.6801 -0.8301,-0.26 -2.4801,-0.77 -3.3,-1.03 1.05,3.8099 3.28,7.23 3.9399,11.18 -1.36,2.9301 -6.7,0.8501 -7.24,4.1901 2.05,0.91 4.13,-0.23 6.17,-0.5701 -0.36,1.25 -0.72,2.51 -1.08,3.8 -4.02,0.06 -8.04,0.13 -12.04,-0.1 0.76,-2.65 3.22,-3.4301 5.6,-4.04 -5.15,-5.5599 -13.93,-5.51 -20.41,-2.47 0.25,-0.91 0.51,-1.8 0.77,-2.66 -4.64,-1.26 -9.4299,-0.36 -14.1,0.1 -4.49,0.55 -9.03,0.5901 -13.49,1.3301 6.78,1.37 13.67,-0.11 20.52,0.2899 -0.42,3.3501 -4.05,1.9601 -6.36,2.51 8.9099,2.05 18.07,2.67 27.2,2.53 -1,0.66 -1.35,2.67 -2.8,2.54 -10.8,0 -21.6,0.08 -32.39,-0.05 0.63,-3.36 4.46,-1.3099 6.7799,-1.9199 -5.1699,-2.04 -10.78,-2.9501 -16.31,-3.1101 -2.5,-0.3199 -4.46,1.29 -6.3301,2.66 -0.7799,-0.91 -1.59,-1.75 -2.4299,-2.52 -6.42,-1.2699 -13.11,-0.71 -19.43,0.8401 0.3101,-1.54 -0.9099,-2.75 -2.2999,-2.79 -2.75,-0.39 -5.62,-0.25 -8.11,-1.61 3.7899,-2.51 8.3999,-1.6901 12.06,0.5699 -0.73,-1.21 -0.9199,-3.0599 -2.52,-3.37 -3.58,-1.0399 -7.2799,0.65 -10.93,0.2101 -17.72,-0.7101 -35.73,1.33 -53.21,-2.4801 5.9,-1.99 12.2,-1.2799 18.24,-2.45 -7.5,-1.87 -15.35,-2.5 -23.01,-1.3199 -3.55,0.45 -7.07,1.24 -10.65,1.1899 1.21,-1.4399 5.25,-1.83 5.25,-3.41 -4.63,-1.85 -9.72,0.74 -14.49,1.0601 2.31,-1.0601 1.64,-3.74 2.11,-5.78 6.33,-1.17 12.31,3.96 18.75,2.46 1.93,-0.47 2.83,-2.47 4.05,-3.8099 -7.74,-2.7001 -15.51,-5.87 -23.77,-6.4301 -2.11,2.9401 -5.93,3.2001 -9.22,3.37 -3.99,0.09 -8.24,0.06 -11.76,-2.08 2.86,-0.35 6.24,0.95 8.51,-1.45 2.78,-0.05 5.74,0.8899 8.36,-0.4801 -4.06,-0.9299 -8.15,-0.03 -12.22,-0.22 -3.68,0.06 -7.4399,-0.3199 -10.99,0.8101 -0.19,2.2 -1.46,3.98 -2.72,5.7 8.66,2.79 18.04,1.58 26.71,4.34 -5.45,0.5901 -10.97,0.6801 -16.34,1.87 -0.05,0.63 -0.16,1.9 -0.22,2.54 -5.73,1.71 -11.86,0.92 -17.73,0.61 -1.26,-5.01 -4.9,-8.83 -8.77,-12 -6.69,6.14 -16.45,6.24 -24.97,5.7101 1.19,-1.1801 2.37,-2.3601 3.54,-3.54 -13.87,3.37 -28.67,5.0699 -42.6,1.0699 7.88,-0.95 17.59,0.26 23.16,-6.6699 2.27,1.87 5.1,1.51 7.8,1.01 -0.73,-0.99 -1.44,-1.9801 -2.09,-2.9501 2.62,0.48 5.38,2.38 7.75,0.14 0.85,5.21 7.1,5.0701 11.08,4.11 -5.27,-1.99 -10.06,-5.21 -15.6,-6.4299 -4.35,-1.17 -8.58,1.4399 -12.93,0.9099 -2.45,-0.6 -4.62,-2.12 -7.13,-2.3999 -6.87,-0.5701 -13.8,1.6799 -20.6,0.07 -2.61,-0.5 -4.06,-2.87 -5.25,-4.97 8.67,0.75 18.31,3.0499 26.21,-1.91 -4,-0.51 -7.66,-2.21 -11.49,-3.28 -0.71,1.05 -1.29,2.25 -2.13,3.25 -4.6299,1.28 -8.96,-1.52 -13.21,-2.9399 1.63,-0.62 5.08,0.99 5.16,-1.78 -4.03,-1.87 -7.1,-5.05 -10.07,-8.25 4.03,-0.35 8.09,-0.33 12.09,-0.96 -5.75,-3.4 -14.19,-6.75 -19.71,-1.17 2.1,0.6801 4.71,0.76 5.83,3.03 -2.97,0.05 -6.68,-0.4 -8.56,2.49 0.32,0.8099 0.97,2.41 1.29,3.22 -6,-0.36 -12.22,-3.24 -18.06,-0.59 7.46,1.63 16.43,-0.88 22.4,5.1899 -4.21,0.1901 -8.41,-0.2899 -12.6,-0.01 v 1.7401 c 5.45,0.6599 11.75,-0.9 16.37,2.87 -6.91,-0.54 -13.45,1.9399 -20.2,2.87 0.17,-0.66 0.5,-1.9801 0.67,-2.64 -1.4,0.59 -2.77,1.24 -4.12,1.9099 -0.81,-2.97 -3.46,-3.21 -6.09,-2.9099 0.4,-0.6 1.19,-1.78 1.59,-2.37 -1.33,-0.64 -2.7,-1.2001 -4.05,-1.7101 0.27,-0.5299 0.81,-1.59 1.07,-2.12 -17.14,-2.58 -34.39,-4.3199 -51.61,-6.26 12.89,-5.84 28.13,-3.6399 40.48,-11 -5.7,-1.3999 -10.7,2.76 -16.32,2.55 -10.07,0.09 -19.95,-2.22 -29.98,-2.54 -2.36,-0.22 -4.34,1.26 -6.33,2.27 -1.91,-2.95 -5.64,-2.84 -8.7,-3.35 -4.37,-0.53 -8.76,-1 -13.15,-1.24 -1.2599,2.13 -2.96,3.8099 -5.62,3.86 1.07,-1.3 2.23,-2.46 3.3,-3.72 -9.54,-4.15 -19.53,-7.47 -28.27,-13.23 1.38,-1.17 1.36,-2.9801 1.49,-4.5801 2.4,1.98 4.94,4.22 8.17,4.61 3.28,0.5 6.46,-0.6599 9.46,-1.86 -2.26,-0.6899 -4.53,-1.26 -6.78,-1.9099 0.42,-1.3 0.88,-2.53 1.35,-3.77 -4.35,0.9299 -10.65,1.3199 -13,-3.25 1.15,-2.3301 2.72,-4.4301 3.97,-6.6901 -12.33,1.36 -24.64,-3.5599 -36.89,-0.4 0.24,-0.5299 0.72,-1.58 0.96,-2.11 -1.02,-0.1599 -2.03,-0.2899 -3.03,-0.38 -2.58,5.64 -9.91,4.75 -14.1,8.5801 -2.99,-1.4 -6.32,-2.7001 -9.64,-1.64 -3.87,1.2 -7.61,2.96 -11.74,3.09 1.51,-3.03 7.02,-4.1799 6.18,-8.0599 -5.94,-0.26 -12.2,0.5299 -18.17,1.46 0.09,1.3099 0.15,2.63 0.07,3.99 -2.08,-1.14 -4.04,-2.7 -6.5,-2.79 -9.99,-1.1899 -20.27,0.2201 -30.07,-2.4399 -2.42,-0.63 -4.57,-1.9501 -6.52,-3.4501 13.79,-4.5199 27.05,4.8 40.9,3.99 -0.15,-4.6599 -1.49,-9.11 -2.71,-13.56 -10.71,2.05 -21.73,0.96 -32.34,-1.17 -2.3,2.3501 -6.92,4.1901 -8.64,0.24 0.82,-0.26 2.45,-0.7999 3.26,-1.0699 -0.45,-1.55 -0.9,-3.1 -1.33,-4.62 1.47,-0.14 2.49,-1.11 3.46,-2.09 5.9,0.8099 14.12,3.0299 17.74,-3.3301 -8.3,0.63 -16.91,-1.8099 -24.86,1.53 -0.33,-0.2 -0.99,-0.59 -1.32,-0.79 -0.8,0.89 -1.54,1.9 -2.54,2.62 -3.21,0.14 -6.32,-1.01 -9.53,-1.13 0.84,1.05 1.7,2.14 2.55,3.2401 -3.86,0.8099 -7.57,5.3099 -11.49,2.3999 0.82,-0.26 2.47,-0.7799 3.29,-1.0499 0.25,-2.04 -0.78,-3.89 -1.3199,-5.77 -0.35,1 -1.03,2.98 -1.38,3.98 -0.94,-1.49 -1.8,-3.02 -2.61,-4.54 -3.4,-0.09 -7.65,-2.5199 -10.39,0.4401 2.0099,0.61 4.08,1.22 5.95,2.26 -9.83,2.0599 -20.18,-1.24 -29.77,2.49 -0.76,-1.21 -1.61,-2.29 -2.33,-3.47 3.13,-1.65 4.99,-4.67 7.38,-7.14 -4.97,0.52 -10.01,0.15 -14.85,-1.03 -4.75,-1.05 -9.27,-3.09 -14.17,-3.3101 0.33,-1.2599 0.66,-2.49 1,-3.6899 -2.07,1.54 -3.39,4.39 -6.35,4.3 -1.51,-5.3501 -8.25,-3.9 -12.48,-4.04 -0.21,3.0699 -2.67,4.66 -5.08,6.0599 -0.33,-0.6399 -1,-1.9299 -1.33,-2.58 -1.37,0.67 -2.69,1.48 -4.15,2 -5.32,-0.28 -9.71,-4.11 -15.05,-4.41 -10.57,-0.85 -20.99,2.78 -31.56,1.51 7.38,-5.86 17.41,-3.89 26.12,-5.09 -6.1,-4.76 -14.38,-3.26 -21.49,-2.55 -9.25,0.8501 -18.64,4.01 -27.91,1.7301 13.5,-6.3201 29.21,-0.89 42.87,-6.6901 -3.73,0.14 -7.38,-0.62 -11.06,-0.95 -2.84,0.1799 -5.29,1.7699 -8,2.47 -2.06,0.4 -4.01,-0.6 -5.91,-1.22 -4.75,1.2 -9.65,1.6899 -14.54,1.51 l 0.54,-1.6901 c -4.34,0.66 -8.72,0.76 -13.09,0.72 2.8,3.02 8.76,-0.72 9.89,4.3401 -6.87,3.6 -14.77,1.6399 -21.76,-0.5 -4.58,-1.54 -9.34,-2.42 -14.11,-3.13 -0.21,0.59 -0.63,1.76 -0.83,2.35 -1.23,0.06 -1.28,-1.9501 -2.04,-2.5701 -4.76,-0.84 -9.53,0.14 -14.29,0.3301 -0.21,-1.25 -0.46,-2.4601 -0.77,-3.64 -9.01,-0.9501 -18.09,1.49 -27.07,-0.04 -2.77,-0.5599 -6.05,-1.72 -6.85,-4.75 1.47,0.09 2.95,0.1801 4.42,0.26 -2.89,-1.75 -6.29,-0.4399 -9.35,0.02 -3.9,0.8 -8.04,1.22 -11.82,-0.29 0.41,-1 0.81,-1.97 1.17,-2.9299 -1.21,-2.4301 -1.93,-5.03 -2.03,-7.7201 -3.09,0.7101 -2.89,4.25 -4.33,6.4801 -5.2,-0.4701 -11.61,-1.0601 -15.15,3.71 3.67,0.1 7.46,-0.4401 10.58,-2.51 -1.95,3.89 3.04,4.99 5.02,7.33 -5.47,0.4801 -10.6,2.9601 -16.15,2.74 1.47,-1.48 3.26,-2.5299 4.96,-3.6899 -8.11,-2.1801 -17.38,-0.4 -23.45,5.6 -1.48,-0.6 -2.97,-1.15 -4.44,-1.73 1.52,-0.39 3.03,-0.78 4.55,-1.15 -2.17,-1.02 -4.41,-1.87 -6.61,-2.7899 4.8,-2.1901 10.08,-2.67 15.28,-2.79 -0.5,-1 -0.99,-1.97 -1.49,-2.9 1.22,-0.51 2.36,-1.14 3.26,-2.11 -1.73,-0.48 -3.47,-0.8 -5.21,-1.1901 1.05,-0.6299 2.08,-1.2699 3.1,-1.9099 0.65,-1.65 -0.03,-4.02 1.58,-5.0701 4.14,0.12 7.83,2.39 11.91,2.88 2.9,-0.12 5.35,-1.89 8,-2.84 -1.01,2.17 -2.78,3.8199 -4.32,5.63 5.64,1.85 6.42,-6.41 11.45,-6.83 7.51,-0.39 15.03,0.6899 22.56,0.23 l -0.88,-1.3301 c 4.52,0.9401 9.19,0.8101 13.69,-0.1699 -0.58,1.1 -1.15,2.23 -1.73,3.37 5.89,-0.79 11.74,0.5599 17.26,2.53 7.29,-6.63 16.7,1.83 24.71,-1.8101 -5.52,-6.51 -9.05,-14.37 -12.79,-21.96 -12.07,-25.91 -22.81,-52.5 -31.38,-79.78 -1.73,-1.85 -4.08,-3.27 -4.9,-5.79 -1.97,-5.0399 -0.02,-10.39 -0.09,-15.54 -3.22,-7.0601 -7.19,-13.75 -11.25,-20.34 -2.45,-3.6499 -4.64,-7.61 -8.06,-10.46 -6.24,1.66 -11.76,5.21 -17.16,8.65 -14.02,9.46 -27.18,20.19 -39.47,31.81 -6.65,-0.61 -13.31,0.3301 -19.97,0.08 0.6,-9.17 4.08,-17.79 7.04,-26.38 10.72,-28.89 23.23,-57.08 36.05,-85.08 -2.12,-0.51 -4.93,0 -6.2,-2.1799 0.81,-4.74 4.75,-9.09 9.48,-10.05 2.71,-0.74 4.26,1.8101 5.27,3.86 10.78,19.91 21.72,39.75 31.63,60.11 2.69,5.1101 3.98,10.89 7.45,15.6 7.44,13.08 14.86,26.29 20.24,40.38 14.85,-1.2301 29.12,-6.15 43.97,-7.42 0.61,-6.45 -1.72,-13.54 1.65,-19.48 1.52,-3.36 5.57,-4.02 8.84,-4.35 2.83,-0.64 4.16,3.1899 6.94,2.58 6.36,-1.09 12.86,-1.11 19.29,-1.04 2.68,-8.85 6.86,-17.13 10.54,-25.59 18.71,-40.87 38.26,-81.35 56.45,-122.45 7.19,-16.36 14.33,-32.75 20.47,-49.54 2.59,-7.51 5.48,-15.07 6.1,-23.06 -16.05,-1.22 -31.42,-6.3099 -46.66,-11.12 -1.74,-3.2 -0.67,-7.34 1.33,-10.17 2.77,-3.9 8.11,-4.1 12.44,-3.8301 14.03,1.0601 27.99,2.91 42,4.14 7.41,0.6 14.88,1.48 22.3,0.66 5.33,-8.74 9.15,-18.29 13.56,-27.5 34.43,-76.38 67.46,-153.38 100.73,-230.27 143.75,-333.47 285.45,-667.81 428.57,-1001.6 m 115.46,275.54 c 0.5699,20.15 2.03,40.27 2.75,60.41 3.15,338.35 6.4,676.71 9.5,1015 -2.02,9.25 0.1899,18.66 1.21,27.9 3.47,21.87 7.17,43.82 13.71,65.02 7.65,-31.77 15.18,-63.57 22.62,-95.38 1.37,-6.87 3.4901,-13.6 4.38,-20.55 1.99,-291.72 4.13,-583.45 6,-875.17 -6.7799,-20.96 -15.48,-41.3 -22.05,-62.36 -11.54,-38.69 -26.41,-76.28 -38.12,-114.92 m -687.23,1019.7 c -23.22,56.92 -46.51,113.81 -69.78,170.71 -1.78,4.52 -2.5,9.47 -5.13,13.64 5.99,1.27 6.92,8.24 8.94,13.01 5.01,8.38 13.63,13.66 19.52,21.35 35.02,-0.7001 70.04,-2.23 104.97,-4.85 1.48,-10.97 7.2,-20.72 12.21,-30.39 8.9,-15.83 18.28,-31.51 29.65,-45.69 -2.22,-6.1899 -3.57,-12.67 -4.15,-19.2 -0.2401,-3.0601 -0.57,-6.4 1.28,-9.05 3.89,-6.52 4.71,-14.56 9.56,-20.53 2.27,-2.9301 5.98,-4.01 9.53,-4.3 -0.2401,-0.84 -0.73,-2.53 -0.97,-3.38 3.56,0.73 7.45,-0.02 10.75,1.75 0.72,-1.05 1.37,-2.14 2.28,-3.02 3.67,-0.33 7.44,0.3101 10.77,1.9 5.64,2.72 10.23,7.3 16.28,9.28 -1.98,-0.09 -3.96,-0.12 -5.92,-0.12 -0.94,5.0499 -6.21,9.6699 -3.65,14.92 3.75,9.7201 0.59,20.26 -0.51,30.19 -0.62,7.1699 -3.25,15.56 2.01,21.67 4.4,5.25 9.78,10.5 10.26,17.78 0.49,12 -1.24,23.97 -1.26,35.98 34.87,-3.76 69.81,-6.7999 104.72,-10.16 -0.11,-9.3301 0.41,-18.66 -0.03,-27.98 -3.51,-0.33 -7.92,-0.2699 -9.92,-3.73 4.38,-4.5499 10.6,-6.72 15.04,-11.22 1.76,0.97 3.49,2 5.4,2.7 3.39,-2.83 5.75,-7.11 10.46,-8.0099 -1.77,-4.2301 -3.57,-8.75 -1.58,-13.26 2.98,1.09 5.75,2.6699 8.62,4.0399 -1.23,-3.33 -2.53,-6.73 -2.5,-10.33 -0.22,-7.1 2.8199,-13.71 5.87,-19.94 1.91,-3.7599 2.35,-8.3199 5.52,-11.35 3.7,-3.75 9.47,-4.03 14.35,-3.01 8.01,1.75 15.36,5.7201 22.15,10.22 4.48,2.86 8.2,7.2599 9.4,12.52 1.42,7.3101 -6.1,12.97 -4.45,20.39 2.57,0.37 5.17,0.65 7.75,1.11 -0.87,1.4301 -1.71,2.88 -2.52,4.3601 2.27,0.5299 4.65,0.59 6.91,1.24 3.17,1.1399 5.85,3.24 8.55,5.21 -0.34,1.5599 -1.47,3.34 -0.19,4.83 3.71,5.1801 8.6,9.39 12.63,14.33 5.04,5.6599 7.84,13.11 7.78,20.69 4.59,-0.98 8.33,-4.53 13.02,-4.92 41.6,3.65 83.41,2.13 125.09,3.8201 10.98,0.29 21.95,1.65 32.94,0.74 11.47,-0.88 23.18,-1.1 34.27,-4.4 -28.06,-1.8199 -56.14,1.84 -84.22,1.17 -13,-0.8301 -26,-1.77 -39.01,-2.36 -11.28,-0.4401 -22.58,-1.29 -33.86,-0.4501 -7.24,-1.7 -14.9,-3.1799 -21.19,-7.34 -1.66,-3.74 -4.7,-6.86 -9.15,-6.5699 -4.23,6.3999 -7.72,14.34 -15.65,16.94 -0.52,-5.48 2.06,-10.57 5.13,-14.91 3.87,-5.3099 8.6,-10.07 14.12,-13.66 0.57,-2.03 1.66,-3.9401 3.73,-4.7001 6.51,-2.88 13.74,-3.4 20.73,-4.11 25.99,-1.99 52.08,-0.96 78.1,-0.1 31.39,1.17 62.74,3.11 94.11,4.5699 10.49,0.3401 21.03,1.13 31.5,0.13 -1.5601,-9.7 -5.6901,-18.73 -9.1001,-27.87 -3.88,-9.37 -7.46,-18.93 -12.26,-27.87 -3.71,-1.88 -8,-2.22 -11.99,-3.24 -49.85,-10.13 -100,-18.71 -150.07,-27.64 -90.99,-15.91 -182.06,-31.36 -273.23,-46.23 -48.61,-7.84 -97.21,-15.77 -145.99,-22.51 -9.1799,-1.1099 -18.35,-2.6799 -27.62,-2.7898 m 760.92,18.83 c -3.8199,13.37 -6.14,27.11 -8.9299,40.72 -4.8401,25.34 -9.64,50.71 -13.54,76.22 -0.84,9.05 -5.3199,17.35 -5.6801,26.49 48.3,-0.13 96.61,-0.72 144.92,-1.11 94.35,-0.9199 188.71,-1.7999 283.06,-3.01 36.46,-0.6 72.93,-0.75 109.38,-1.9399 -6.77,-6.15 -10.47,-14.66 -15.42,-22.17 -3.96,0.7101 -7.45,2.65 -10.9,4.5901 -1.88,-1.7401 -3.6799,-3.55 -5.37,-5.4501 2.59,-4.22 5.65,-8.39 10.28,-10.53 -4.9501,-3.9199 -11.13,-5.6799 -16.96,-7.8099 -25.3,-8.33 -51.17,-14.76 -76.97,-21.27 -82.97,-20.41 -166.47,-38.63 -250.17,-55.79 -22.54,-4.22 -44.91,-9.8199 -67.83,-11.53 -25.28,-2.5403 -50.42,-7.0603 -75.87,-7.4103 m 448.77,155.17 c -25.01,0.02 -50.03,0.04 -75.03,0.8799 -8.23,0.3601 -16.5,0.53 -24.62,2.02 1.87,19.53 0.4601,39.18 -0.14,58.75 -1.9199,37.43 -3.99,74.95 -9.7799,112.02 13.57,-11.55 26.12,-24.23 39.09,-36.42 21.59,-20.49 43.1,-41.08 65.53,-60.65 14.87,-14.74 29.69,-29.54 44.62,-44.22 3.77,-3.58 6.8199,-7.8199 10.22,-11.73 5.99,-7.12 12.08,-14.15 18.19,-21.15 -22.68,0.8798 -45.39,0.1298 -68.08,0.5 m -1452.2,180.16 c -0.14,1.12 -1.33,2.9401 0.64,2.9501 1.62,0.7899 2.8,-0.7101 3.91,-1.62 -1.52,-0.5001 -3.03,-0.9101 -4.55,-1.3301 m 80.9,0.23 c 0.53,1.54 3.46,1.4401 4.03,-0.02 -0.36,-1.6901 -3.59,-1.5801 -4.03,0.02 m 97.99,1.22 c 2.38,0.76 4.72,1.88 7.21,2.2699 0.79,-0.6 1.55,-1.21 2.3,-1.8199 -3.14,-0.46 -6.34,-0.92 -9.51,-0.45 m 16.75,5.18 c 2.66,0.07 7.07,2 8.01,-1.75 -2.72,0.31 -5.45,0.74 -8.01,1.75 m 87.31,-0.43 c -1.35,1.1 -1.25,2.97 -1.61,4.5399 3.02,0.03 5.8701,-1.71 5.41,-5.0499 -1.28,0.1 -2.56,0.1599 -3.8,0.51 m -31.98,0.3 c 0.31,1.55 -0.77,4.0701 1.24,4.78 2.25,-1.4 1.47,-4.6899 -1.24,-4.78 m 19.29,4.45 c 2.69,-0.02 5.47,-0.7101 5.58,-3.9701 -2.78,-0.3599 -5.51,0.8401 -5.58,3.9701 m 20.93,-1.9899 c -2.32,0.8899 -2.95,3.48 -3.64,5.61 4.41,0.1499 5.46,-6.62 9.47,-5.8501 0.54,1.4901 -0.96,4.04 1.33,4.4501 2.48,-1.23 4.11,-3.53 5.56,-5.79 -4.23,0.6199 -8.67,0.04 -12.72,1.58 m 20.01,9.4399 c 3.5,1.5601 5.41,-2.6899 6.1,-5.41 -3.13,0.04 -6.57,1.7201 -6.1,5.41 m -129.65,-3.34 c 2.4,0.61 4.99,1.01 7.37,0.03 -2.41,-0.6299 -5.03,-1.2401 -7.37,-0.03 m 168.79,-0.3499 c 0.57,2.97 5.38,2.61 6.5,0.06 -2.15,-0.27 -4.38,-0.72 -6.5,-0.06 m -111.74,3.0699 c 3.07,0.2 6.15,0.38 9.19,0.9399 -2.03,-3.2199 -6.28,-2.2598 -9.19,-0.9399 m 278.91,-0.92 c -0.3,1.9 1.85,2.13 3.1,2.88 0.25,-0.61 0.75,-1.8199 1,-2.4299 -1.35,-0.3101 -2.72,-0.6501 -4.1,-0.4501 m -14.15,3.4 c 1.82,0.1 3.65,0.16 5.49,0.17 -0.03,-0.64 -0.11,-1.9301 -0.14,-2.5801 -2.04,0.1601 -3.99,0.8101 -5.35,2.4101 m 27.24,0.1 c 1.74,0.03 3.51,0.05 5.27,0.03 -0.03,-0.63 -0.1,-1.88 -0.13,-2.51 -1.83,0.5801 -3.62,1.29 -5.14,2.48 m -325.86,-0.38 c 4.14,0.27 8.31,0.29 12.45,0.6901 5.2,0.26 11.04,0.98 15.47,-2.4301 -9.32,-0.24 -18.73,0.09 -27.92,1.74 m 65.11,-1.1301 c 4.74,1.8301 9.93,3.8101 15.03,2.0701 -4.88,-1.37 -9.97,-2.12 -15.03,-2.0701 m -77.3,7.2201 c 2.8,0.58 5.81,1.1899 8.58,0.06 -2.83,-0.5699 -5.81,-1.1899 -8.58,-0.06 m 95.03,3.87 c 3.66,0.22 7.61,1.22 11.11,-0.3301 -3.68,-0.3199 -7.6,-1.2499 -11.11,0.3301 m 127.12,2.73 c -0.57,1.6 1.73,2.25 2.72,1.29 0.02,-0.4701 0.06,-1.42 0.09,-1.89 -1.18,-0.74 -2.11,-0.53 -2.81,0.6 m 992.54,1.84 c -0.2401,0.4501 -0.7001,1.36 -0.9401,1.8101 2.22,0.08 4.52,0.4199 6.7,-0.3101 -1.9,-0.63 -3.85,-1.07 -5.7599,-1.5 m -942.91,2.53 c 2.79,0.67 5.64,0.9299 8.49,1.3199 -1.96,-2.89 -5.66,-2.2299 -8.49,-1.3199 m -110.4,3.23 c -1.2,2.7 -2.28,5.46 -3.33,8.25 2.54,-0.39 5.06,-0.9399 7.45,-1.9 -1.67,-0.95 -3.77,-1.39 -4.66,-3.25 2.13,-0.75 4.58,-1 6,-2.98 -1.83,-0.1 -3.65,-0.12 -5.46,-0.12 m 1005.3,5.15 c -4.6801,0.51 -9.13,-0.9401 -13.59,-2 -2.12,-0.6801 -4.0701,0.4399 -5.8201,1.47 9.39,1.41 18.96,1.4301 28.31,3.24 1.35,0.14 2.98,0.73 4.08,-0.53 -1.42,-1.1399 -2.92,-2.1599 -4.34,-3.2 4.2999,-1.24 9.5599,0.77 13.03,-2.85 -3.28,-0.07 -6.52,0.98 -9.76,0.4 0.08,-0.8 0.24,-2.4 0.3099,-3.2101 -4.8499,0.05 -10.31,1.7501 -12.22,6.6801 m -945.28,-1.3201 c 3.46,-0.38 6.64,1.63 10.09,1.2101 0.2,-1.2001 0.19,-2.7001 -1.04,-3.28 -2.92,-1.4 -7.45,-1.17 -9.05,2.0699 m 10.84,-1.8898 c 1.39,2.2699 0.43,4.59 -1.06,6.5 6.01,-0.6801 12.44,1.86 18.07,-1.12 -0.11,-1.3601 -0.24,-2.7001 -0.25,-4.02 -4.73,-3.8701 -11.32,-2.9101 -16.76,-1.36 m -19.71,2.2099 c 2.11,3.63 8.06,2.5 8.56,-1.74 -3,-0.36 -5.82,0.69 -8.56,1.74 m -72.34,3.45 c 2.08,-0.47 4.02,-1.35 5.77,-2.5499 -2.3,-0.1601 -5.93,-1.1301 -5.77,2.5499 m 1002.2,0.96 c 13.03,2.4199 25.75,9.8999 39.34,6.21 3.52,3.37 8.27,5.16 13.04,5.9299 3.84,0.4801 7.5599,-1.0199 11.16,-2.1499 -6.4399,-0.8401 -12.86,-1.79 -19.15,-3.4 -14.53,-3.4501 -29.25,-8.63 -44.39,-6.59 m -832.96,3.16 c 2.54,0.39 5.14,0.64 7.71,0.25 -2.47,-0.97 -5.25,-1.54 -7.71,-0.25 m -131.88,0.45 c -1.73,0.6 -1.77,2.77 -0.08,3.5299 2.8,0.4501 4.95,-1.74 7.18,-3.0399 -2.36,-0.27 -4.73,-0.81 -7.1,-0.49 m 271.82,4.47 c 2.4901,0.42 5.05,0.61 7.59,0.23 -2.42,-1 -5.18,-1.49 -7.59,-0.23 m 348.89,0.1801 c 0.02,0.85 0.07,2.5599 0.09,3.4099 0.85,-0.36 1.71,-0.6899 2.59,-0.99 0.07,1.35 0.12,2.73 0.16,4.13 0.73,-0.13 2.1899,-0.39 2.9299,-0.53 -1.4199,-2.41 -2.4099,-6.05 -5.7699,-6.0199 m -25.87,0.08 c 0.12,3.51 3.6599,3.14 6.0099,2.14 -1.97,-0.86 -3.96,-1.58 -6.0099,-2.14 m 365.19,3.15 c 2.26,0.6799 4.45,1.6899 6.8,2.2 0.04,-0.47 0.12,-1.41 0.1599,-1.87 -2.2299,-1.01 -4.6799,-1.1899 -6.9599,-0.33 m 137.23,-0.7299 c -0.62,0.7899 -1.1799,1.6499 -1.6899,2.5299 1.14,-0.11 2.2999,-0.26 3.49,-0.39 -0.6201,-0.74 -1.22,-1.45 -1.8001,-2.1399 m -733.01,2.9099 c -0.8701,0.36 -2.52,0.9301 -1.7401,2.1901 2.61,0.3099 5.31,0.03 7.61,-1.35 -1.7599,-1.0601 -3.8999,-1.3501 -5.8699,-0.8401 m 204.06,-1.33 c 0.9399,2.23 1.7899,4.71 3.7999,6.29 4.4501,3.6799 11.41,3.2999 15.83,-0.27 -4.97,-1.16 -10.11,-0.62 -15.1,-1.38 -0.5601,-1.5901 0.2599,-3.23 0.5,-4.74 -1.69,0 -3.3601,0.04 -5.03,0.1 m 413.39,2.99 c 4.22,0.11 8.3999,0.8099 12.62,1.15 1.2799,0.09 2.0699,-1.16 3.12,-1.7001 -5.06,-1.2698 -11.3,-3.2899 -15.74,0.5501 m -353.53,-1.62 c -1.0701,1.38 1.38,3.13 2.47,1.8199 1.01,-1.4399 -1.4,-3.1299 -2.47,-1.8199 m -535.67,1.1799 c 2.3799,1.05 5.17,1.63 7.6,0.3601 -2.51,-0.4801 -5.07,-0.65 -7.6,-0.3601 m 52.95,-0.1298 c 2.27,1.33 5.08,1.6499 7.51,0.5299 -2.48,-0.48 -5,-0.7 -7.51,-0.5299 m 131.81,2.7199 c 2.36,1.1899 4.79,0.35 6.63,-1.37 -2.42,-1.06 -5.2,-1.19 -6.63,1.37 m 820.05,-2.66 c 2.9199,1.3 6.37,1.7 9.4199,0.52 -3.1099,-0.5701 -6.2899,-0.99 -9.4199,-0.52 m -1021.1,5.01 c 1.66,-1.0601 3.34,-2.23 4.27,-4.03 -2.61,-0.34 -4.67,1.3 -4.27,4.03 m 93.3,-4.4401 c 0.01,1.4501 0.09,2.91 0.26,4.39 0.66,-0.73 1.35,-1.4199 1.98,-2.1599 -0.69,-0.81 -1.49,-1.55 -2.24,-2.2301 m -86.9,1.9001 c -1,0.3 -2.06,2.36 -0.52,2.7001 1.15,-0.26 2.02,-0.92 2.6,-1.9601 0.61,-1.35 -1.45,-1.3 -2.08,-0.74 m 93.98,0.67 c 3.7,0.22 7.84,2.0699 11.19,-0.38 -3.71,-0.24 -7.65,-1.21 -11.19,0.38 m -35.93,0.89 c 2.55,0.25 5.36,2.1899 7.85,0.85 -1.48,-2.45 -5.41,-1.1801 -7.85,-0.85 m -44.12,4.01 c 2.3,0.2899 5.77,-2.41 6.96,0.8099 -2.47,0.41 -4.96,0.51 -7.42,0.1 -0.67,0.91 -1.36,1.79 -1.95,2.8 4.54,3.61 10.37,0.66 15.15,-0.85 7.33,2.73 15.09,4.54 22.97,3.76 0.23,1.97 0.96,3.7899 2.19,5.39 0.07,-0.7001 0.22,-2.11 0.3,-2.8101 1.37,0.3101 2.7,0.47 4.11,0.79 -0.7401,-3.48 -3.19,-6.1901 -4.19,-9.55 -6.65,-0.33 -14.32,0.49 -19.44,-4.6699 -6.19,1.4501 -13.54,-0.24 -18.68,4.2301 m 106.94,-2.26 c 3.2,0.37 6.4399,0.02 9.66,0.2899 2.29,1.03 4.59,2.14 7.18,2.2201 2.9,0.6899 3.7,-4.65 6.68,-3.29 1.27,0.88 3.76,0.89 4.1,2.66 -0.65,1.12 -1.3,2.24 -1.92,3.4199 2,-0.12 3.68,-1.0399 3.99,-3.1499 0.58,-0.3 1.72,-0.91 2.29,-1.2101 -6.6,-4.46 -14.83,-1.6699 -22.19,-1.6899 -3.26,0.44 -6.88,-1.38 -9.79,0.75 m 31.94,-0.13 c 2.36,0.35 4.79,0.54 7.1801,0.2 -2.1301,-1.48 -5.4701,-3.1501 -7.1801,-0.2 m 50.37,-0.16 c 4.27,0.38 8.71,1.33 12.89,-0.17 -4.26,-0.8 -9.08,-2.92 -12.89,0.17 m 47.53,-0.06 c 2.44,0.5399 5.08,1.0699 7.51,0.11 -2.45,-0.67 -5.12,-1.27 -7.51,-0.11 m 153.22,0.46 c 0.02,0.3199 0.06,0.97 0.08,1.29 2.11,-0.03 4.38,0.4299 6.35,-0.63 -2.1401,-0.4 -4.2901,-0.56 -6.4301,-0.66 m 11.63,0.89 c 2.17,0.27 4.4,0.4 6.3301,1.64 0.2899,-0.14 0.8899,-0.41 1.1799,-0.55 -1.7901,-2.77 -4.96,-2.28 -7.51,-1.09 m 173.48,-0.61 c 0.02,0.5599 0.05,1.6899 0.07,2.26 0.5699,0.03 1.7,0.09 2.27,0.12 0.04,-0.62 0.11,-1.86 0.1499,-2.49 -0.6201,0.03 -1.86,0.08 -2.49,0.11 m 13.11,-0.05 c -1.04,2.21 4.37,1.96 3.8099,-0.03 -1.03,-0.92 -2.8099,-0.85 -3.8099,0.03 m -532.54,0.76 c 0.06,0.55 0.19,1.64 0.25,2.1899 1.09,1.2201 2.57,-0.12 3.74,-0.5399 -1.32,-0.62 -2.64,-1.18 -3.99,-1.65 m 19.81,1.71 c -0.07,0.54 -0.19,1.62 -0.26,2.16 1.26,0.04 2.53,0.11 3.82,0.2 -0.02,-0.8199 -0.04,-1.63 -0.04,-2.4099 -1.19,-0.01 -2.36,0.01 -3.52,0.05 m 4.53,1.7299 c 4.73,-0.09 9.32,1.91 14.03,1.0701 -3.29,-4.26 -9.84,-3.5799 -14.03,-1.0701 m 290.02,-1.0699 c 3.6899,0.24 7.6801,1.29 11.18,-0.39 -3.7001,-0.69 -7.7901,-1.84 -11.18,0.39 m 165.6,1.74 c 3.5801,0.51 8.7001,1.41 10.44,-2.79 -3.7302,-0.43 -7.3401,0.81 -10.44,2.79 m 352.51,0.4501 2.89,-0.13 c -0.06,0.6 -0.16,1.7799 -0.21,2.38 1.61,2.24 4.4299,3.0699 7.01,3.7 4.3899,0.86 9.5599,0.9 12.87,-2.63 -6.12,-0.7 -12.88,1.3199 -18.57,-1.51 -1.0499,-1.79 1.62,-2.64 2.6801,-3.52 0.14,-0.34 0.4099,-1.03 0.5399,-1.38 -2.5599,0.5599 -5.6999,0.5699 -7.2099,3.09 m -818.06,-2.6001 c -1.11,1.4501 1.66,2.1901 2.54,1.3101 1.15,-1.4801 -1.69,-2.3501 -2.54,-1.3101 m 216.96,1.43 c 2.42,0.52 5.13,1.4299 7.39,-0.17 -2.45,-0.45 -5.01,-0.71 -7.39,0.17 m 222.99,0.12 c 7.75,-1.16 15.3,2.9 22.96,0.9299 -7.5201,-0.75 -15.84,-5.3299 -22.96,-0.9299 m 31.25,4.6 c 1.14,0.3 2.3,0.59 3.48,0.89 0.09,0.27 0.25,0.8101 0.33,1.09 -1.6899,0.54 -3.23,1.41 -4.72,2.3401 l 3.04,0.5499 c -0.63,0.67 -1.24,1.38 -1.8201,2.12 -4.0499,0.15 -8.22,-0.51 -11.45,-3.09 -0.34,1.03 -0.8099,2.01 -1.4,2.9299 -0.71,1.04 -3.35,1.51 -2.11,3.0701 2.13,1.37 4.42,-0.96 6.51,-1.58 0.8201,0.96 1.66,1.9299 2.53,2.9199 -2.3301,1.17 -1.46,4.87 -4.05,5.51 -5,1.5 -9.7999,-1.4399 -14.61,-2.36 1.5,3.16 5.8101,1.71 7.98,4.24 4.4401,-1.77 9.14,-0.1899 13.25,1.72 7.11,-3.75 15.48,-5.26 23.44,-4.02 3.9399,0.5901 7.65,3.13 8.6699,7.17 0.53,-1.6799 0.67,-3.6 1.9601,-4.89 1.7,-0.9399 4.0299,-0.5699 5.5499,-1.74 -2,-2.79 -1.98,-6.01 -0.64,-9.08 -3.46,-0.89 -7.0299,-1.09 -10.53,-1.66 -1.66,2.39 -3.64,4.55 -5.26,6.97 -5.17,0.3 -10.35,0.62 -15.51,0.1901 -0.4501,-1.9401 -0.88,-3.8201 -1.39,-5.7101 1.59,-0.09 3.38,0.08 4.4301,-1.4399 -1.28,0.11 -3.8501,0.33 -5.13,0.45 1.23,-2.0499 1.7699,-4.35 2.4299,-6.59 0.26,-4.3199 5.08,-2.61 7.92,-2.99 -1.3101,-0.89 -2.7001,-2.49 -4.4401,-1.83 -3.1099,1.0201 -5.6099,3.2799 -8.4599,4.82 m -442.77,-2.07 c 3.82,0.1699 8.59,3.49 11.56,-0.29 -3.88,0.17 -8.11,-2.34 -11.56,0.29 m 84.54,1.3999 c 3.92,0.1101 8.11,-0.1 11.48,2.29 -0.17,-0.9299 -0.51,-2.79 -0.67,-3.72 1.68,0.66 2.65,1.9399 2.92,3.86 1.08,-1.84 2.26,-3.6 3.53,-5.29 -5.65,1.7101 -12.54,-1.4999 -17.26,2.86 m -23.32,0.1601 c 3.45,0.1801 7.66,0.9501 10.4,-1.77 -3.52,-0.01 -7.47,-0.6401 -10.4,1.77 m 11.18,-1.96 c 0.67,2.28 2.76,2.29 4.22,0.84 -1.41,-0.38 -2.79,-0.6601 -4.22,-0.84 m 328.13,-0.37 c -0.4301,2.34 1.24,5.3099 -0.41,7.27 -2.0599,-0.51 -2.21,-2.79 -3.1699,-4.28 -0.54,0.05 -1.6201,0.15 -2.16,0.2 0.9,1.3101 1.75,2.66 2.58,4.0701 -3.34,0.95 -7.8099,0.03 -9.6699,3.73 4.1899,-0.4401 9.2,-2.1901 12.56,1.4 0.06,-0.73 0.17,-2.2001 0.23,-2.9301 1.5801,1.05 3.22,2.14 5.01,2.89 -1.26,-1.46 -2.02,-5.55 -4.7,-2.8199 0.5699,-1.49 0.9199,-3 1.0499,-4.55 1.79,-0.1801 3.54,-0.67 5.24,-1.28 -2.16,-1.3101 -4.37,-2.5001 -6.56,-3.7001 m 13.42,1.38 c -0.01,0.53 -0.02,1.59 -0.03,2.11 0.62,0.06 1.85,0.17 2.47,0.23 l -0.26,-1.85 c 1.4301,0.52 2.9,1.11 4.36,1.6799 -0.5,-1.3199 -0.97,-2.58 -1.51,-3.8199 -1.2401,1.67 -3.1001,2.14 -5.03,1.65 m 42.9,1.7 c 1.9,0.42 4.05,0.4 5.7201,1.61 0.5299,1.8401 -0.9801,2.9501 -2.1101,4.14 5.6901,0.06 9.41,-4.52 12.34,-8.76 -5.4201,0.01 -11.36,-0.42 -15.95,3.01 m -417.34,-2 c -1.24,2.2101 3.12,2.64 3.28,0.51 -0.18,-1.5401 -2.49,-1.49 -3.28,-0.51 m 270.1,2.53 c 2.41,-0.15 5.12,-0.2 6.8401,-2.2 -2.5601,-0.42 -4.8702,0.71 -6.8401,2.2 m 77.11,-2.05 c 2.0601,0.63 4,1.9 6.2201,2 -0.12,-2.84 -4.1801,-2.5 -6.2201,-2 m -440.1,1.6099 c 2.49,0.4501 5.03,0.6901 7.56,0.3201 -2.34,-1.18 -5.15,-1.48 -7.56,-0.3201 m 235.84,0.05 c 2.47,0.4401 5,0.61 7.5,0.1801 -2.36,-1.0401 -5.15,-1.4701 -7.5,-0.1801 m 10.12,0.71 c 1.5,2.4501 4.87,3.0601 7.07,1.1901 -2.19,-1.1201 -4.62,-2.0101 -7.07,-1.1901 m 341.13,0.16 c 2.63,1.3201 5.8501,2.38 8.3,0.15 -2.7499,-0.52 -5.5598,-0.74 -8.3,-0.15 m 161.33,1.34 c 3.24,1.3501 6.6899,1.92 10.09,2.74 1.51,-0.35 2.9301,-1 4.24,-1.84 -2.21,-0.3099 -4.4299,-0.38 -6.5499,-0.96 -0.7001,0.26 -1.37,0.5499 -2.02,0.87 l -0.17,-1.74 c -1.9001,0.21 -3.7501,0.52 -5.5901,0.93 m -774.58,1.54 c 5.34,1.0601 10.53,2.6801 15.66,4.48 4.33,1.55 9.44,1.92 13.32,-0.97 -4.05,0.83 -8.3,0.89 -12.23,-0.5 -5.44,-1.53 -10.97,-5.1899 -16.75,-3.01 m 564.36,-0.76 c 0.1399,0.86 -0.28,2.2001 0.9199,2.53 0.7001,-0.4301 1.41,-0.86 2.13,-1.29 -1.03,-0.45 -2.0401,-0.86 -3.0499,-1.24 m 227.14,2.03 c 6.52,-0.54 13.11,0.4299 19.59,-0.6901 -6.3,-1.3199 -13.95,-3.5699 -19.59,0.6901 m -702.39,-0.16 c 3.08,0.49 6.24,0.84 9.36,0.3301 -2.94,-1.25 -6.38,-1.62 -9.36,-0.3301 m 494.23,-1.25 c 0.2999,1.3301 0.6,2.64 0.95,4.03 -2.4299,-0.2 -5.45,-2.13 -7.35,0.29 4.96,1.22 10.11,0.73 15.01,-0.53 -3.44,0.05 -5.53,-2.87 -8.61,-3.79 m 59.39,1.24 c 2.4099,0.42 5.0599,1.1 7.3199,-0.26 -2.4398,-0.29 -5.0399,-0.98 -7.3199,0.26 m 96.01,0.87 c 1.5299,1.6001 3.5499,2.76 5.87,2.4601 3.4099,-0.2001 8.2599,-0.9601 9.0199,-5.01 -4.56,2.6299 -9.85,2.2399 -14.89,2.5499 m -86.69,0.9 c 1.8,0.2001 3.5699,-0.21 5.13,-1.12 -1.8199,-0.33 -3.85,-0.61 -5.13,1.12 m 165.98,-1.02 c 3.73,1.78 7.9,4.27 12.1,2.4401 -3.6301,-2.1 -7.95,-3.0501 -12.1,-2.4401 m -766.98,0.02 c 1.77,3.62 6.15,3.3201 9.58,3.26 -1.8,-3.71 -6.17,-3.27 -9.58,-3.26 m 368.62,1.59 c 2.52,0.8201 5.21,1.0901 7.74,0.15 -0.45,-0.37 -1.34,-1.11 -1.79,-1.48 -1.99,0.4401 -3.99,0.84 -5.95,1.33 m 38.03,1.79 c 3.3099,-0.1899 6.83,-0.76 9.16,-3.36 -3.28,0.36 -6.59,1.1899 -9.16,3.36 m -300.79,-2.36 c 2.15,1.87 5.21,3.35 7.97,1.83 -2.53,-1.1 -5.15,-2.23 -7.97,-1.83 m 440.61,0.95 c 8.14,1.3201 17.57,5.4801 25.24,0.63 -8.45,1.37 -16.8,-1.69 -25.24,-0.63 m -610.72,2.12 c 1.57,0.8301 3.18,0.3201 4.7,-0.36 -0.99,-0.48 -1.97,-0.9399 -2.95,-1.36 -0.59,0.55 -1.18,1.12 -1.75,1.72 m 113.31,0.4801 c 0.69,-0.05 2.09,-0.16 2.79,-0.2201 0.48,-0.8099 0.97,-1.59 1.47,-2.36 -1.76,0.3 -3.65,0.61 -4.26,2.5801 m 276.93,-1.9902 c 3.55,2.25 7.9401,2.1201 11.98,1.7001 -3.79,-1.53 -7.9001,-2.63 -11.98,-1.7001 m 119.77,1.8601 c 3,0.3899 6.05,0.72 9.09,0.2799 0.38,-1.8099 -1.7,-3.01 -3.25,-2.64 -2.21,-0.06 -4.0399,1.2701 -5.84,2.3601 m 230.44,0.37 c 3.4501,0.9099 7.3101,0.1799 9.6801,-2.65 -3.37,0.25 -6.62,1.26 -9.6801,2.65 m -651.04,-0.96 c 2.72,1.86 6.23,1.4501 9,3.14 -4.03,4.34 -10.3,3.5701 -15.33,5.8 0.98,0.5599 1.94,1.1699 2.89,1.84 -3.32,2.64 -8.4,1.05 -11.2,4.36 5.02,0.12 10.01,1.29 15.04,0.97 2.74,-0.12 5.18,-1.5499 6.74,-3.7699 2.47,2.3999 5.78,1.6499 8.74,0.6899 1.2,-3.67 4.92,-5.27 7.5,-7.8099 -3.39,0.22 -6.6,2.08 -10.03,1.5 -0.91,-1.3101 -1.2,-2.9701 -1.74,-4.37 3.03,0.7899 6.18,1.5099 9.31,0.6699 -1.33,-1.1799 -2.71,-2.27 -4.06,-3.37 -5.62,0.14 -11.27,-0.31 -16.86,0.35 m 547.14,-0.23 c 1.01,0.97 1.8099,2.4 3.2899,2.77 7.9601,1.8 16.23,2.03 24.3,0.73 -9.0999,-1.9101 -18.49,-1.57 -27.59,-3.5 m -153.3,3.9 c 3.24,1.22 6.91,1.16 9.86,-0.8101 -2.31,-3.0199 -7.39,-1.3699 -9.86,0.8101 m -473.3,-1.03 c 1.77,3.28 5.75,1.49 8.71,1.55 -1.39,-3.8301 -5.71,-1.77 -8.71,-1.55 m 40.75,1.68 c 11.47,-0.7001 23.29,1.75 34.45,-1.88 -11.47,0.23 -23.32,-1.74 -34.45,1.88 m 528.04,-0.08 c 2.23,0.4301 5.3101,-0.6599 6.37,2.2201 -3.7999,0.5 -7.89,-0.12 -11.49,0.74 0.2,0.85 0.6,2.5499 0.8,3.4 -1.17,1.4199 -2.79,2.2699 -4.48,2.9299 2.2899,0.9 4.5,2.03 6.8199,2.92 -0.4301,-0.5901 -1.3,-1.78 -1.74,-2.37 0.71,-0.8 1.4399,-1.5801 2.2,-2.3201 5.63,2.5 12.02,-0.73 17.63,2.28 0.25,-1.41 0.37,-2.83 0.9601,-4.11 0.7799,-2.08 3.2799,-1.76 5.0399,-2.29 0.1901,-0.47 0.5601,-1.4199 0.74,-1.89 -5.22,0.62 -9.5599,6.01 -15.05,3.23 l 1.47,-1.1899 c -2.23,-1.22 -4.08,-2.99 -3.58,-5.72 -1.92,0.68 -3.83,1.36 -5.69,2.17 m 127.93,-1.48 c 5.7899,1.11 11.79,0.65 17.61,-0.15 -5.85,-0.66 -11.8,-0.74 -17.61,0.15 m -681.47,0.36 c -1.14,2.11 3.15,2.49 3.55,0.62 -0.24,-1.56 -2.63,-1.47 -3.55,-0.62 m 8.47,-0.1 c 2.7401,3.02 6.98,3.4301 10.8,2.74 -3.58,-1.0301 -7.21,-1.81 -10.8,-2.74 m 103.62,4.9501 c 3.05,0.6 6.17,0.5699 9.27,0.7 -0.61,1.04 -1.18,2.13 -1.73,3.24 0.67,-0.8099 1.34,-1.6 2,-2.39 3.08,-0.66 6.23,-0.8199 9.38,-0.95 -0.86,-0.64 -1.72,-1.25 -2.57,-1.8401 1.04,-1.2 2.11,-2.37 3.16,-3.5399 -6.71,0.3499 -13.58,1.4399 -19.51,4.78 m 684.12,-4.6001 c -2.3401,0.9401 -5.28,0.08 -7.11,2.11 6.2999,1.9701 12.9,-1.62 19.17,1.0601 -2.6999,-4.4001 -8.0799,-1.5801 -12.06,-3.1701 m -491.55,3.6001 c 1,-0.54 2.01,-1.0801 3.02,-1.6001 1.73,0.27 3.45,0.6001 5.1899,0.9601 -1.7999,-2.7001 -7.9199,-3.2401 -8.2099,0.64 m 68.93,1.4499 c 1.1799,-1.5699 2.4099,-3.1 3.5599,-4.6801 -2.8499,-0.09 -4.4699,2.0701 -3.5599,4.6801 m 9.37,-3.25 c 3.01,0.46 6.51,2.23 9.13,-0.24 -3.05,-0.26 -6.2299,-1.05 -9.13,0.24 m -243.05,0.6899 c -0.08,3.0701 2.94,2.3301 5.1,2.42 -0.01,-0.86 -0.01,-1.6899 0,-2.51 -1.71,0.01 -3.41,0.02 -5.1,0.09 m 256.13,-0.9499 c 2.4401,1.95 5.55,2.79 8.63,3.0601 -2.6799,-1.5 -5.49,-2.9801 -8.63,-3.0601 m 305.1,2.46 c 1.8301,-0.34 3.7101,-0.8099 5.2101,-2.01 -2.1002,-0.21 -4.7201,-0.86 -5.2101,2.01 m -324.04,-0.74 c 0.1699,1.39 0.4199,2.89 0.6899,4.3201 0.42,-0.8201 1.26,-2.4601 1.6801,-3.28 3.62,2.51 4.48,8.36 9.4199,8.83 -1.25,-1.7899 -0.7799,-3.73 0.03,-5.5599 -1.41,-1.0601 -2.74,-2.2101 -4.01,-3.39 -2.6099,1.4199 -5.1698,-0.6002 -7.8099,-0.9202 m 334.65,-0.67 c 1.9901,2.24 1.9701,5.14 1.67,7.98 1.5601,-2.9601 6.88,-5.6 8.96,-1.98 0.27,-0.06 0.8201,-0.1801 1.0901,-0.24 -0.9701,-1.1801 -1.99,-2.41 -2.88,-3.53 6.8199,-0.08 13.42,1.85 20.2,2.36 -7.98,-7.06 -19.44,-3.55 -29.04,-4.59 m -23.32,0.7601 c 0.26,3.8999 4.46,2.99 7.09,2.2799 -2.38,-0.7701 -4.7,-1.6499 -7.09,-2.2799 m 128.19,4.4099 c 1.39,-0.73 2.76,-1.51 4.14,-2.27 -0.5499,-0.1599 -1.64,-0.49 -2.1799,-0.6599 -0.68,0.9599 -1.36,1.9 -1.9601,2.9299 m -486.95,0.06 c -2.45,-0.39 -4.9,-0.8201 -7.29,-1.4301 1.2301,3.1801 4.7399,2.47 7.29,1.4301 m 43.55,-2.11 c -0.52,3.27 2.12,5.61 5.35,5.12 -1.67,-1.8499 -3.3299,-3.7 -5.35,-5.12 m 262.95,2.56 c 0.8,-0.06 2.41,-0.1799 3.22,-0.24 0.87,-2.9 -2.62,-1.38 -3.22,0.24 m 22.29,-1.98 c 1.58,1.39 3.47,1.21 4.96,-0.3 -1.6799,-0.05 -3.33,0.05 -4.96,0.3 m 16.02,0.4401 c 3.3899,0.4299 6.7699,0.99 10.18,1.3899 1.39,0.1801 2.3,-1.1799 3.41,-1.7799 -4.5199,-0.05 -9.2,-0.99 -13.59,0.39 m 29.95,1.6499 c 1.83,-0.46 3.62,-1.22 4.8101,-2.76 -2.0601,0.05 -3.7901,0.9899 -4.8101,2.76 m -120.9,1.21 c 8.75,1.0199 18.21,3.97 26.49,-0.5601 -4.1599,-0.24 -8.35,-0.05 -12.48,-0.64 -4.66,-0.5599 -9.83,-1.6299 -14.01,1.2001 m -459.45,1.31 c 5.61,2.11 12.24,2.34 17.57,-0.72 -5.8299,0.07 -12.03,-1.8201 -17.57,0.72 m 50.46,0.91 c 3.04,0.27 6.3,1.0599 9.15,-0.48 -2.98,-1.5901 -6.36,-1.33 -9.15,0.48 m 99.69,0.33 c 3.14,-0.1 6.25,-1.0499 9.42,-0.5499 4.24,0.4399 9.12,1.5699 12.67,-1.5601 -4.9,-0.15 -9.8,-0.29 -14.69,-0.27 -2.58,0.13 -5.7,0.08 -7.4,2.38 m 22.52,0.15 c 1.91,-0.14 3.5601,-1.04 4.5601,-2.71 -2.08,-0.03 -3.84,0.69 -4.5601,2.71 m 227.09,-1.85 c 0.9199,1.02 1.45,2.23 1.5699,3.62 3.7001,-1.8101 7.84,-0.5 11.77,-0.78 -3.3999,-3.64 -8.7699,-4.06 -13.34,-2.84 m -275.52,1.33 c 4.34,0.1801 8.93,1.3201 13.13,-0.2999 -4.35,-0.3602 -8.93,-1.3501 -13.13,0.2999 m -85.18,0.91 c 1.72,1.28 3.56,2.51 5.67,3.1 -1.19,-2.07 -3.03,-4.81 -5.67,-3.1 m 538.39,0.29 c -1.87,0.13 -3.02,1.6799 -4.2,2.9299 5.25,0.73 9.49,-3.4 14.78,-3.0599 -3.48,-0.81 -7.1101,-0.39 -10.58,0.13 m -528.09,2.0101 c 3.68,1.5099 7.95,2.7999 11.89,1.6 -3.98,-0.4601 -7.86,-1.8101 -11.89,-1.6 m 24.73,1.5 c -2.53,-0.9301 -6.01,-1.6201 -7.3,1.5199 2.93,0.36 5.88,-0.12 8.82,0.24 2.21,0.9801 4.06,2.62 6.27,3.65 -1.11,-2.0599 -4.53,-3.34 -3.38,-6.0499 2.77,-0.89 5.2599,2.1 8.14,0.95 -3.31,-3.5502 -8.78,-2.4201 -12.55,-0.31 m 120.05,-1.6001 c 0.03,0.54 0.08,1.64 0.11,2.1801 0.5499,0.03 1.66,0.08 2.22,0.11 0.05,-0.61 0.14,-1.8199 0.1901,-2.4301 -0.63,0.03 -1.8901,0.1 -2.5201,0.14 m 238.84,-0.09 c 1.67,2.5601 5.14,3.46 7.42,1.0699 -1.66,-0.11 -3.3101,-0.1599 -4.9501,-0.1399 -0.6199,-0.2301 -1.8499,-0.7 -2.4699,-0.93 m 51.97,-0.15 c 0.1,0.6 0.3101,1.78 0.42,2.37 2.14,0.3101 4.3199,0.4401 6.51,0.28 -3.1801,5.4401 -9.4401,1.53 -13.85,0.37 1.6699,-1.22 3.71,-1.45 5.71,-1.72 -13.19,0.16 -26.44,-1.51 -39.6,0.11 4.83,1.22 10.16,1.15 14.59,3.73 2.24,2.16 -0.98,4.2001 -2.1801,5.91 7.4601,-1.49 13.97,-5.67 21.34,-7.47 0.6799,1.83 1.24,3.6699 1.39,5.7 -2.3501,-0.4301 -4.53,-1.98 -6.9601,-1.37 2.88,1.77 6.01,3.16 8.75,5.1899 0.67,-2.33 1.85,-4.83 4.41,-5.5 4.5,-1.45 9.33,-1.2699 13.99,-1.9099 -4.7599,-2.06 -9.3299,-5.18 -14.52,-5.69 m -335.08,2.12 c 1.84,1.11 3.93,1.5601 6.07,1.7001 -0.72,-2.9702 -3.9,-2.0301 -6.07,-1.7001 m 367.95,-0.79 c 2.17,1.35 4.9501,1.5699 7.28,0.45 -2.4,-0.48 -4.86,-0.75 -7.28,-0.45 m -583.46,1.17 c 0.84,2.03 2.87,2.1901 4.66,1.3401 -1.54,-0.5901 -3.08,-1.0301 -4.66,-1.3401 m 148.06,4.83 c 5.92,1.13 12.42,0.62 17.11,-3.55 -3.24,-0.9301 -6.5,-2.21 -9.92,-2.08 -3.31,0.32 -5.33,3.21 -7.19,5.63 m -100.57,-4.04 c 9.38,2.1899 19.6,4.5 28.99,1.17 -9.75,0.94 -19.35,-3.63 -28.99,-1.17 m 295.15,0.98 c 0.4299,1.6901 3.5599,1.53 3.96,-0.13 -0.53,-1.49 -3.56,-1.41 -3.96,0.13 m 224.56,4.42 c 8.7101,1.2999 17.4,-0.77 26.06,-1.51 4.7,-0.9601 10.56,-3.36 14.19,1.1699 -1.4199,-0.24 -2.8199,-0.4099 -4.22,-0.49 -1.54,0.76 -2.41,2.3 -3.39,3.62 4.5701,-0.7699 9.2101,-0.5399 13.83,-0.25 -3.04,-2.48 -0.5,-5.8199 1.63,-7.87 -16.25,-2.2199 -32.05,3.8301 -48.1,5.3301 m 167.52,-2.01 c 2.14,-0.8301 5.48,0.14 6.85,-1.73 -1.32,-3.5 -5.75,-0.6001 -6.85,1.73 m -362.66,-1.88 2.4801,0.62 c 0.37,0.66 1.12,1.99 1.49,2.65 -2.0801,0.2 -4.1901,0.4399 -5.9701,1.59 0.6101,-0.23 1.8401,-0.6901 2.4501,-0.92 1.11,0.03 2.22,0.12 3.35,0.26 1.8199,1.9 4.01,3.47 6.5699,1.6901 -0.9099,-0.35 -2.72,-1.04 -3.6299,-1.39 0.5499,-1.8 2.6399,-3.48 1.75,-5.46 -2.8799,-0.1601 -5.92,-0.6101 -8.4901,0.9599 m 259.22,2.6699 c -4.5,0.09 -9.5601,-1.0299 -13.34,2.0901 10.78,-0.26 22.79,2.1799 32.29,-4.37 -5.58,-0.24 -10.72,4.48 -16.28,1.59 1.9601,-0.52 3.92,-1.0699 5.88,-1.66 -3.1099,-2.5299 -6.9599,-0.95 -8.5499,2.3499 m -465.31,-2.9299 c -0.45,3.3 2.7,3.4 4.74,2.22 -1.54,-0.86 -3.13,-1.6 -4.74,-2.22 m 491.51,1.89 c 6.55,0.85 13.05,3.78 19.73,2.48 -6.5301,-0.87 -13.16,-5.11 -19.73,-2.48 m -302.25,-0.35 c -1.12,1.99 3.36,2.36 3.8,0.63 -0.41,-1.56 -2.77,-1.3699 -3.8,-0.63 m -164.24,3.48 c 8.51,-0.05 17.03,0.6599 25.53,0.4099 -8.36,-1.25 -17.42,-4.1499 -25.53,-0.4099 m 62.14,-0.25 c 3.13,0.39 6.52,1.1799 9.5,-0.28 -3.16,-0.3101 -6.48,-1.04 -9.5,0.28 m -118.59,2.17 c 0,0.1901 0.01,0.5601 0.01,0.75 6.09,0.87 12.28,1.25 18.23,-0.71 -6.05,-0.82 -12.2,-0.89 -18.24,-0.04 m 199.87,1.38 c 2.3199,-0.4199 4.6799,-0.2899 7.0399,-0.14 0.28,-0.6499 0.8201,-1.9299 1.0901,-2.5699 -2.82,0.4299 -6.2301,0.2099 -8.13,2.7099 m 8.3999,0.45 c 2.7401,-0.4501 5.5801,-0.74 8.1001,-2.01 -2.9,-0.32 -6.2399,-0.74 -8.1001,2.01 m 204.99,-2.29 c 1.25,2.03 3.61,3.14 5.8899,2.12 -1.91,-0.89 -3.78,-1.91 -5.8899,-2.12 m 139.14,2.75 c 2.1901,-0.02 4.17,-0.84 5.53,-2.58 -2.2901,-0.33 -4.96,-0.11 -5.53,2.58 m -126.24,0.07 c 1.65,1.6799 4.0801,2.1 6.3201,1.47 -1.89,-1.25 -3.7001,-2.48 -5.55,-3.7101 -0.3,0.72 -0.5601,1.46 -0.7701,2.2401 m -458.75,1.6599 c 8.86,-0.5499 17.74,-0.2 26.6,-0.87 -5.07,-0.76 -10.16,-1.2899 -15.26,-1.66 -3.89,-0.16 -8.34,-0.48 -11.34,2.53 m 189.23,0.06 c 4.4701,0.35 8.9601,0.5399 13.42,1.2 -3.1798,-4.43 -9.1099,-2.6699 -13.42,-1.2 m 276.5,-0.45 c 2.05,0.64 5.4301,4.04 6.92,1.02 -1.4799,-2.5301 -4.6599,-1.4101 -6.92,-1.02 m 43.71,-0.18 c 0.65,4.2899 5.8199,5.71 9.38,7.01 -1.91,-2.37 -4.92,-3.9701 -5.51,-7.1801 -1.31,0.02 -2.61,0.03 -3.87,0.1701 m 22.69,0.81 c 4.4301,1.42 9.3401,2.51 13.83,0.63 -4.3502,-1.73 -9.4301,-2.71 -13.83,-0.63 m -456.82,3.37 c 4,0.17 7.62,-1.7999 11.55,-2.24 l -1.01,2 c 7.59,-1.8099 13.87,4.0701 21.28,4.23 -1,-1.5099 -1.9301,-3.0299 -2.88,-4.5299 -2.7401,1.45 -5.56,0.62 -8.1,-0.74 2.01,-0.62 4.14,-1.12 5.78,-2.53 -3.88,-0.1901 -7.73,0.4399 -11.6,0.23 -5.17,-0.3102 -10.96,-0.09 -15.02,3.5799 m 320.74,-4.13 c 0.02,0.9501 0.04,2.8501 0.06,3.8 1.26,-0.73 2.5701,-1.37 3.8401,-2.09 -1.31,-0.5999 -2.61,-1.17 -3.9,-1.71 m 76.97,2.25 c 3.72,0.4401 7.38,-0.5399 11.08,-0.8199 -0.2401,-0.4301 -0.7301,-1.28 -0.9801,-1.71 -3.62,-0.5801 -7.7699,-0.9101 -10.1,2.5299 m -353.19,2.5 c 1.23,-0.63 2.48,-1.25 3.72,-1.86 0.34,1.29 0.66,2.61 0.99,3.9601 6.96,-1.37 13.89,0.6499 20.82,1.12 4.0801,-0.5701 9.1101,-1.4801 11.78,2.6499 -2.21,-0.49 -4.46,-0.9199 -6.2,0.76 3.14,0.63 6.37,0.9801 9.5699,0.54 -0.77,-0.45 -2.3199,-1.34 -3.09,-1.79 0.62,-1.1899 1.27,-2.36 1.9399,-3.5 0.4901,0.52 1.4601,1.55 1.9501,2.0701 1.09,-0.79 2.1699,-1.6 3.26,-2.38 -12.92,0.64 -25.71,-4.39 -38.54,-1.76 -0.4299,-1.27 -0.85,-2.52 -1.28,-3.74 -2.1298,0.4599 -5.1698,1.1299 -4.9198,3.9299 m 364.2,-2.8899 c 1.21,1.0299 1.87,2.4299 2,4.1899 2.78,0.16 5.58,-0.11 7.7,-2.13 4.9801,1.5 10.92,3.23 15.4,-0.51 -7.5599,-3.58 -16.07,-1.21 -23.97,-2.89 -0.4,0.42 -0.77,0.87 -1.13,1.3401 m -61.03,1.62 c 0.5901,1.21 1.1801,2.46 1.78,3.72 2.38,-0.05 4.8101,-0.02 7.16,-0.55 -1.8201,-0.4399 -3.63,-0.8199 -5.4301,-1.14 0.67,-1.2 1.41,-2.35 2.17,-3.47 -1.9799,0.1399 -3.95,0.4099 -5.6799,1.44 m 96.69,-0.9301 c 0.24,2.15 1.99,3.42 4.0699,3.74 -1.1299,-1.4201 -1.6199,-5.37 -4.0699,-3.74 m 8.96,0.74 c -1.27,2.23 2.99,2.7 3.29,0.58 -0.15,-1.53 -2.48,-1.48 -3.29,-0.58 m -61.41,3.39 c 1.5801,0.14 3.1901,0.24 4.8201,0.3199 -0.36,-0.3899 -1.0701,-1.1699 -1.4301,-1.5499 -1.1599,0.34 -2.29,0.76 -3.39,1.23 m -444.47,-0.78 c 0.03,0.62 0.1,1.86 0.14,2.47 0.91,-0.08 1.83,-0.1399 2.75,-0.1799 -0.12,-1.8401 -1.23,-2.4401 -2.89,-2.2901 m 46.35,2.16 c 6.87,-0.38 14.3,3.6899 20.67,-0.26 -6.88,0.65 -14.03,-2.23 -20.67,0.26 m -51.72,2.24 c 1.42,0.28 2.86,0.46 4.33,0.54 -1.07,-1.78 -3.18,-3.64 -4.33,-0.54 m 73.61,-1.84 c 2.33,4.62 8.42,4.01 12.58,2.6 -1.84,-0.34 -3.11,-1.6801 -4.43,-2.8101 -0.12,0.55 -0.37,1.65 -0.49,2.2001 -2.25,-1.7199 -4.79,-3.42 -7.66,-1.99 m 88.65,-0.19 c -1.0699,2.13 3.26,2.3401 3.55,0.47 -0.3,-1.57 -2.69,-1.41 -3.55,-0.47 m 373.14,1.26 c 2.86,1.1 5.95,0.89 8.88,0.17 -2.9,-0.68 -6.12,-1.86 -8.88,-0.17 m -351.81,0.53 c 3.29,0.47 6.41,1.92 9.8,1.77 -2.03,-3.27 -6.61,-2.53 -9.8,-1.77 m -78.55,0.36 c -1.28,1.61 1.63,2.72 2.48,1.27 1.23,-1.64 -1.67,-2.78 -2.48,-1.27 m 55.3,2.09 c 1.13,1.9501 3.62,1.9 5.4,3 -10.45,0.05 -20.91,-0.06 -31.36,0.3301 1.26,1.22 2.5601,2.51 3.91,3.71 1.45,-0.98 2.7,-2.65 4.62,-2.63 3.28,0.3 6.29,1.75 9.36,2.86 -9.13,2.03 -18.57,2.39 -27.82,0.97 0.1,-0.3199 0.2799,-0.9399 0.37,-1.26 -1.3401,0.3 -2.6801,0.6101 -4.01,0.8701 -0.2201,-0.66 -0.65,-1.9701 -0.87,-2.63 -2.91,0.1399 -5.91,0.5499 -8.26,2.4299 1.99,0.08 3.99,0.04 6,-0.13 -1.9,3.98 -6.98,2.6 -10.51,3.37 -0.02,0.2101 -0.07,0.64 -0.1,0.85 1.73,-0.1499 3.46,-0.2899 5.23,-0.36 -0.07,1.28 -0.14,2.5901 -0.2201,3.92 0.9301,-0.87 1.8201,-1.78 2.89,-2.4401 1.67,-0.99 3.3301,0.4801 4.79,1.1901 5.74,-3.16 13.03,-4.63 18.83,-0.76 0.05,3.3199 -3.24,4.58 -5.08,6.8 4.47,-0.4401 8.92,-1.15 13.4,-1.6001 -1.3101,-0.7 -3.41,-0.9099 -2.9401,-2.86 3.37,-4.6899 9.88,-2.75 14.77,-3.65 2.72,2.67 6.4301,3.89 10.19,4.1201 11.15,0.7899 22.05,-2.3301 33.13,-3 -2.9401,-0.2401 -5.9801,-0.25 -8.54,-1.88 -1.02,0.6 -2.0601,1.1899 -3.1,1.7599 0.6,-1.7699 1.4299,-3.4299 2.34,-5.0399 5.1801,0.09 10.48,2.98 15.5,0.49 -11.46,-5.28 -23.55,2.79 -35.32,0.38 -1.05,-0.16 -1.78,-1.02 -2.53,-1.61 1.9,-0.92 6.61,0.9099 5.8199,-2.4301 -3.6,-0.5599 -7.4,-0.72 -10.48,-2.9 4.67,-1.61 10.75,0.63 14.32,-3.61 -6.6701,-0.2801 -12.98,3.44 -19.73,1.74 m 38.53,-2.13 c 8.3101,1.63 16.79,3.17 25.3,2.8 -7.54,-4.35 -16.95,-4.05 -25.3,-2.8 m 346.47,1.7301 c 2.25,3.25 5.7101,-0.1901 7.64,-1.9901 -2.62,0.29 -5.54,0.1199 -7.64,1.9901 m -560.66,1.3299 c 1.6,0.63 3.02,-2.02 1.18,-2.6 -1.51,-0.57 -3.18,2.1 -1.18,2.6 m 130.63,0.6 c 2.39,0.33 5,1.01 7.2899,-0.21 -2.4199,-0.4699 -5.0298,-1.08 -7.2899,0.21 m 62.63,1.18 c 3.74,2.45 8.5299,2.26 12.7,1.1 -3.4,-3.1 -8.6,-1.5899 -12.7,-1.1 m 22.33,0.2699 c 2.92,1.1201 6.34,1.9301 9.15,0.05 -2.94,-1.05 -6.37,-1.9599 -9.15,-0.05 m 307.59,0.4101 c -1.62,0.48 -0.6899,3.09 0.89,2.39 1.61,-0.52 0.63,-3.09 -0.89,-2.39 m -434.86,2.3399 c 0.01,0.5801 0.05,1.76 0.07,2.3401 0.57,0 1.71,-0.01 2.28,-0.01 0.01,-0.5601 0.01,-1.6801 0.02,-2.24 -0.59,-0.02 -1.78,-0.07 -2.37,-0.09 m 6.89,1.1901 c 3.58,1.3 8.8,2.8 11.67,-0.52 -3.93,0.56 -8.11,-1.9201 -11.67,0.52 m -73.28,0.09 c 0.05,0.9601 0.14,2.88 0.19,3.8401 1.71,-1.28 3.4301,-2.53 5.2,-3.7101 -1.81,-0.06 -3.6,-0.11 -5.39,-0.13 m 88.35,-0.84 c 0.61,2.24 1.3,4.9 4.31,4.4 -0.98,-1.89 -2.54,-3.31 -4.31,-4.4 m 114.46,7.03 c 1.49,1.6599 3.46,1.1 4.98,-0.2001 -1.68,-0.07 -3.34,-0.01 -4.98,0.2001 z" />
	<path
   id="path835"
   d="m 1032.3,1910.5 c 4.7999,-1.45 9.87,-0.74 14.75,-0.1599 -1.36,0.5699 -2.6801,1.2 -4,1.8199 0.99,0.7 2.03,1.49 3.04,2.28 -5.7101,0.1899 -11.41,0.1799 -17.11,0.01 0.3801,-1.82 1.37,-3.53 3.3201,-3.95 z" />
</g>
</svg>
