<?xml version="1.0" encoding="UTF-8" standalone="no"?>
<svg
   xmlns:dc="http://purl.org/dc/elements/1.1/"
   xmlns:cc="http://creativecommons.org/ns#"
   xmlns:rdf="http://www.w3.org/1999/02/22-rdf-syntax-ns#"
   xmlns:svg="http://www.w3.org/2000/svg"
   xmlns="http://www.w3.org/2000/svg"
   xmlns:xlink="http://www.w3.org/1999/xlink"
   xmlns:sodipodi="http://sodipodi.sourceforge.net/DTD/sodipodi-0.dtd"
   xmlns:inkscape="http://www.inkscape.org/namespaces/inkscape"
   inkscape:version="1.0 (4035a4f, 2020-05-01)"
   sodipodi:docname="books-2022463.svg"
   id="svg995"
   viewBox="0 0 106.29921 106.29921"
   version="1.1"
   height="30mm"
   width="30mm">
  <metadata
     id="metadata999">
    <rdf:RDF>
      <cc:Work
         rdf:about="">
        <dc:format>image/svg+xml</dc:format>
        <dc:type
           rdf:resource="http://purl.org/dc/dcmitype/StillImage" />
      </cc:Work>
    </rdf:RDF>
  </metadata>
  <sodipodi:namedview
     inkscape:current-layer="layer1"
     inkscape:window-maximized="0"
     inkscape:window-y="59"
     inkscape:window-x="75"
     inkscape:cy="48.715967"
     inkscape:cx="76.53194"
     inkscape:zoom="3.236634"
     showgrid="false"
     id="namedview997"
     inkscape:window-height="682"
     inkscape:window-width="1280"
     inkscape:pageshadow="2"
     inkscape:pageopacity="0"
     guidetolerance="10"
     gridtolerance="10"
     objecttolerance="10"
     borderopacity="1"
     bordercolor="#666666"
     pagecolor="#ffffff" />
  <defs
     id="defs941">
    <pattern
       xlink:href="#a"
       patternTransform="matrix(0.43638,0,0,0.42754,-1.70209,-1.9259)"
       id="k" />
    <pattern
       xlink:href="#a"
       patternTransform="matrix(0.39219,0,0,0.43638,-1.70209,-1.9259)"
       id="j" />
    <pattern
       xlink:href="#a"
       patternTransform="matrix(0.35683,0,0,0.40103,-1.70209,-1.9259)"
       id="i" />
    <pattern
       xlink:href="#a"
       patternTransform="matrix(0.44522,0,0,0.39219,9.5479099,-1.9259)"
       id="h" />
    <pattern
       xlink:href="#a"
       patternTransform="matrix(0.4629,0,0,0.37451,-1.70209,-1.9259)"
       id="g" />
    <pattern
       patternUnits="userSpaceOnUse"
       patternTransform="translate(0) scale(10)"
       height="10"
       width="10"
       id="a">
      <circle
         id="circle852"
         r=".45"
         cy=".81"
         cx="2.567" />
      <circle
         id="circle854"
         r=".45"
         cy="2.33"
         cx="3.048" />
      <circle
         id="circle856"
         r=".45"
         cy="2.415"
         cx="4.418" />
      <circle
         id="circle858"
         r=".45"
         cy="3.029"
         cx="1.844" />
      <circle
         id="circle860"
         r=".45"
         cy="1.363"
         cx="6.08" />
      <circle
         id="circle862"
         r=".45"
         cy="4.413"
         cx="5.819" />
      <circle
         id="circle864"
         r=".45"
         cy="4.048"
         cx="4.305" />
      <circle
         id="circle866"
         r=".45"
         cy="3.045"
         cx="5.541" />
      <circle
         id="circle868"
         r=".45"
         cy="5.527"
         cx="4.785" />
      <circle
         id="circle870"
         r=".45"
         cy="5.184"
         cx="2.667" />
      <circle
         id="circle872"
         r=".45"
         cy="1.448"
         cx="7.965" />
      <circle
         id="circle874"
         r=".45"
         cy="5.049"
         cx="7.047" />
      <circle
         id="circle876"
         r=".45"
         cy=".895"
         cx="4.34" />
      <circle
         id="circle878"
         r=".45"
         cy=".34"
         cx="7.125" />
      <circle
         id="circle880"
         r=".45"
         cy="1.049"
         cx="9.553" />
      <circle
         id="circle882"
         r=".45"
         cy="2.689"
         cx="7.006" />
      <circle
         id="circle884"
         r=".45"
         cy="2.689"
         cx="8.909" />
      <circle
         id="circle886"
         r=".45"
         cy="4.407"
         cx="9.315" />
      <circle
         id="circle888"
         r=".45"
         cy="3.87"
         cx="7.82" />
      <circle
         id="circle890"
         r=".45"
         cy="5.948"
         cx="8.27" />
      <circle
         id="circle892"
         r=".45"
         cy="7.428"
         cx="7.973" />
      <circle
         id="circle894"
         r=".45"
         cy="8.072"
         cx="9.342" />
      <circle
         id="circle896"
         r=".45"
         cy="9.315"
         cx="8.206" />
      <circle
         id="circle898"
         r=".45"
         cy="9.475"
         cx="9.682" />
      <circle
         id="circle900"
         r=".45"
         cy="6.186"
         cx="9.688" />
      <circle
         id="circle902"
         r=".45"
         cy="6.296"
         cx="3.379" />
      <circle
         id="circle904"
         r=".45"
         cy="8.204"
         cx="2.871" />
      <circle
         id="circle906"
         r=".45"
         cy="8.719"
         cx="4.59" />
      <circle
         id="circle908"
         r=".45"
         cy="9.671"
         cx="3.181" />
      <circle
         id="circle910"
         r=".45"
         cy="7.315"
         cx="5.734" />
      <circle
         id="circle912"
         r=".45"
         cy="6.513"
         cx="6.707" />
      <circle
         id="circle914"
         r=".45"
         cy="9.67"
         cx="5.73" />
      <circle
         id="circle916"
         r=".45"
         cy="8.373"
         cx="6.535" />
      <circle
         id="circle918"
         r=".45"
         cy="7.154"
         cx="4.37" />
      <circle
         id="circle920"
         r=".45"
         cy="7.25"
         cx=".622" />
      <circle
         id="circle922"
         r=".45"
         cy="5.679"
         cx=".831" />
      <circle
         id="circle924"
         r=".45"
         cy="8.519"
         cx="1.257" />
      <circle
         id="circle926"
         r=".45"
         cy="6.877"
         cx="1.989" />
      <circle
         id="circle928"
         r=".45"
         cy="3.181"
         cx=".374" />
      <circle
         id="circle930"
         r=".45"
         cy="1.664"
         cx="1.166" />
      <circle
         id="circle932"
         r=".45"
         cy=".093"
         cx="1.151" />
      <circle
         id="circle934"
         r=".45"
         cy="10.093"
         cx="1.151" />
      <circle
         id="circle936"
         r=".45"
         cy="4.451"
         cx="1.302" />
      <circle
         id="circle938"
         r=".45"
         cy="3.763"
         cx="3.047" />
    </pattern>
  </defs>
  <path
     id="path943"
     stroke-width="0.29055"
     stroke="#ff6600"
     fill="#ffffff"
     d="m 5.81091,60.2671 c -2.73,4.3788 -1.9396,7.4375 -0.97227,10.43 l 44.283,30.406 41.101,-17.324 -3.182,-2.1213 -0.70711,-3.5355 c 1.1314,-1.0925 2.1975,-2.1719 2.9168,-3.182 0.19776,-1.2037 1.1075,-2.7634 -0.44194,-3.0936 l -46.934,-22.981 -32.085,10.165 -1.5026,1.4142 z"
     style="fill-rule:evenodd" />
  <path
     id="path947"
     style="text-indent:0;text-decoration:none;text-decoration-line:none;text-decoration-style:solid;text-decoration-color:#000000;text-transform:none;white-space:normal;isolation:auto;mix-blend-mode:normal;fill-rule:evenodd"
     solid-color="#000000"
     shape-rendering="auto"
     image-rendering="auto"
     color-rendering="auto"
     color="#000000"
     d="m 42.11591,47.8831 -33.457,10.297 c 0,0 -0.42222,1.0774 -0.90234,1.2871 -0.70042,0.30601 -2.2715,-0.31055 -2.2715,-0.31055 -1.3952,0.64588 -2.4229,3.4556 -2.582,6.0469 -0.15912,2.5913 0.36948,5.1443 1.2227,6.0996 l 44.248,30.814 c 0.66242,0.37448 0.9988,0.25991 1.3359,0.14648 l 41.467,-17.113 c 0.82061,-0.37092 0.86192,-1.2502 0.16602,-2.1973 l -4.0664,-2.8223 c 0.32776,1.4767 0.56976,2.8704 0.39844,3.6816 -8.0988,3.2448 -26.941,10.879 -37.668,15.457 -0.83446,-1.1623 -0.92786,-2.9451 -1.0918,-4.5176 -0.18248,-1.7504 -0.0091,-4.0961 0.67969,-5.1348 0.68882,-1.0387 1.5227,-0.0117 2.0664,-0.26562 0.43849,-0.20479 1.1134,-0.67161 1.4785,-1.2168 8.3321,-2.7891 26.692,-10.205 37.889,-14.562 0.80476,-0.82668 0.36365,-1.3419 -0.13867,-1.8418 z m -0.16406,2.082 45.609,22.76 -35.646,13.613 c 0,0 -0.48828,0.81641 -0.92578,0.97266 -0.37877,0.13527 -0.95846,-0.3899 -1.373,-0.5332 -0.51012,-0.17633 -1.3599,0.14642 -1.7246,0.71484 -0.86812,1.3532 -1.3931,3.0081 -1.6699,4.5859 -0.33319,1.8988 -0.06808,3.7438 0.43555,5.418 l -39.834,-27.408 c -0.90928,-0.61828 -1.8027,-2.4593 -1.6836,-4.3984 0.12073,-1.9661 0.60257,-3.9927 1.8926,-4.6152 0,0 1.4561,0.51506 1.9082,0.37891 0.50889,-0.15326 1.125,-1.2441 1.125,-1.2441 z m -32.101,12.572 c -0.77273,0.32356 12.161,7.8854 18.955,11.949 6.5417,3.913 20.551,12.169 20.963,11.516 0.41208,-0.65349 -13.664,-8.4307 -20.18,-12.342 -6.5945,-3.9586 -18.965,-11.446 -19.738,-11.123 z" />
  <path
     id="path949"
     style="text-indent:0;text-decoration:none;text-decoration-line:none;text-decoration-style:solid;text-decoration-color:#000000;text-transform:none;white-space:normal;isolation:auto;mix-blend-mode:normal;fill-rule:evenodd"
     solid-color="#000000"
     shape-rendering="auto"
     image-rendering="auto"
     color-rendering="auto"
     color="#000000"
     d="m 90.06891,73.9431 -36.898,14.16 c -0.28282,0.23543 -1.0856,1.1255 -1.6035,1.2344 -0.60914,0.12804 -1.2524,-0.67843 -2.0117,0.23828 -0.63766,1.8202 -0.71374,3.0698 -0.50391,4.7676 0.27512,2.226 0.40889,2.8611 1.1426,4.834 l 37.422,-15.18 c 0.51558,-1.6188 -0.24434,-3.2098 -0.48828,-4.6504 -0.08122,-0.53612 -0.06839,-1.0095 0.18164,-1.6074 0.25004,-0.59793 1.1207,-0.9842 2.041,-1.9961 0.54595,-0.60026 0.66655,-1.2005 0.71875,-1.8008 z m -2.1348,1.9082 c 0.12971,0.70884 -1.1541,0.60808 -1.7793,1.3945 -0.13121,0.16504 -0.23153,0.3541 -0.31445,0.55078 -0.4768,0.16218 -2.3072,0.78244 -3.2812,1.1426 -4.0542,1.4989 -12.144,4.5672 -12.043,4.8105 0.101,0.2433 8.0442,-3.1067 12.088,-4.4258 1.037,-0.33826 2.6329,-0.83405 3.0703,-0.9707 -0.12399,0.53571 -0.14191,1.045 -0.10938,1.2598 0.19865,1.3112 0.38954,2.2254 0.36914,3.1445 l -34.941,14.523 c -0.50919,-1.2321 -0.86374,-2.399 -0.9375,-3.6562 0.39389,-0.14773 9.344,-3.5059 14.045,-5.4961 4.1303,-1.7486 12.739,-4.7896 12.572,-5.0371 -0.167,-0.2475 -8.7134,2.7661 -12.832,4.6387 -4.4195,2.0094 -12.726,5.0629 -13.803,5.3613 0.0066,-0.78935 0.12394,-1.6194 0.40039,-2.5332 0.25879,0.03288 1.2443,0.08278 1.5078,0.04102 0.58833,-0.09323 1.0032,-0.6056 1.5918,-1.1875 1.3125,-0.5 34.396,-13.561 34.396,-13.561 z m -17.363,11.66 c -4.3684,1.7608 -15.816,6.5459 -15.836,6.7676 -0.02042,0.22172 11.681,-4.5655 16.006,-6.3262 3.9774,-1.6192 13.974,-5.3372 13.229,-5.3745 -0.74477,-0.03734 -9.6998,3.4421 -13.399,4.9331 z" />
  <path
     id="path953"
     stroke-width="0.29055"
     stroke="#ff0000"
     fill="#ffffff"
     d="m 7.40191,42.9431 3.2704,-0.88388 34.825,-0.26516 38.802,23.688 -1.591,0.88388 -1.591,4.6846 c 0.45667,1.2669 0.41905,3.5224 1.5026,3.5355 l -48.437,11.932 -28.991,-34.118 c 0.42907,-3.255 -0.75811,-7.0488 2.2097,-9.4576 z"
     style="fill-rule:evenodd" />
  <path
     id="path957"
     style="text-indent:0;text-decoration:none;text-decoration-line:none;text-decoration-style:solid;text-decoration-color:#000000;text-transform:none;white-space:normal;isolation:auto;mix-blend-mode:normal;fill-rule:evenodd"
     solid-color="#000000"
     shape-rendering="auto"
     image-rendering="auto"
     color-rendering="auto"
     color="#000000"
     d="m 45.78391,40.8631 -35.639,0.3457 c -0.2316,0.32999 -0.78472,0.81626 -1.0547,0.87695 -0.28391,0.06383 -1.0536,-0.56073 -1.5254,-0.37891 -2.1398,0.82459 -2.3591,3.336 -2.7266,4.7285 -0.66073,2.5036 -0.071674,6.3102 0.68164,7.4414 1.125,1.3125 26.792,31.698 27.771,32.664 1.1314,1.1159 2.1679,1.2682 4.0547,0.77539 8.4253,-2.2005 32.944,-7.542 48.434,-11.758 0.91348,-0.47786 0.53794,-1.2682 -0.13086,-1.9023 l -3.7148,-2.2559 c 0.01724,1.0157 0.16176,1.9414 0.46094,2.8945 -14.394,3.3198 -31.538,7.0544 -46.137,10.34 -1.2699,-0.44679 -2.5564,-2.4397 -2.7031,-3.4785 -0.40598,-2.8742 0.13524,-4.2374 0.6875,-5.0371 0.54998,-0.79641 0.97304,-1.2784 1.4766,-1.5918 0.55643,0.05724 1.3794,0.29469 1.8691,0.11133 0.51899,-0.19431 0.88224,-0.57331 1.2637,-0.92773 l 46.328,-7.2305 c 0.7198,-0.54389 0.25689,-1.3057 -0.10156,-1.6309 z m -0.41797,2.082 36.238,22.145 -43.861,6.7441 c -0.48295,0.24662 -0.65235,0.80824 -0.86719,0.88867 -0.21483,0.08043 -0.9057,-0.08245 -1.4883,-0.13867 -1.2098,0.35582 -2.7767,2.5498 -3.1582,4.1074 -0.87254,3.5624 -0.20128,5.3987 1.3828,7.9336 l -26.359,-31.67 C 6.61647,51.98602 6.25573,50.3611 6.67883,47.7189 c 0.20991,-1.3108 0.6539,-2.5788 1.3281,-3.6582 0.42636,0.03262 0.80617,0.33484 1.5176,0.10547 0.91606,-0.29535 0.9001,-0.99274 1.1191,-1.0762 z m -35.207,2.3542 c -0.4918,0.44787 8.2364,8.8095 12.541,13.29 4.3556,4.5341 12.492,13.936 13.139,13.438 0.6466,-0.49882 -7.9944,-9.6477 -12.332,-14.16 -4.1916,-4.3606 -12.856,-13.016 -13.347,-12.568 z" />
  <path
     id="path959"
     style="text-indent:0;text-decoration:none;text-decoration-line:none;text-decoration-style:solid;text-decoration-color:#000000;text-transform:none;white-space:normal;isolation:auto;mix-blend-mode:normal;fill-rule:evenodd"
     solid-color="#000000"
     shape-rendering="auto"
     image-rendering="auto"
     color-rendering="auto"
     color="#000000"
     d="m 83.91891,66.6781 c -15.169,2.179 -37.081,5.4866 -45.057,6.9883 -0.31979,0.4392 -0.85766,0.8202 -1.5391,0.97852 -0.2578,0.05989 -0.8873,-0.06006 -1.5977,-0.12305 -1.6791,1.0933 -2.3958,3.3425 -2.1699,5.4199 0.28921,2.6594 1.3744,3.6836 2.8057,4.707 15.36,-3.4074 30.719,-6.2108 46.079,-10.35 -1.1103,-3.4523 -0.06768,-5.4947 1.4785,-7.6211 z m -3.2578,1.9043 c -0.58069,1.127 -0.67621,1.8733 -0.51172,3.1387 -0.32558,0.06119 -3.9699,0.74379 -5.9199,1.125 -2.3708,0.46347 -6.981,1.1332 -6.9883,1.4766 -0.0073,0.34338 4.7965,-0.44269 7.1504,-0.92969 1.7377,-0.35952 4.9757,-0.74919 5.8047,-1.373 0.04398,0.29462 0.08441,0.57533 0.15039,0.9375 l -43.518,10.242 c -0.56058,-0.33969 -1.0429,-1.0054 -1.3906,-1.7109 0.74644,-0.1452 7.7394,-1.5031 11.43,-2.0781 4.2487,-0.66209 12.711,-2.4872 12.594,-2.791 -0.117,-0.3038 -8.0759,1.7401 -12.662,2.2188 -3.8154,0.39823 -10.95,1.8838 -11.629,2.0254 -0.1331,-0.37406 -0.23126,-0.73796 -0.25195,-1.0469 -0.10751,-1.6047 -0.14845,-2.6888 1.2578,-4.1074 0.30362,0.24703 0.9745,0.4085 1.5117,0.29297 0.78102,-0.16797 1.1393,-0.3692 1.623,-0.9043 z m -5.543,2.5137 c -0.76641,-0.13864 -11.032,1.8048 -16.334,2.6445 -7.2898,1.1545 -21.942,3.0722 -21.773,3.498 0.16817,0.42582 14.789,-1.8587 22.139,-3.0742 5.5808,-0.92291 16.735,-2.9297 15.969,-3.0684 z" />
  <path
     id="path963"
     stroke-width="0.29055"
     stroke="#ff6600"
     fill="#ffffff"
     d="m 44.34791,27.7411 -38.007,5.3917 c -1.2853,3.3162 -3.3196,6.2205 -0.088388,12.021 l 39.775,30.229 44.901,-13.347 -3.3588,-1.8562 c 0.08092,-3.4835 0.96134,-6.5305 2.8284,-10.253 z"
     style="fill-rule:evenodd" />
  <path
     id="path967"
     style="text-indent:0;text-decoration:none;text-decoration-line:none;text-decoration-style:solid;text-decoration-color:#000000;text-transform:none;white-space:normal;isolation:auto;mix-blend-mode:normal;fill-rule:evenodd"
     solid-color="#000000"
     shape-rendering="auto"
     image-rendering="auto"
     color-rendering="auto"
     color="#000000"
     d="m 44.38191,27.1361 -37.715,5.0078 c -1.937,0.55403 -3.0426,4.7878 -2.959,7.3477 0.065395,2.0023 1.1686,5.1723 2.4219,6.5586 l 40.16,30.543 46.559,-13.525 c 0.58576,-0.7623 0.29875,-1.1755 0.07813,-1.6152 l -4.3828,-2.6602 c 0,0 0.10352,1.9121 -0.02148,3.1621 -11.97,3.1417 -30.898,8.3305 -42.09,11.482 -0.68932,-0.69239 -1.6288,-3.3659 -1.6816,-5.0801 -0.09013,-2.9259 0.35446,-4.7783 1.4902,-5.8047 l 46.787,-10.535 c 0.54298,-0.35184 0.60691,-1.2185 -0.18555,-1.9844 z m -0.12695,1.6133 44.457,21.727 -44.49,9.8984 c -1.5685,1.9145 -1.962,4.0135 -1.9258,6.1152 0.03025,1.7563 0.50778,4.3447 1.3477,5.7168 l -36.232,-27.943 c -0.89862,-0.80993 -1.5521,-3.3771 -1.5547,-4.5234 -0.00405,-1.7676 0.5997,-3.5081 1.6328,-5.7266 z m -34.779,6.5423 c -0.92648,0.40486 14.931,11.706 14.931,11.706 0,0 18.415,13.411 18.639,12.787 0.224,-0.624 -17.334,-14.025 -17.334,-14.025 0,0 -15.31,-10.872 -16.236,-10.467 z" />
  <path
     id="path969"
     style="text-indent:0;text-decoration:none;text-decoration-line:none;text-decoration-style:solid;text-decoration-color:#000000;text-transform:none;white-space:normal;isolation:auto;mix-blend-mode:normal;fill-rule:evenodd"
     solid-color="#000000"
     shape-rendering="auto"
     image-rendering="auto"
     color-rendering="auto"
     color="#000000"
     d="m 90.89391,52.4821 -2.0176,0.45312 -42.121,9.3555 c -0.77248,0.83367 -2.0673,2.4882 -1.6641,6.0859 0.20658,1.843 0.67467,3.4994 1.8027,4.9727 l 41.635,-11.375 c 0.17088,-1.069 0.01681,-3.2126 0.15039,-4.7598 0.13359,-1.5472 0.63843,-2.1062 1.1504,-2.959 z m -3.2832,2.2266 c -0.21501,0.76866 -0.5359,1.4849 -0.68555,2.2852 -0.50568,-0.01762 -1.2533,-0.03268 -1.6914,0.05859 -2.575,0.53649 -7.7104,1.9635 -7.5605,2.2598 0.14988,0.29629 4.8037,-1.3944 7.748,-1.5781 0.42595,-0.02657 0.98372,0.003 1.4082,0.03125 -0.04004,0.4814 -0.06099,0.87426 -0.07813,1.2598 -4.5746,1.1523 -9.6638,2.3894 -14.225,3.5117 -5.8726,1.4451 -14.612,3.3424 -14.5,3.8301 0.11239,0.48764 8.8441,-1.8913 14.674,-3.3262 4.5578,-1.1218 9.4585,-2.1866 14.033,-3.3301 0.0053,0.31093 0.02348,0.59269 0.07422,0.81641 l -38.838,10.557 c -1.2221,-0.49077 -1.2302,-1.8001 -1.3633,-2.8047 -0.2012,-1.5186 -0.20359,-3.2696 0.80273,-4.082 z m -22.281,6.793 c -6.4068,1.5816 -18.136,4.6853 -18.031,4.9961 0.105,0.3108 11.793,-2.8482 18.123,-4.5664 3.3472,-0.90863 10.211,-2.5921 9.5992,-2.7546 -0.61139,-0.16245 -6.5575,1.5514 -9.691,2.3249 z" />
  <path
     id="path973"
     stroke-width="0.29055"
     stroke="#ff6600"
     fill="#ffffff"
     d="m 50.26991,16.6041 -36.681,10.43 c 0,0 -0.44194,1.4142 -0.97227,1.3258 -0.53033,-0.08839 -2.74,-0.08839 -2.74,-0.08839 -1.9665,2.5078 -2.0103,4.8874 -0.44194,7.1595 l 52.326,25.633 39.068,-14.142 -1.7678,-1.5026 1.8562,-2.74 0.0884,-4.331 z"
     style="fill-rule:evenodd" />
  <path
     id="path977"
     style="text-indent:0;text-decoration:none;text-decoration-line:none;text-decoration-style:solid;text-decoration-color:#000000;text-transform:none;white-space:normal;isolation:auto;mix-blend-mode:normal;fill-rule:evenodd"
     solid-color="#000000"
     shape-rendering="auto"
     image-rendering="auto"
     color-rendering="auto"
     color="#000000"
     d="m 50.29991,15.9591 c -12.332,3.4319 -26.273,7.1208 -37.496,10.08 -0.2188,0.13889 -0.29897,0.6787 -0.77734,1.168 -0.20847,0.21322 -1.0825,-0.23648 -1.3926,-0.20117 -0.48568,0.05531 -1.0458,0.46326 -1.4375,0.80859 -0.53424,0.47095 -0.69443,0.93276 -0.93164,1.5879 -0.24496,0.67654 -0.23828,1.4295 -0.29297,2.2734 -0.10938,1.6879 0.20375,3.6655 0.91016,4.5938 17.318,8.5665 35.859,18.102 52.436,26.17 0.3485,0.26982 1.1276,0.31141 1.5703,0.23633 0.44273,-0.07508 0.82047,-0.22313 0.95898,-0.51953 0.08798,-0.18827 0.35116,-0.54824 0.63867,-0.73633 0.29253,-0.19137 0.56988,0.29464 1.2285,0.2832 l 36.213,-13.855 c 0.40371,-0.15447 0.66901,-0.74011 0.002,-1.2773 l -2.3086,-1.4844 -1.1562,1.7324 c -10.755,3.6959 -22.901,8.1527 -34.273,12.318 -0.86826,-0.18559 -1.8729,-2.0148 -1.9258,-2.877 -0.05894,-0.96169 0.42795,-2.0674 0.72656,-2.543 12.623,-4.7015 26.366,-9.3733 40.027,-14.217 0.64138,-0.36157 0.45604,-0.93097 -0.0996,-1.5918 l -52.619,-21.949 z m -0.06055,1.5977 49.111,21.418 -36.631,12.627 c -0.8395,0.31675 -1.3591,0.99502 -1.8008,1.6406 -0.57452,0.83973 -0.96887,2.092 -0.87695,3.5918 0.085,1.387 0.42999,2.3214 0.89844,3.0723 l -50.51,-25.021 C 9.76357,33.90511 9.79081,33.0121 9.85583,31.8367 c 0.05115,-0.92462 0.304,-1.7349 0.8457,-2.4199 0.06394,-0.08086 0.78477,-0.63041 1.5352,-0.20508 0.31041,0.17595 0.61212,0.18191 1.1406,-0.19727 0.65079,-0.46691 0.42377,-0.89446 0.87305,-1.2559 l 35.988,-10.201 z m -36.311,11.398 c -0.12624,-0.02363 -0.20125,-0.01833 -0.22266,0.01563 -0.34243,0.5432 14.42,7.5634 21.736,11.133 8.0861,3.9447 24.197,11.813 24.484,11.359 0.28699,-0.4539 -16.036,-8.3719 -24.172,-12.32 -6.8271,-3.3132 -19.933,-9.833 -21.826,-10.188 z" />
  <path
     id="path979"
     style="text-indent:0;text-decoration:none;text-decoration-line:none;text-decoration-style:solid;text-decoration-color:#000000;text-transform:none;white-space:normal;isolation:auto;mix-blend-mode:normal;fill-rule:evenodd"
     solid-color="#000000"
     shape-rendering="auto"
     image-rendering="auto"
     color-rendering="auto"
     color="#000000"
     d="m 101.75791,39.9691 c -13.361,4.3705 -31.857,11.296 -38.65,13.633 -0.76858,0.84464 -0.71224,1.9197 -0.45703,2.9102 0.25521,0.9905 1.0702,2.3687 1.6621,2.6074 l 34.459,-12.35 c 0.26244,-0.36298 1.366,-1.3848 2.1035,-2.5195 0.36877,-0.56734 0.6543,-1.5007 0.79883,-2.1191 0.14453,-0.61847 0.38241,-1.7155 0.084,-2.1621 z m -1.2852,1.2715 c 0.25532,0.81069 -0.3075,1.4457 -0.68945,2.0703 -0.60792,0.99418 -1.4168,1.989 -1.9512,2.7012 l -33.066,11.857 c -0.53268,-0.27938 -0.96061,-0.88601 -1.1465,-1.6074 -0.19082,-0.7406 -0.12739,-1.5325 0.08594,-1.8711 z m -17.527,7.0508 c -5.7447,2.0967 -17.307,5.8307 -17.141,6.4512 0.16648,0.62048 11.653,-3.8999 17.451,-6.0234 5.4543,-1.9978 15.827,-5.7952 15.621,-6.0497 -0.20592,-0.25456 -10.767,3.7371 -15.931,5.622 z m 14.895,-3.4023 c -0.1253,-0.15461 -4.2908,1.2975 -6.3398,2.0781 -1.9287,0.73478 -26.881,9.6635 -26.766,9.9707 0.11538,0.30722 25.142,-8.8006 27.094,-9.5352 2.0324,-0.76504 6.137,-2.3591 6.0117,-2.5137 z" />
  <path
     id="path983"
     stroke-width="0.29055"
     stroke="#ff6600"
     fill="#ffffff"
     d="m 53.27591,4.4945 -41.012,8.1317 c -2.9989,2.8982 -4.0667,6.532 -2.1213,11.314 l 41.631,27.754 48.348,-12.198 -4.2426,-3.0052 -0.35355,-4.5962 3.8891,-5.3033 z"
     style="fill-rule:evenodd" />
  <path
     id="path985"
     style="text-indent:0;text-decoration:none;text-decoration-line:none;text-decoration-style:solid;text-decoration-color:#000000;text-transform:none;white-space:normal;isolation:auto;mix-blend-mode:normal;fill-rule:evenodd"
     solid-color="#000000"
     shape-rendering="auto"
     image-rendering="auto"
     color-rendering="auto"
     color="#000000"
     d="m 53.44991,3.9257 -42.176,8.2051 c 0,0 -2.7762,3.1451 -2.7324,6.3828 0.04252,3.1478 0.41311,5.0176 1.3145,5.9199 1.3138,0.91567 41.91,28.377 41.91,28.377 l 48.922,-12.873 c 0.5045,-0.61966 0.13287,-1.0933 -0.24218,-1.5664 l -3.7441,-1.6816 0.32617,1.7109 c -14.414,3.8257 -29.634,7.7742 -44.27,11.406 -0.19902,-0.84807 -0.89184,-3.2197 -0.95703,-4.0488 -0.24892,-3.1658 1.856,-6.0602 2.1328,-6.4277 l 46.244,-10.955 c 0.50623,-0.68116 0.36172,-1.5821 -0.18164,-2.1133 z m -0.11914,1.4707 44.002,21.391 -44.33,11.088 c 0,0 -3.3447,3.3447 -3.0527,7.8184 0.10706,1.6403 0.97301,3.9406 1.1328,4.5645 l -39.549,-26.375 c -0.8075,-0.83822 -1.0658,-2.5371 -1.1055,-5.4766 -0.0257,-1.9023 1.4715,-4.4616 1.6973,-4.6602 z m -40.463,8.6035 c -0.23217,0.47077 12.561,8.0626 18.969,11.879 6.7833,4.0398 19.998,12.201 20.605,11.689 0.60705,-0.51149 -13.192,-8.4387 -19.916,-12.443 -6.4671,-3.8515 -19.426,-11.596 -19.658,-11.125 z" />
  <path
     id="path987"
     style="text-indent:0;text-decoration:none;text-decoration-line:none;text-decoration-style:solid;text-decoration-color:#000000;text-transform:none;white-space:normal;isolation:auto;mix-blend-mode:normal;fill-rule:evenodd"
     solid-color="#000000"
     shape-rendering="auto"
     image-rendering="auto"
     color-rendering="auto"
     color="#000000"
     d="m 99.26791,28.2731 c -0.13862,0.01613 -0.289,0.08418 -0.36719,0.10352 l -44.611,10.857 c -1.0348,1.7182 -2.0658,3.4191 -2.2617,5.2637 -0.18401,1.7328 0.68087,4.012 0.99219,5.5449 l 44.016,-11.562 c -0.33462,-1.7092 -0.55902,-3.2723 -0.57812,-4.6582 -0.02325,-1.6869 0.75018,-2.931 1.5098,-3.8027 0.37979,-0.43585 0.67002,-0.5354 0.96875,-0.75 0.24957,-0.17929 0.53941,-0.32378 0.64062,-0.49609 0.0474,-0.08069 0.0294,-0.14334 -0.002,-0.29688 -0.0373,-0.18441 -0.16733,-0.21933 -0.30664,-0.20312 z m -3.8809,2.1875 c -0.67616,0.82655 -0.85377,1.4378 -0.89453,2.0801 -2.9492,0.43033 -12.367,2.4751 -17.479,3.6445 -5.9443,1.3599 -17.812,4.2627 -17.723,4.5684 0.08981,0.30568 12.009,-2.4817 17.979,-3.8477 5.1016,-1.1674 14.285,-3.2076 17.213,-4.0664 -0.0013,0.38349 0.01774,0.78549 0.01953,1.2715 0.0078,2.1192 0.31122,2.856 0.39453,3.2363 l -41.057,10.268 c -0.14144,-0.38036 -0.22675,-0.68849 -0.29102,-0.97852 0.87353,0.0075 3.5458,-0.49982 4.9707,-0.84961 1.8499,-0.45413 8.0053,-2.194 7.9785,-2.4453 -0.02678,-0.25131 -6.3182,1.4039 -8.2227,1.8711 -1.3992,0.34324 -3.967,0.84717 -4.7695,1.1816 -0.09457,-0.56917 -0.08183,-1.0964 -0.0293,-1.9238 0.12662,-1.9945 1.0386,-3.1983 1.1895,-3.4258 z m -24.48,9.6953 c -5.1818,1.1384 -15.462,3.2177 -15.438,3.6641 0.02415,0.44637 10.469,-1.7875 15.65,-2.9258 5.7539,-1.2641 17.264,-3.9797 16.446,-4.1224 -0.81792,-0.14268 -11.266,2.1992 -16.659,3.3841 z" />
  <g
     inkscape:label="Layer 2"
     id="layer1"
     inkscape:groupmode="layer">
    <path
       id="path833"
       d="m 29.317205,12.483939 c 0.377352,-1.338144 0.732476,-2.6876703 1.136683,-4.0140425 0.119331,0.9243653 0.299007,1.8417875 0.4646,2.7606555 0.138131,0.695545 0.237822,1.396887 0.402136,2.08803 0.194271,0.841782 0.418325,1.678537 0.5553,2.530309 0.515123,2.812501 1.098067,5.61471 1.661996,8.419552 0.45624,2.236936 0.90532,4.475644 1.34204,6.714704 0.07021,-0.448122 0.05183,-0.915137 0.05761,-1.374483 -0.0033,-1.54566 -0.05099,-3.095277 -0.107409,-4.644647 -0.04617,-1.025181 -0.07365,-2.051418 -0.180487,-3.077483 0.290136,-0.05476 0.638558,-0.170208 0.907711,0.07966 -0.03964,0.535011 0.03554,1.080335 0.08306,1.619655 0.05115,0.501605 0.100519,1.003782 0.170836,1.504318 0.125812,0.458209 0.314764,0.895813 0.486275,1.338092 0.428246,1.037281 0.815522,2.091924 1.238481,3.131446 0.781895,1.922582 1.492321,3.874365 2.236703,5.812121 0.0461,0.118837 0.08747,0.240942 0.145467,0.354738 1.032043,1.685082 2.009251,3.40986 2.993217,5.1287 2.111244,3.691135 4.175071,7.413397 6.257854,11.123104 4.219287,7.531764 8.437356,15.065131 12.666148,22.590878 1.769424,3.140871 3.529801,6.287746 5.320774,9.414421 0.135522,0.234866 0.27063,0.470277 0.412196,0.70132 -0.06769,0.263645 0.160736,0.449371 0.336711,0.582275 0.151207,-0.08632 0.334074,-0.05131 0.491964,0.0377 0.222332,0.119039 0.433462,0.287503 0.589361,0.510301 0.310629,0.452426 0.644082,0.884863 0.956901,1.336176 0.146385,0.214705 0.300853,0.427624 0.39997,0.675026 -0.305654,0.111624 -0.595064,0.27188 -0.91122,0.351415 -0.180386,0.0229 -0.231017,0.25001 -0.332055,0.384531 -0.504766,0.914982 -1.09709,1.756189 -1.651409,2.629225 -0.121531,0.27615 -0.307877,0.499812 -0.470312,0.742655 -0.838308,1.214411 -1.689692,2.41718 -2.548709,3.612331 -0.547692,0.753741 -1.094823,1.508511 -1.674571,2.230255 -0.148142,0.178176 -0.293279,0.363575 -0.473735,0.502454 -0.0052,0.292686 -0.102383,0.606277 0.04522,0.889386 0.02466,0.07348 0.09891,0.08651 0.159105,0.08271 0.237294,-0.01355 0.467922,-0.09482 0.711196,-0.05683 0.0139,0.03408 0.04263,0.102218 0.05649,0.135778 0.02203,-0.0466 0.04214,-0.09419 0.07124,-0.134194 0.268333,-0.04787 0.546064,0.03721 0.819373,0.05397 0.596503,0.03681 1.189268,-0.03441 1.787486,0.05721 0.157075,0.01538 0.279747,0.203598 0.443545,0.156623 2.37e-4,0.0491 -0.0015,0.101907 0.01963,0.153018 0.132268,0.02444 0.266261,0.04308 0.397627,0.08636 -0.0068,0.0984 -0.01125,0.198307 -0.0302,0.294966 -0.193338,0.0358 -0.388153,-0.06939 -0.582339,-0.07013 -0.08786,-0.0022 -0.132958,0.08529 -0.187827,0.143262 -0.391776,-0.297571 -0.857756,-0.117652 -1.280753,-0.200676 0.02792,-0.06609 0.05976,-0.129688 0.09414,-0.190743 -0.293098,0.04335 -0.593008,-0.05728 -0.888315,-0.04573 0.01549,0.04553 0.04596,0.136079 0.061,0.181621 0.0981,0.03169 0.201583,0.04806 0.293964,0.110207 -0.25142,0.159181 -0.557789,0.207611 -0.780091,0.420291 0.534535,-0.0147 1.082328,-0.0486 1.616186,0.13052 -0.05061,0.0454 -0.09715,0.0947 -0.142062,0.14666 0.492214,-0.0391 0.948567,-0.24225 1.438432,-0.29591 0.315832,-0.0409 0.651819,0.03 0.940458,0.22605 -0.09979,0.0353 -0.196721,0.0762 -0.284845,0.13662 0.138866,0.008 0.27767,4.5e-4 0.41704,-0.006 -0.01747,-0.047 -0.05202,-0.14165 -0.06949,-0.1887 0.490148,0.0613 1.033174,-0.10047 1.482039,0.25501 -0.06348,0.0264 -0.12494,0.0548 -0.185171,0.0863 0.270061,0.091 0.555539,0.0635 0.818308,0.20184 -0.100784,0.0625 -0.182945,0.15096 -0.265707,0.23795 0.0075,-0.0399 0.02224,-0.11922 0.02984,-0.15862 -0.179765,0.10385 -0.390004,0.0519 -0.584331,-0.011 -0.123873,0.20098 -0.374048,0.11147 -0.557805,0.1841 -0.0778,-0.003 -0.225178,0.0994 -0.201116,-0.0993 -0.03749,0.0434 -0.04551,0.13921 -0.115736,0.12972 -0.622287,0.0277 -1.254188,-0.0238 -1.87821,-0.14918 0.389378,-0.14692 0.819008,-0.10378 1.226801,-0.16607 -0.105382,-0.11976 -0.255788,-0.12331 -0.375898,-0.20608 -1.56e-4,-0.0763 0.0097,-0.14863 0.01775,-0.22095 -0.206135,0.0644 -0.426142,0.15109 -0.645468,0.0346 -0.350707,0.47492 -1.054445,0.0755 -1.446792,0.48159 -0.250283,-0.0253 -0.494171,-0.1395 -0.743627,-0.14702 -0.100887,-0.018 -0.157469,0.0739 -0.211362,0.14654 0.137985,0.27868 0.447875,-0.0421 0.574437,0.2558 -0.16337,0.0699 -0.342737,0.0239 -0.51042,-0.0388 -0.134408,0.18718 -0.409279,0.0472 -0.575345,0.18774 0.245289,0.0165 0.486887,-0.0233 0.733409,0.006 0.394487,0.0311 0.804789,0.13901 1.188264,0.0581 0.262945,-0.26138 0.666924,-0.18042 0.981227,-0.003 -0.405636,0.30828 -0.959894,0.043 -1.418694,0.16527 0.06361,0.0776 0.129154,0.15147 0.200645,0.22518 -0.08501,0.0128 -0.172409,0.0153 -0.256909,0.024 0.109749,0.0987 0.260133,0.0788 0.367293,0.18857 -0.768476,-0.0544 -1.562485,-0.33579 -2.307827,-0.1035 0.01028,0.0906 0.0067,0.18055 0.0048,0.27255 0.04732,-0.0227 0.09734,-0.0414 0.146749,-0.0617 0.01767,0.0397 0.05347,0.11914 0.07114,0.15886 -0.132855,0.15164 -0.327406,0.19844 -0.5187,0.18978 -0.327806,-0.002 -0.669861,-0.0922 -0.98121,0.0269 -0.01143,-0.0602 -0.02317,-0.11897 -0.03389,-0.17664 -0.04352,7.1e-4 -0.130572,0.002 -0.174091,0.003 0.01728,0.13846 0.08667,0.26081 0.184312,0.3531 -0.05723,0.0388 -0.107529,0.0871 -0.137484,0.15594 0.03218,-0.0134 0.09689,-0.0414 0.129064,-0.0549 0.07826,0.0819 0.142646,0.17667 0.194432,0.28333 -0.300743,0.0169 -0.601882,0.0485 -0.884569,0.1464 0.205044,0.0459 0.407967,-0.0325 0.612819,0.0301 0.08386,0.0269 0.113075,0.1279 0.155993,0.20503 -0.05722,-0.0219 -0.113671,-0.0406 -0.169414,-0.0568 -0.102416,0.0552 -0.171442,0.16055 -0.269685,0.22081 -0.19115,0.0441 -0.415853,-0.0477 -0.577951,0.0959 -0.05548,0.0518 -0.124894,-0.0288 -0.185866,-0.0328 -0.119589,0.002 -0.223269,0.0675 -0.333071,0.10351 -0.165922,-0.23139 -0.41967,-0.12386 -0.584677,0.004 -0.136562,-0.19409 -0.33967,-0.0243 -0.491141,-0.16937 0.376903,-0.17111 0.807866,-0.0397 1.206251,-0.10436 -0.156726,-0.17054 -0.384923,-0.24187 -0.576915,-0.16432 -0.06543,-0.27344 -0.349608,-0.13004 -0.517376,-0.24019 0.216178,-0.10697 0.462977,-0.11244 0.690463,-0.1837 -0.0915,-0.0439 -0.179752,-0.0873 -0.266378,-0.13763 0.11645,0.0176 0.216345,-0.007 0.239938,-0.14997 -0.224316,0.0288 -0.435199,0.1336 -0.669017,0.0937 -0.02214,0.10615 -0.02505,0.24937 -0.125684,0.29925 -0.355653,0.16789 -0.766531,0.11012 -1.141253,0.20072 -0.130906,0.0267 -0.234215,0.11951 -0.310505,0.23504 0.167622,0.0386 0.352246,-0.0299 0.500763,0.11321 -0.06551,0.0431 -0.128986,0.0883 -0.192358,0.13451 0.304703,-0.0187 0.516916,-0.26861 0.798851,-0.35082 0.0702,0.19128 0.242425,0.28145 0.368015,0.41996 -0.220149,-0.0455 -0.439485,-0.0314 -0.655875,-0.0152 0.132565,0.22817 0.340443,0.0462 0.514031,0.0381 0.0678,0.0362 0.130176,0.0871 0.199198,0.12649 0.222365,0.0214 0.422667,-0.10242 0.645537,-0.0805 0.105919,0.009 0.188965,0.1017 0.269813,0.17723 -0.368972,-0.0517 -0.725409,0.0196 -1.076957,0.0939 -0.156523,0.0462 -0.31275,-0.0585 -0.469052,-0.066 -0.07784,-0.003 -0.108436,0.0919 -0.159001,0.13773 0.227034,0.21816 0.521375,0.28552 0.79826,0.32465 0.345224,0.0482 0.690455,0.0216 1.016515,-0.0739 -0.101659,-0.0305 -0.205258,-0.0621 -0.288043,-0.14328 0.1475,-0.008 0.335635,-0.0728 0.449091,0.0964 -0.216088,0.22922 -0.538639,0.25304 -0.8335,0.24577 -0.496929,-0.0135 -0.997701,-0.14083 -1.491899,-0.10324 0.047,-0.19411 0.111384,-0.3887 0.08464,-0.60003 -0.03941,-0.0182 -0.07828,-0.0354 -0.116062,-0.051 0.0027,0.037 0.0077,0.11105 0.01043,0.14807 -0.459011,-0.0387 -0.918255,-0.17758 -1.3758,-0.14991 0.28968,0.0853 0.582346,0.14954 0.875314,0.21223 -0.01722,0.0303 -0.03387,0.0616 -0.04951,0.0938 -0.113233,9.7e-4 -0.211989,0.0562 -0.303214,0.11782 0.129503,0.0757 0.255909,0.008 0.375169,-0.0347 0.0051,-0.0226 0.01449,-0.0673 0.01961,-0.0898 0.145377,0.0831 0.298266,0.15396 0.426336,0.27569 -0.233979,-0.0508 -0.185066,0.30199 -0.390881,0.323 0.06646,0.14856 0.223752,0.18482 0.31135,0.31502 -0.13503,-0.0479 -0.279625,-0.10435 -0.409543,-0.0395 -0.238251,0.0925 -0.487054,0.2176 -0.755387,0.12076 0.02322,0.0542 0.04752,0.10993 0.07197,0.16721 -0.273259,-0.0162 -0.656355,-0.11816 -0.812899,0.18459 0.03672,0.0188 0.110168,0.0564 0.146841,0.0747 -0.07928,-0.008 -0.163518,-0.002 -0.234997,-0.0518 -0.03043,-0.11354 0.0449,-0.21546 0.06155,-0.32145 -0.290312,-0.045 -0.612876,0.24939 -0.868785,-0.0385 0.162574,-0.12478 0.37354,-0.18198 0.487199,-0.37485 0.284826,0.20398 0.531613,-0.1191 0.808254,-0.13848 -0.127582,-0.16352 -0.303785,0.10269 -0.439195,-0.0518 -0.01537,-0.17039 0.160775,-0.073 0.239749,-0.0586 0.01345,-0.0359 0.02792,-0.0708 0.04294,-0.10466 -0.263773,0.0242 -0.49737,0.15469 -0.749877,0.21883 -0.164858,0.0455 -0.339795,0.007 -0.507976,-0.0325 -0.01987,0.0173 -0.05955,0.0524 -0.07937,0.0701 -0.169928,-0.006 -0.342353,-0.0143 -0.502383,0.0384 -0.111484,-0.10705 -0.247343,-0.18206 -0.389044,-0.17175 -0.393392,0.0127 -0.766227,0.17854 -1.168827,0.10695 -0.04587,0.0608 -0.03894,0.21999 -0.137902,0.19826 -0.114138,-0.0547 -0.227214,-0.11263 -0.336783,-0.1769 0.04806,-0.0525 0.100351,-0.0995 0.147906,-0.15258 -0.230559,-0.10469 -0.472159,-0.0743 -0.707549,-0.10678 0.07581,-0.069 0.15779,-0.13143 0.216911,-0.22088 -0.08394,0.01 -0.167684,0.0168 -0.250707,0.0218 -0.136755,-0.0421 -0.24251,-0.17958 -0.383782,-0.20221 -0.01086,0.0249 -0.03269,0.0735 -0.04355,0.0984 -0.102156,-0.003 -0.26666,-0.0984 -0.287843,0.0688 0.169953,0.0344 0.338745,0.0102 0.508994,0.0336 0.103686,0.0138 0.164267,0.12592 0.226009,0.21245 -0.17849,-0.0278 -0.354334,-0.13148 -0.532119,-0.0914 -0.04136,0.17671 0.105131,0.26185 0.216199,0.35534 -0.257608,0.11494 -0.544658,0.22447 -0.83622,0.13874 0.0025,-0.14268 0.172876,-0.14596 0.255305,-0.20838 -0.154992,-0.0829 -0.322679,-0.0848 -0.481765,-0.13935 0.0028,-0.0465 0.0082,-0.14022 0.01095,-0.18733 -0.217887,0.0569 -0.470081,-0.0112 -0.661978,0.12804 0.02878,0.0734 0.05502,0.14888 0.08055,0.22652 0.156906,-0.0797 0.330715,-0.12748 0.510706,-0.061 -0.06807,0.087 -0.127392,0.18386 -0.152584,0.30107 0.163823,0.0606 0.250689,0.23473 0.349227,0.38289 -0.0012,-0.082 0.0014,-0.16302 0.0079,-0.24209 0.03234,0.002 0.09697,0.006 0.128846,0.009 0.0013,0.0783 8.28e-4,0.15773 -0.0014,0.23772 0.217607,-0.0877 0.533102,-0.174 0.709472,0.0936 -0.138489,0.0149 -0.281375,0.004 -0.413499,0.0462 -0.204102,0.057 -0.368633,0.21788 -0.580386,0.24846 -0.127565,0.0187 -0.252683,-0.0403 -0.373379,-0.087 0.04411,-0.11148 0.07672,-0.23256 0.147988,-0.32444 0.09819,-0.0702 0.185212,0.11487 0.284379,0.1387 -0.167941,-0.35462 -0.510561,-0.52561 -0.764315,-0.78689 -0.17136,-0.15603 -0.288364,-0.37522 -0.341149,-0.6088 0.259682,0.23762 0.604408,0.21526 0.885772,0.1179 -0.07663,-0.0746 -0.146495,-0.15514 -0.212604,-0.23946 0.179368,-0.0239 0.417468,0.10147 0.53341,-0.0962 -0.163189,0.0391 -0.327152,-0.004 -0.48781,-0.0608 -0.158485,-0.0624 -0.159391,0.16648 -0.22262,0.26545 -0.05999,-0.0594 -0.113379,-0.12632 -0.178694,-0.1746 -0.08117,-0.0227 -0.163332,-0.0184 -0.242814,-0.0333 -0.07122,-0.0476 -0.131365,-0.11328 -0.195521,-0.16839 0.02082,0.1044 0.05267,0.20902 0.06602,0.31678 -0.03748,0.0622 -0.102291,0.0891 -0.16905,0.0915 -0.09861,-0.0369 -0.118791,-0.23743 -0.232667,-0.21016 -0.174476,0.041 -0.403906,0.16718 -0.541504,-0.0608 0.193982,-0.0666 0.46301,0.0793 0.600149,-0.12679 -0.345744,0.007 -0.693747,-0.004 -1.041417,-0.0534 0.01155,-0.0646 0.02853,-0.12985 0.04603,-0.18989 -0.43448,-0.0644 -0.882488,0.0695 -1.302388,-0.16402 -0.04034,0.0425 -0.07906,0.0874 -0.119345,0.13034 -0.07342,-0.0794 -0.129936,-0.17809 -0.214537,-0.24045 -0.09165,-0.0407 -0.18742,-0.002 -0.278124,-4.4e-4 -0.0171,-0.0993 -0.02627,-0.19723 -0.03631,-0.29463 -0.06486,0.0217 -0.125351,0.0506 -0.187466,0.0769 0.08867,0.0524 0.200655,0.0946 0.219921,0.22516 -0.348195,0.006 -0.699575,-0.11902 -1.045454,-0.0804 -0.145568,0.013 -0.279705,0.0722 -0.412425,0.12721 -0.02793,-0.088 -0.05438,-0.17503 -0.08205,-0.26044 -0.280753,0.0989 -0.581534,0.13412 -0.883939,0.10147 -0.345012,-0.0366 -0.690964,-0.0222 -1.017276,0.0755 0.04482,0.0358 0.08994,0.07 0.1368,0.10788 -0.05581,0.0204 -0.142773,0.004 -0.15807,0.0866 -0.04261,0.0754 -0.03284,0.22609 -0.143029,0.21147 -0.07245,-0.0648 -0.130557,-0.18904 -0.234965,-0.1448 -0.01131,0.17898 0.137453,0.31057 0.282539,0.33464 0.370614,0.0731 0.739959,-0.007 1.110434,0.0786 -0.0048,0.0393 -0.01456,0.11795 -0.01941,0.15727 0.07631,-0.022 0.149546,-0.0612 0.214951,-0.11008 -0.143756,-0.0199 -0.221041,-0.16191 -0.292872,-0.28576 0.06727,0.003 0.135616,0.007 0.204516,0.0124 0.03367,-0.0636 0.06936,-0.12526 0.107105,-0.18485 0.0045,0.0594 0.01329,0.17723 0.01776,0.23667 0.04438,-0.0854 0.09324,-0.16721 0.151755,-0.23941 0.03516,0.11027 0.02461,0.22236 0.0041,0.3316 0.247262,-0.0755 0.486303,0.0875 0.709151,0.21644 2.69e-4,0.0214 -2.09e-4,0.0632 6.5e-5,0.0846 0.05973,0.0521 0.1495,0.097 0.139814,0.19922 -0.170088,0.13232 -0.448616,-0.0729 -0.568152,0.14887 0.293178,0.0695 0.625949,-0.0977 0.883669,0.16185 -0.538353,0.29794 -1.131272,0.5123 -1.757051,0.49043 0.06387,-0.0645 0.134705,-0.11877 0.202849,-0.17713 -0.375388,-0.0656 -0.81387,-0.25472 -1.136813,0.008 0.06805,0.0341 0.14272,0.0654 0.209513,0.11001 0.04057,0.0673 0.01312,0.14746 0.02085,0.22142 0.113519,-0.0309 0.239023,-0.0799 0.33943,0.0452 -0.250203,0.16697 -0.556445,0.16525 -0.846868,0.17979 0.03527,0.12542 0.105158,0.23417 0.17195,0.34406 -0.03932,-0.0124 -0.117434,-0.0369 -0.156285,-0.0493 0.06756,0.1971 0.187123,0.37236 0.237549,0.57726 -0.04723,0.15441 -0.302242,0.053 -0.309848,0.22771 0.09847,0.0447 0.187814,-0.0174 0.279424,-0.0378 -0.01007,0.0656 -0.02009,0.13169 -0.02996,0.19936 -0.18365,0.009 -0.367249,0.0173 -0.55147,0.0105 0.02121,-0.13903 0.129783,-0.18288 0.23557,-0.21776 -0.264142,-0.28292 -0.665664,-0.26887 -0.946624,-0.10206 0.0068,-0.0477 0.01412,-0.0944 0.02161,-0.13957 -0.218783,-0.0596 -0.433362,-0.007 -0.644713,0.0236 -0.202648,0.0345 -0.410196,0.0426 -0.610499,0.0869 0.317273,0.0626 0.624984,-0.0235 0.940493,-0.0117 -0.0021,0.17507 -0.175292,0.10739 -0.278183,0.13905 0.418221,0.0952 0.840568,0.11553 1.257646,0.0964 -0.04238,0.0357 -0.0481,0.14084 -0.115122,0.13597 -0.494215,0.0141 -0.98802,0.0323 -1.482442,0.0396 0.01162,-0.17585 0.197383,-0.074 0.30042,-0.10886 -0.247026,-0.0995 -0.508408,-0.13961 -0.762284,-0.14074 -0.11604,-0.0134 -0.197486,0.073 -0.276047,0.14682 -0.04035,-0.0464 -0.08172,-0.0891 -0.124099,-0.12811 -0.300287,-0.0578 -0.603558,-0.0199 -0.884827,0.0691 0.0063,-0.0806 -0.05572,-0.14206 -0.119533,-0.14234 -0.127839,-0.0167 -0.258455,-0.006 -0.379364,-0.0733 0.160574,-0.13569 0.375729,-0.099 0.554792,0.014 -0.0396,-0.0621 -0.05777,-0.1582 -0.132576,-0.17227 -0.169149,-0.0495 -0.329804,0.0433 -0.499088,0.0252 -0.814514,-0.0139 -1.628215,0.11586 -2.447624,-0.0598 0.259797,-0.11135 0.551725,-0.0826 0.822127,-0.1514 -0.352782,-0.0876 -0.715229,-0.11022 -1.059712,-0.0388 -0.160145,0.0281 -0.317177,0.0738 -0.481256,0.0759 0.048,-0.0765 0.230871,-0.10217 0.222779,-0.18448 -0.221346,-0.0903 -0.441003,0.0512 -0.657642,0.0741 0.100278,-0.0583 0.05589,-0.19696 0.06695,-0.30385 0.283673,-0.0692 0.583594,0.19024 0.87061,0.10371 0.08591,-0.027 0.116853,-0.13236 0.165819,-0.20375 -0.368015,-0.13057 -0.739809,-0.28557 -1.120661,-0.30398 -0.0815,0.15591 -0.254971,0.17443 -0.404654,0.18758 -0.182124,0.01 -0.37676,0.0139 -0.548797,-0.0931 0.129083,-0.0219 0.290412,0.0414 0.381997,-0.0866 0.126959,-0.006 0.267224,0.0388 0.3801,-0.0359 -0.19055,-0.0431 -0.373103,0.009 -0.560321,0.005 -0.168092,0.008 -0.342093,-0.007 -0.498761,0.0565 0.0026,0.11485 -0.04643,0.20923 -0.09528,0.30047 0.410576,0.13405 0.833613,0.0588 1.244493,0.19126 -0.246373,0.0379 -0.498511,0.0497 -0.738152,0.11872 9.39e-4,0.0328 0.0024,0.0992 0.0029,0.1326 -0.253451,0.0966 -0.538009,0.0634 -0.808212,0.0549 -0.08332,-0.25935 -0.269448,-0.4536 -0.462776,-0.61369 -0.274694,0.32858 -0.720805,0.34651 -1.1134,0.33002 0.04841,-0.063 0.09637,-0.12604 0.143863,-0.18903 -0.617441,0.19364 -1.285992,0.30149 -1.943923,0.11128 0.355729,-0.0597 0.806261,-0.01 1.025657,-0.37766 0.113454,0.0944 0.241113,0.072 0.362106,0.0425 -0.03848,-0.0506 -0.07604,-0.10126 -0.110749,-0.15095 0.122352,0.0216 0.258381,0.11697 0.355362,-0.003 0.06558,0.27031 0.350866,0.25486 0.528077,0.19967 -0.25135,-0.0968 -0.487034,-0.2583 -0.746796,-0.31462 -0.20505,-0.0553 -0.385252,0.0862 -0.587025,0.0643 -0.115186,-0.0281 -0.222271,-0.10441 -0.338564,-0.11572 -0.317295,-0.0207 -0.622893,0.10551 -0.94231,0.0305 -0.121996,-0.0226 -0.200486,-0.14421 -0.265696,-0.25206 0.400585,0.0278 0.853496,0.13501 1.189604,-0.13366 -0.185655,-0.0214 -0.361845,-0.10515 -0.542588,-0.15589 -0.02711,0.0557 -0.04751,0.11889 -0.08083,0.17208 -0.205312,0.0727 -0.4178,-0.0675 -0.619555,-0.13593 0.07141,-0.0344 0.237535,0.045 0.227009,-0.0995 -0.193992,-0.0922 -0.350763,-0.25382 -0.50306,-0.41664 0.182623,-0.0235 0.368513,-0.0278 0.548329,-0.0658 -0.280536,-0.16962 -0.683912,-0.33313 -0.907934,-0.0353 0.09958,0.0327 0.219425,0.0334 0.282302,0.15025 -0.135653,0.007 -0.307729,-0.0121 -0.378958,0.14087 0.01879,0.0418 0.05673,0.12428 0.07552,0.16606 -0.276408,-0.011 -0.575788,-0.15285 -0.829459,-0.007 0.349722,0.0752 0.74734,-0.0672 1.051617,0.24116 -0.191678,0.0153 -0.386331,-0.004 -0.576635,0.0159 l 0.0089,0.0906 c 0.252775,0.0273 0.533078,-0.0622 0.7638,0.12816 -0.318972,-0.0191 -0.605546,0.11859 -0.909667,0.17585 0.0044,-0.0346 0.01274,-0.10381 0.01714,-0.13841 -0.06104,0.0325 -0.120407,0.0682 -0.178753,0.10486 -0.05228,-0.15365 -0.174771,-0.1627 -0.293585,-0.14364 0.01523,-0.0318 0.04534,-0.0942 0.06062,-0.12553 -0.06414,-0.0316 -0.1297,-0.059 -0.194088,-0.0838 0.0096,-0.028 0.02892,-0.0839 0.03811,-0.11184 -0.79755,-0.11205 -1.595831,-0.1802 -2.393765,-0.25881 0.559946,-0.32103 1.268605,-0.22629 1.796055,-0.62581 -0.268005,-0.0655 -0.475504,0.15773 -0.733754,0.15411 -0.460348,0.0178 -0.924294,-0.0897 -1.384911,-0.0933 -0.109122,-0.009 -0.192149,0.0713 -0.27804,0.12651 -0.10251,-0.15119 -0.272634,-0.1406 -0.415274,-0.16318 -0.202688,-0.0219 -0.405984,-0.0407 -0.608102,-0.0474 -0.04675,0.1126 -0.11594,0.20233 -0.237407,0.20841 0.04231,-0.0692 0.08945,-0.13106 0.131959,-0.19809 -0.45781,-0.20375 -0.931961,-0.36367 -1.361408,-0.65233 0.05716,-0.0628 0.04697,-0.15702 0.04473,-0.24054 0.119966,0.10001 0.247669,0.21339 0.397474,0.2295 0.152655,0.0218 0.292234,-0.0428 0.423369,-0.10923 -0.106952,-0.033 -0.213748,-0.0597 -0.320038,-0.0906 0.01256,-0.0683 0.02731,-0.13294 0.04247,-0.19814 -0.194296,0.0541 -0.48059,0.0827 -0.611532,-0.15236 0.04069,-0.12288 0.101781,-0.23432 0.147407,-0.35368 -0.557263,0.0869 -1.145773,-0.15332 -1.690158,0.0273 0.0083,-0.0279 0.02486,-0.0832 0.03313,-0.11117 -0.0475,-0.007 -0.09438,-0.0124 -0.140601,-0.0158 -0.08918,0.29717 -0.429161,0.26037 -0.601283,0.46535 -0.143994,-0.0691 -0.303035,-0.13242 -0.449532,-0.0729 -0.170948,0.0675 -0.333079,0.1641 -0.521404,0.17627 0.05358,-0.15982 0.299833,-0.2269 0.241523,-0.42793 -0.27315,-0.006 -0.555566,0.0435 -0.823994,0.0998 0.01083,0.0681 0.02033,0.13681 0.02364,0.20776 -0.101021,-0.0567 -0.198701,-0.13538 -0.311733,-0.13687 -0.463242,-0.049 -0.92644,0.0379 -1.388517,-0.0879 -0.113967,-0.0296 -0.219113,-0.0956 -0.316029,-0.17122 0.607891,-0.25344 1.262408,0.21478 1.892044,0.15453 -0.03073,-0.24256 -0.114839,-0.47263 -0.193457,-0.70286 -0.479597,0.12076 -0.989462,0.0783 -1.48589,-0.0187 -0.09321,0.12542 -0.295205,0.22729 -0.394143,0.0238 0.03619,-0.0146 0.108017,-0.0449 0.1437,-0.0599 -0.02853,-0.0801 -0.05706,-0.16031 -0.08452,-0.23894 0.06655,-0.009 0.108259,-0.0611 0.147628,-0.11338 0.274136,0.0345 0.661657,0.13943 0.794739,-0.1966 -0.376587,0.0436 -0.783081,-0.0723 -1.129773,0.11211 -0.01613,-0.01 -0.04833,-0.0294 -0.06445,-0.0394 -0.03205,0.0474 -0.06074,0.10098 -0.102814,0.13979 -0.146175,0.0115 -0.29438,-0.0444 -0.441886,-0.0464 0.04382,0.0536 0.08875,0.10926 0.133283,0.16546 -0.172488,0.0472 -0.319214,0.28648 -0.513499,0.14 0.03619,-0.0146 0.109035,-0.0438 0.145176,-0.059 9.93e-4,-0.10659 -0.05562,-0.20162 -0.08995,-0.29885 -0.01089,0.0525 -0.03187,0.15658 -0.04277,0.20913 -0.05065,-0.0764 -0.09784,-0.15497 -0.142686,-0.2331 -0.156047,-2.6e-4 -0.362974,-0.12129 -0.473199,0.0364 0.0951,0.0292 0.192951,0.0583 0.28385,0.10998 -0.439278,0.12012 -0.9298,-0.0383 -1.349542,0.16852 -0.04097,-0.0621 -0.0854,-0.11719 -0.124393,-0.17772 0.13478,-0.0901 0.204429,-0.24979 0.301147,-0.38157 -0.224768,0.0335 -0.457296,0.0209 -0.684821,-0.0343 -0.22274,-0.0485 -0.440025,-0.14888 -0.66538,-0.15396 0.0086,-0.0661 0.01745,-0.13057 0.02686,-0.19352 -0.08684,0.083 -0.132646,0.23311 -0.268558,0.23228 -0.0965,-0.27673 -0.397499,-0.1924 -0.591783,-0.19418 0.0061,0.16019 -0.09832,0.24623 -0.201429,0.3223 -0.01838,-0.0329 -0.05565,-0.0992 -0.07408,-0.13267 -0.059261,0.0367 -0.1155165,0.0806 -0.1796639,0.1096 -0.2448805,-0.008 -0.4653844,-0.20145 -0.7112825,-0.21011 -0.4880429,-0.0305 -0.9462781,0.17219 -1.4364719,0.11981 0.3077022,-0.31489 0.7767703,-0.22535 1.1691997,-0.29921 -0.3035174,-0.24002 -0.6747333,-0.15108 -0.9964552,-0.10483 -0.4189321,0.0563 -0.8324413,0.2332 -1.2683184,0.12652 0.5854009,-0.34684 1.3321097,-0.0844 1.9274954,-0.4044 -0.1699701,0.0122 -0.3408886,-0.0227 -0.5109778,-0.0351 -0.1290388,0.0131 -0.2330094,0.0991 -0.3534352,0.1391 -0.092218,0.0235 -0.1865729,-0.026 -0.2766933,-0.0558 -0.2112173,0.0687 -0.4329354,0.10061 -0.6576262,0.0976 l 0.016055,-0.0888 c -0.195221,0.04 -0.3951404,0.051 -0.5953192,0.0546 0.1435962,0.15366 0.3971757,-0.0489 0.4747997,0.21319 -0.2959386,0.1965 -0.6674858,0.10469 -0.9983117,0.002 -0.2174705,-0.0742 -0.4397979,-0.11388 -0.6617122,-0.14465 -0.00659,0.031 -0.019816,0.0925 -0.025946,0.1235 -0.055978,0.005 -0.068561,-0.0999 -0.1065141,-0.13122 -0.2221225,-0.0375 -0.4353817,0.0197 -0.6522287,0.0358 -0.016011,-0.0649 -0.033649,-0.12755 -0.053877,-0.18861 -0.417169,-0.0377 -0.8201788,0.1012 -1.2389448,0.0332 -0.1296244,-0.0256 -0.2856605,-0.0817 -0.3377867,-0.238512 0.067729,0.0028 0.1359162,0.0055 0.2035935,0.0078 -0.1412105,-0.0874 -0.2900872,-0.01472 -0.4277594,0.01323 -0.1743693,0.04676 -0.3616673,0.07403 -0.5423757,3.03e-4 0.01364,-0.05263 0.026977,-0.10368 0.038535,-0.154153 -0.067788,-0.125777 -0.1140508,-0.260275 -0.1324038,-0.40028 -0.1377636,0.04102 -0.1104824,0.225163 -0.1649566,0.343213 -0.2403628,-0.01771 -0.53670996,-0.04009 -0.6742732,0.213017 0.16845361,4.25e-4 0.3391203,-0.03265 0.4712928,-0.144547 -0.069311,0.205185 0.1646678,0.255981 0.2672578,0.375299 -0.2478519,0.0322 -0.4699029,0.16802 -0.72500154,0.1638 0.0596885,-0.079 0.13622312,-0.13605 0.20807544,-0.19869 -0.38228371,-0.103001 -0.79736815,0.002 -1.04440701,0.32229 -0.07079853,-0.0293 -0.14179859,-0.056 -0.21203709,-0.0843 0.0675588,-0.0223 0.13466003,-0.0446 0.20232127,-0.0659 -0.10452432,-0.0503 -0.21138126,-0.0917 -0.31676575,-0.13672 0.20843471,-0.120347 0.44759304,-0.152231 0.68493371,-0.165261 -0.0280017,-0.05144 -0.0553921,-0.101333 -0.0830352,-0.149128 0.0532161,-0.02816 0.10215672,-0.06246 0.13837357,-0.114166 -0.0816241,-0.02275 -0.16288643,-0.03715 -0.24450775,-0.0552 0.0448227,-0.03418 0.0886785,-0.06886 0.13207666,-0.103534 0.0212942,-0.08681 -0.0219607,-0.209376 0.046336,-0.266178 0.19006353,8.54e-4 0.37054568,0.114295 0.55975847,0.134501 0.13209122,-0.01004 0.23513992,-0.105431 0.35154032,-0.158374 -0.035105,0.114359 -0.1076515,0.202615 -0.1688527,0.298916 0.2675644,0.08902 0.2609553,-0.342287 0.4889803,-0.370723 0.3416649,-0.0301 0.6913153,0.01634 1.0335375,-0.01743 l -0.047081,-0.06814 c 0.2116526,0.04308 0.4246889,0.03022 0.6255928,-0.02669 -0.020908,0.05806 -0.041204,0.117666 -0.061907,0.177809 0.2654842,-0.04883 0.5400971,0.01386 0.8027853,0.109293 0.2996404,-0.354881 0.7735744,0.07355 1.1214748,-0.126508 C 4.7746467,98.883934 4.5728579,98.479085 4.3628421,98.088575 3.6778172,96.754578 3.0501715,95.383423 2.5182925,93.973496 2.4296522,93.87938 2.3148424,93.808471 2.2644129,93.678265 2.1484534,93.41829 2.2102868,93.137044 2.1807086,92.868856 1.9972022,92.505271 1.7812712,92.161949 1.5617334,91.823949 1.4309275,91.637008 1.3104307,91.433569 1.1393335,91.289563 c -0.27704484,0.09461 -0.51146267,0.286736 -0.74095258,0.472977 -0.59311592,0.51108 -1.14037359,1.087196 -1.64326152,1.708541 -0.3074322,-0.02311 -0.6073833,0.03455 -0.9134299,0.0302 -0.019506,-0.478477 0.095594,-0.932057 0.1870536,-1.383396 0.342598,-1.518946 0.7706925,-3.00376 1.21394587,-4.479081 -0.0996244,-0.0238 -0.22559986,0.0064 -0.29487987,-0.105475 0.012791,-0.247978 0.17080987,-0.479719 0.3823411,-0.535896 0.12022148,-0.04208 0.2042104,0.08874 0.26092688,0.19421 0.59526556,1.02312 1.19749433,2.042384 1.75525272,3.09008 0.1492667,0.262694 0.2378988,0.562105 0.4208097,0.80294 0.4074463,0.671678 0.8146431,1.350155 1.1329951,2.077133 0.6732454,-0.08344 1.3010529,-0.358338 1.974094,-0.443856 -0.00512,-0.336796 -0.1480513,-0.703099 -0.024259,-1.016925 0.052348,-0.177015 0.2342988,-0.216676 0.382246,-0.238131 0.1262248,-0.03703 0.2067007,0.160749 0.3307917,0.125353 0.2854553,-0.06507 0.5827969,-0.07459 0.8773962,-0.07932 0.077314,-0.464519 0.2261891,-0.901299 0.3512616,-1.346804 0.6468716,-2.153439 1.3341795,-4.287657 1.9560777,-6.452398 0.2452336,-0.861618 0.4880255,-1.724732 0.6830082,-2.60738 0.080059,-0.394596 0.1735894,-0.792188 0.1610414,-1.209221 -0.740706,-0.04262 -1.4701138,-0.287739 -2.1921399,-0.518443 -0.096012,-0.16443 -0.06825,-0.381491 0.00878,-0.531522 0.1067836,-0.206773 0.3501211,-0.224155 0.5496468,-0.215739 0.6474507,0.03693 1.2957429,0.115099 1.9431485,0.160909 0.3421582,0.02159 0.6884972,0.0577 1.0238412,0.0053 0.199144,-0.462243 0.325041,-0.964713 0.479677,-1.450239 1.18437,-4.02376 2.301499,-8.077992 3.430174,-12.126808 4.870273,-17.558903 9.64228,-35.160455 14.482085,-52.735207 m 6.694658,14.20321 c 0.129274,1.048933 0.299131,2.095143 0.435222,3.143359 1.876955,17.621601 3.758537,35.243591 5.632897,52.862131 -0.04506,0.484495 0.104254,0.971811 0.198256,1.45182 0.270793,1.134754 0.552521,2.273373 0.960368,3.369221 0.187363,-1.664972 0.369082,-3.331349 0.546631,-4.998132 0.02751,-0.359666 0.09006,-0.713016 0.09519,-1.076223 -1.402936,-15.1992 -2.79906,-30.399116 -4.207488,-45.598158 -0.417596,-1.083033 -0.919886,-2.131264 -1.328389,-3.21978 -0.726222,-2.000438 -1.599194,-3.939232 -2.33294,-5.936844 M 9.7855746,80.69729 c -0.7710543,2.995413 -1.5454656,5.989355 -2.3189104,8.983791 -0.058305,0.237782 -0.065902,0.496581 -0.1648968,0.717238 0.2806103,0.05835 0.3588634,0.420225 0.4757287,0.666076 0.2721777,0.430008 0.6936749,0.693823 1.0025882,1.086739 1.5989517,-0.08212 3.1936527,-0.20748 4.7786537,-0.389504 0.01154,-0.57339 0.223362,-1.088756 0.403099,-1.599028 0.326199,-0.836237 0.675131,-1.665287 1.122808,-2.418791 -0.133289,-0.319556 -0.228253,-0.655365 -0.288236,-0.994777 -0.02666,-0.159097 -0.05886,-0.332653 0.01222,-0.473111 0.144618,-0.344719 0.140966,-0.764617 0.33233,-1.081936 0.08887,-0.155597 0.253112,-0.21669 0.414077,-0.236425 -0.01529,-0.04344 -0.04636,-0.130844 -0.0617,-0.174809 0.166647,0.03339 0.340814,-0.01075 0.500889,0.07715 0.02757,-0.05564 0.05173,-0.113265 0.08887,-0.160294 0.166251,-0.02197 0.342047,0.0064 0.502572,0.08494 0.27202,0.134341 0.505517,0.366943 0.79251,0.4622 -0.09107,-0.0021 -0.181827,-0.0011 -0.271518,0.0015 -0.01715,0.26429 -0.23465,0.511831 -0.09062,0.781988 0.221383,0.501461 0.130758,1.054637 0.131276,1.573356 0.0083,0.374311 -0.06903,0.814806 0.202958,1.126238 0.228234,0.267752 0.501314,0.534226 0.560562,0.912839 0.08388,0.624479 0.06602,1.250288 0.126608,1.875953 1.576416,-0.241332 3.159724,-0.445242 4.740019,-0.665793 -0.05282,-0.48589 -0.0768,-0.972592 -0.144668,-1.457526 -0.16231,-0.01262 -0.363806,-0.0037 -0.473048,-0.181374 0.17713,-0.242729 0.450647,-0.363885 0.630778,-0.604093 0.08551,0.04823 0.169947,0.09964 0.260935,0.133611 0.140635,-0.151843 0.226711,-0.377879 0.437635,-0.430898 -0.10266,-0.218051 -0.208178,-0.45116 -0.140211,-0.688695 0.141949,0.05289 0.276797,0.131587 0.415146,0.199213 -0.07334,-0.171866 -0.150241,-0.347288 -0.167305,-0.534863 -0.04643,-0.369573 0.05883,-0.717873 0.166495,-1.046389 0.06815,-0.198355 0.06493,-0.436474 0.194471,-0.598453 0.15011,-0.200173 0.412714,-0.222282 0.64125,-0.175509 0.375505,0.08072 0.732178,0.277952 1.065938,0.503514 0.219655,0.143145 0.412418,0.3675 0.494269,0.639951 0.102418,0.378954 -0.212716,0.6836 -0.09921,1.06798 0.119499,0.01592 0.239911,0.02712 0.360329,0.04771 -0.03249,0.07563 -0.0635,0.152258 -0.09299,0.230417 0.10659,0.02464 0.215808,0.02467 0.322556,0.05558 0.150899,0.05524 0.284293,0.161155 0.417936,0.260258 -0.0076,0.0817 -0.05016,0.175908 0.01604,0.251858 0.196301,0.26501 0.441631,0.477941 0.651346,0.730028 0.25962,0.288271 0.425904,0.67272 0.461978,1.067664 0.205023,-0.05703 0.357987,-0.246843 0.570607,-0.273273 1.922334,0.135905 3.827801,0.0022 5.74376,0.03591 0.503936,7.93e-4 1.012895,0.05734 1.511144,-0.0044 0.520368,-0.0608 1.055098,-0.08752 1.545683,-0.273889 -1.293364,-0.05823 -2.559578,0.169043 -3.847968,0.170749 -0.599139,-0.0263 -1.198841,-0.05831 -1.797208,-0.07208 -0.518434,-0.0083 -1.039881,-0.03776 -1.55176,0.0207 -0.340013,-0.07912 -0.698118,-0.146225 -1.007258,-0.354738 -0.09512,-0.192664 -0.250207,-0.351231 -0.452356,-0.330317 -0.160792,0.338905 -0.279832,0.757081 -0.629398,0.902861 -0.05186,-0.284793 0.04013,-0.55331 0.158392,-0.783396 0.1499,-0.281655 0.34197,-0.535791 0.576183,-0.730001 0.01569,-0.106492 0.05578,-0.207417 0.146616,-0.249706 0.283152,-0.158515 0.611338,-0.19503 0.927569,-0.241129 1.179127,-0.137549 2.378296,-0.117908 3.573392,-0.10703 1.442418,0.02002 2.886949,0.08022 4.329936,0.115366 0.481771,0.0041 0.968133,0.03145 1.442125,-0.03429 -0.121068,-0.50327 -0.356305,-0.968286 -0.559158,-1.439972 -0.225538,-0.483054 -0.438321,-0.976396 -0.703757,-1.435851 -0.1794,-0.0931 -0.377454,-0.105218 -0.565263,-0.153151 -2.333046,-0.462711 -4.671882,-0.844289 -7.00885,-1.244203 -4.24524,-0.710175 -8.491784,-1.396283 -12.739935,-2.052047 -2.264575,-0.345036 -4.529153,-0.694772 -6.795874,-0.982284 -0.425762,-0.04585 -0.853432,-0.115682 -1.2781959,-0.109321 m 34.9166059,-0.01112 c -0.106328,0.701465 -0.14213,1.420249 -0.200096,2.132874 -0.09171,1.326349 -0.181429,2.65421 -0.22925,3.988189 0.0079,0.472539 -0.154586,0.910752 -0.12426,1.387353 2.209572,-0.06975 4.417246,-0.163461 6.625944,-0.246761 4.312804,-0.170927 8.626269,-0.339788 12.937586,-0.525833 1.665359,-0.07879 3.333481,-0.134151 4.995362,-0.243657 -0.341296,-0.311547 -0.554193,-0.750035 -0.819169,-1.134801 -0.177576,0.04215 -0.327345,0.147759 -0.475284,0.253323 -0.09494,-0.08819 -0.186575,-0.180133 -0.273646,-0.276912 0.09691,-0.223209 0.215579,-0.444427 0.416491,-0.561942 -0.246594,-0.197747 -0.538404,-0.281374 -0.816097,-0.384732 -1.200405,-0.400951 -2.417162,-0.702182 -3.631126,-1.007672 -3.901285,-0.95505 -7.815608,-1.795326 -11.733654,-2.580122 -1.053057,-0.190446 -2.105401,-0.452999 -3.162992,-0.512201 -1.169839,-0.09937 -2.343409,-0.302059 -3.509809,-0.287112 m 21.330673,7.498215 c -1.144371,0.03365 -2.289199,0.06731 -3.428913,0.143655 -0.374766,0.02949 -0.752336,0.04912 -1.116282,0.137326 0.185593,1.014941 0.221709,2.04041 0.294473,3.060654 0.103837,1.952349 0.201261,3.909581 0.12616,5.848222 0.56182,-0.619367 1.071177,-1.296271 1.602263,-1.948195 0.883035,-1.095535 1.761897,-2.196176 2.688083,-3.244881 0.604972,-0.787239 1.207348,-1.577538 1.815373,-2.36173 0.154183,-0.191408 0.272034,-0.416255 0.4076,-0.624377 0.237642,-0.378711 0.480321,-0.752866 0.724069,-1.125484 -1.033345,0.0754 -2.07641,0.06594 -3.112822,0.114805 M 0.50194397,99.462756 c -6.7058e-4,0.05853 -0.0458043,0.154893 0.0443953,0.152846 0.0781776,0.03904 0.12449306,-0.04064 0.17062743,-0.08948 -0.0721173,-0.02407 -0.14331561,-0.04346 -0.21502272,-0.06336 m 3.70321202,-0.0935 c 0.03214,0.07953 0.165707,0.0705 0.1843129,-0.0063 -0.025129,-0.08757 -0.1723729,-0.07763 -0.1843129,0.0063 m 4.4903312,-0.0642 c 0.1128025,0.03648 0.2256183,0.09178 0.3415591,0.108846 0.033078,-0.03229 0.064732,-0.06505 0.095929,-0.0978 -0.1460441,-0.01986 -0.2948339,-0.03966 -0.4374881,-0.01104 m 0.793019,0.248004 c 0.1220818,1.79e-4 0.3337703,0.09496 0.3575802,-0.101605 -0.1228813,0.01969 -0.2456056,0.04566 -0.3575802,0.101605 m 3.9931578,-0.136228 c -0.05614,0.05906 -0.04199,0.156346 -0.05042,0.238597 0.13835,-0.0023 0.259861,-0.09673 0.221702,-0.270119 -0.05806,0.0069 -0.116328,0.01167 -0.171278,0.03152 m -1.461888,0.05732 c 0.02212,0.08034 -0.01439,0.213028 0.08122,0.247388 0.09579,-0.07587 0.04325,-0.246228 -0.08122,-0.247388 m 0.905512,0.206665 c 0.122994,-0.0046 0.246674,-0.04412 0.235012,-0.214089 -0.129058,-0.01512 -0.247839,0.05095 -0.235012,0.214089 m 0.947579,-0.130947 c -0.101607,0.04939 -0.117172,0.18513 -0.137838,0.296988 0.202572,0.002 0.215949,-0.351975 0.403392,-0.317096 0.03234,0.07692 -0.02324,0.211708 0.08365,0.230086 0.107187,-0.06731 0.169997,-0.189247 0.224776,-0.308868 -0.190393,0.03781 -0.39654,0.01338 -0.573983,0.09889 m 0.964015,0.46567 c 0.168152,0.0767 0.233789,-0.147182 0.251433,-0.28978 -0.143026,0.0061 -0.291838,0.09817 -0.251433,0.28978 m -5.9499699,-0.005 c 0.1129495,0.0287 0.233518,0.0461 0.3374094,-0.008 -0.1135091,-0.02967 -0.2365269,-0.05804 -0.3374094,0.008 m 7.7221429,-0.238282 c 0.04129,0.153973 0.259559,0.128949 0.297751,-0.0053 -0.09977,-0.01126 -0.204118,-0.03179 -0.297751,0.0053 m -5.097569,0.305602 c 0.141509,0.006 0.283373,0.0118 0.425353,0.037 -0.109384,-0.16509 -0.29895,-0.10953 -0.425353,-0.037 m 12.758382,-0.411552 c -0.004,0.09937 0.09557,0.108547 0.156608,0.145987 0.0083,-0.0321 0.025,-0.09578 0.03332,-0.127885 -0.06337,-0.0144 -0.127798,-0.03032 -0.189924,-0.01811 m -0.6301,0.195565 c 0.0838,0.0028 0.167846,0.0036 0.252097,0.0017 -0.0047,-0.0333 -0.01492,-0.100401 -0.01962,-0.134222 -0.09253,0.011 -0.178437,0.0474 -0.232477,0.132524 m 1.247032,-0.03031 c 0.07978,-7.07e-4 0.160875,-0.0019 0.241312,-0.0053 -0.0046,-0.03278 -0.0142,-0.0978 -0.0188,-0.130585 -0.08077,0.0326 -0.159047,0.07192 -0.222508,0.135893 M 9.9732979,100.23665 c 0.1908321,0.009 0.3817561,0.004 0.5732541,0.0197 0.239287,0.007 0.510216,0.0366 0.695471,-0.14676 -0.427718,-3.5e-4 -0.856635,0.0291 -1.2687251,0.12704 m 2.9736861,-0.14375 c 0.226278,0.0892 0.473916,0.18553 0.698384,0.0882 -0.230328,-0.065 -0.467091,-0.0974 -0.698384,-0.0882 m -3.5003191,0.47689 c 0.1311002,0.0265 0.2719631,0.0544 0.3929334,-0.008 -0.1324212,-0.026 -0.2719631,-0.0544 -0.3929334,0.008 m 4.3684511,0.0777 c 0.168611,0.007 0.354487,0.0536 0.50671,-0.0317 -0.170037,-0.0119 -0.354182,-0.0552 -0.50671,0.0317 m 5.831072,-0.0235 c -0.01789,0.0841 0.09069,0.11495 0.131075,0.0636 -0.0015,-0.0245 -0.0045,-0.074 -0.0056,-0.0986 -0.05779,-0.037 -0.09927,-0.0249 -0.125514,0.0349 m 45.428669,-1.198147 c -0.0087,0.02376 -0.02507,0.07176 -0.03375,0.09552 0.101999,0.0013 0.208989,0.01598 0.305008,-0.02489 -0.09017,-0.03034 -0.181658,-0.05072 -0.271258,-0.07063 m -43.13519,1.361087 c 0.131104,0.0313 0.262853,0.0411 0.395268,0.0577 -0.104492,-0.14799 -0.270425,-0.10877 -0.395268,-0.0577 m -5.03543,0.3122 c -0.04108,0.14222 -0.07637,0.2874 -0.110132,0.43411 0.114235,-0.0236 0.226735,-0.0556 0.331186,-0.10869 -0.08129,-0.0473 -0.179636,-0.0675 -0.229889,-0.16323 0.09363,-0.0419 0.204463,-0.0581 0.259303,-0.16306 -0.08425,-0.003 -0.167641,-0.002 -0.250468,8.7e-4 m 46.029526,-1.04236 c -0.211552,0.0327 -0.422609,-0.0371 -0.632129,-0.08646 -0.100496,-0.03267 -0.183998,0.02822 -0.258803,0.08416 0.436913,0.0612 0.874945,0.0498 1.312076,0.13187 0.06249,0.006 0.140105,0.0341 0.183989,-0.0329 -0.07082,-0.0575 -0.144683,-0.10871 -0.214989,-0.16104 0.190415,-0.0702 0.44141,0.02765 0.581665,-0.165453 -0.150454,6.3e-4 -0.293341,0.05955 -0.444575,0.03356 -4.37e-4,-0.04178 -0.0013,-0.125337 -0.0023,-0.167628 -0.221679,0.0089 -0.462829,0.104609 -0.524984,0.363921 m -43.26336,1.16362 c 0.156386,-0.0243 0.312199,0.0763 0.467922,0.0498 0.003,-0.0628 -0.0051,-0.1409 -0.06439,-0.1695 -0.14079,-0.0692 -0.346908,-0.0512 -0.403533,0.11962 m 0.486367,-0.11257 c 0.07523,0.11643 0.04318,0.23854 -0.01522,0.33998 0.271538,-0.0432 0.578788,0.0807 0.821158,-0.0819 -0.012,-0.0707 -0.02481,-0.14035 -0.03203,-0.20909 -0.236268,-0.19544 -0.532914,-0.13684 -0.773913,-0.049 m -0.890624,0.14081 c 0.115146,0.18634 0.381634,0.11973 0.3828,-0.1018 -0.139126,-0.0149 -0.262793,0.0435 -0.3828,0.1018 m -3.292654,0.27403 c 0.09278,-0.0272 0.177043,-0.0756 0.250979,-0.14035 -0.106069,-0.005 -0.277148,-0.0511 -0.250979,0.14035 m 45.866209,-1.25658 c 0.608654,0.10907 1.229037,0.48214 1.832027,0.2722 0.178336,0.17097 0.404866,0.25803 0.627087,0.29191 0.17818,0.02 0.340723,-0.063 0.499678,-0.12655 -0.298996,-0.0354 -0.597648,-0.0764 -0.893728,-0.15215 -0.682571,-0.16077 -1.382695,-0.41142 -2.065064,-0.28541 m -38.100582,1.25056 c 0.118229,0.017 0.238487,0.0266 0.354095,0.003 -0.117997,-0.0473 -0.248131,-0.0733 -0.354095,-0.003 m -6.032606,0.19538 c -0.07609,0.0335 -0.06681,0.1466 0.01442,0.18399 0.130435,0.0198 0.217604,-0.0971 0.312993,-0.16772 -0.109378,-0.011 -0.220596,-0.036 -0.32741,-0.0163 m 12.461544,-0.12152 c 0.1161,0.0186 0.234215,0.0252 0.348501,0.002 -0.115862,-0.049 -0.244671,-0.0708 -0.348501,-0.002 m 15.966345,-0.44548 c 0.0053,0.0443 0.01631,0.13327 0.02158,0.17752 0.03705,-0.0198 0.07472,-0.0382 0.11345,-0.055 0.01012,0.0702 0.01947,0.14206 0.02847,0.21494 0.03274,-0.008 0.09821,-0.0232 0.131359,-0.0315 -0.07732,-0.12368 -0.141262,-0.31201 -0.294864,-0.30607 m -1.183417,0.0379 c 0.02347,0.18269 0.18356,0.1588 0.285976,0.10365 -0.09455,-0.0423 -0.189304,-0.0771 -0.285976,-0.10365 m 16.727453,-0.31202 c 0.106901,0.0324 0.212289,0.0822 0.322439,0.10574 -5.77e-4,-0.0245 -0.0017,-0.0736 -0.0023,-0.0976 -0.107214,-0.0497 -0.220249,-0.0559 -0.320179,-0.008 m 6.275991,-0.21693 c -0.02433,0.042 -0.04554,0.0875 -0.06437,0.134 0.0516,-0.007 0.103913,-0.0165 0.157707,-0.0249 -0.03217,-0.0377 -0.06325,-0.0739 -0.09333,-0.10913 m -33.528089,1.10723 c -0.03797,0.0199 -0.110553,0.0518 -0.06841,0.11636 0.121023,0.0127 0.243143,-0.006 0.341325,-0.0802 -0.08596,-0.0529 -0.185376,-0.0653 -0.272913,-0.0361 m 9.331101,-0.33532 c 0.05443,0.11494 0.106028,0.24302 0.206099,0.32272 0.222485,0.18589 0.539028,0.15702 0.723008,-0.0347 -0.233371,-0.0539 -0.465815,-0.0191 -0.698053,-0.0522 -0.03377,-0.0821 -0.0046,-0.16859 -0.0014,-0.24757 -0.07734,0.002 -0.153555,0.007 -0.229664,0.0118 m 18.932296,-0.3832 c 0.193673,2.3e-4 0.388532,0.0313 0.583388,0.0434 0.05903,0.003 0.08878,-0.0631 0.134067,-0.0927 -0.238052,-0.0596 -0.533944,-0.15665 -0.717455,0.0491 m -16.186049,0.37651 c -0.0419,0.0734 0.07918,0.16126 0.122349,0.0916 0.03884,-0.0764 -0.08009,-0.16123 -0.122349,-0.0916 m -24.506549,0.75985 c 0.114284,0.0516 0.244931,0.0782 0.349625,0.009 -0.117318,-0.0218 -0.235335,-0.0273 -0.349625,-0.009 m 2.422361,-0.0758 c 0.110688,0.0663 0.240913,0.0794 0.346376,0.0178 -0.115945,-0.0218 -0.232388,-0.0299 -0.346376,-0.0178 m 6.045636,-0.0301 c 0.114089,0.0589 0.220986,0.0119 0.296377,-0.08 -0.116169,-0.0521 -0.24405,-0.0552 -0.296377,0.08 m 37.512374,-1.20769 c 0.140274,0.0639 0.300202,0.0802 0.433724,0.0148 -0.145231,-0.0256 -0.2929,-0.0433 -0.433724,-0.0148 m -46.700511,1.59222 c 0.07053,-0.0574 0.14142,-0.12052 0.174759,-0.21549 -0.121177,-0.0143 -0.207045,0.0738 -0.174759,0.21549 m 4.246726,-0.35294 c 0.0079,0.0756 0.01902,0.15148 0.03438,0.22836 0.02646,-0.0389 0.05451,-0.0758 0.07954,-0.1151 -0.03572,-0.0413 -0.07612,-0.0788 -0.113925,-0.11326 m -3.966866,0.21228 c -0.04423,0.0169 -0.08218,0.12562 -0.01,0.14134 0.05129,-0.0151 0.08773,-0.0505 0.10894,-0.1055 0.021,-0.0711 -0.07301,-0.0659 -0.09897,-0.0359 m 4.304014,-0.0876 c 0.170441,0.007 0.369364,0.0976 0.510115,-0.0344 -0.171001,-0.008 -0.356265,-0.053 -0.510115,0.0344 m -1.639621,0.0933 c 0.11797,0.01 0.256492,0.10708 0.363574,0.034 -0.08027,-0.1257 -0.253609,-0.0544 -0.363574,-0.034 m -1.998422,0.26641 c 0.106734,0.0121 0.251696,-0.13307 0.322642,0.0331 -0.110929,0.0246 -0.224361,0.033 -0.339032,0.0149 -0.026,0.0483 -0.05307,0.095 -0.07489,0.1484 0.226241,0.18214 0.477917,0.0209 0.68892,-0.064 0.349407,0.13266 0.713779,0.21683 1.070378,0.16592 0.02061,0.10233 0.06334,0.19618 0.127819,0.27793 -3.82e-4,-0.0365 -7.38e-4,-0.11021 -6.63e-4,-0.14678 0.06428,0.0144 0.125961,0.021 0.192122,0.0357 -0.05169,-0.18032 -0.177678,-0.3183 -0.240646,-0.49203 -0.305998,-0.009 -0.652782,0.0442 -0.913502,-0.21792 -0.275832,0.0836 -0.620828,0.005 -0.833145,0.24472 m 4.882067,-0.25716 c 0.148328,0.0152 0.294796,-0.008 0.443532,0.003 0.110067,0.0507 0.221001,0.10549 0.339931,0.10629 0.136239,0.0322 0.1455,-0.24706 0.288832,-0.1801 0.06262,0.0442 0.176618,0.0415 0.201241,0.13322 -0.02401,0.0592 -0.04802,0.11839 -0.07035,0.18066 0.09091,-0.009 0.163073,-0.059 0.166453,-0.16929 0.02501,-0.0164 0.07405,-0.0496 0.09859,-0.0661 -0.324862,-0.22373 -0.687182,-0.0677 -1.024083,-0.0592 -0.146926,0.0272 -0.321901,-0.0629 -0.444155,0.0519 m 1.460928,-0.0484 c 0.109787,0.0152 0.221959,0.0219 0.32959,9.7e-4 -0.105054,-0.0743 -0.266448,-0.15696 -0.32959,-9.7e-4 m 2.304143,-0.074 c 0.197344,0.0142 0.405386,0.0579 0.588984,-0.0256 -0.199038,-0.0361 -0.430461,-0.14028 -0.588984,0.0256 m 2.174695,-0.0651 c 0.114421,0.025 0.237943,0.0491 0.344226,-0.004 -0.115545,-0.0317 -0.240799,-0.0594 -0.344226,0.004 m 7.013798,-0.17579 c 0.0026,0.0166 0.0077,0.0504 0.01027,0.0671 0.0964,-0.004 0.202634,0.0167 0.287354,-0.0411 -0.09998,-0.0181 -0.199186,-0.0236 -0.297626,-0.026 m 0.536754,0.0312 c 0.100684,0.0113 0.203396,0.0152 0.298069,0.0772 0.01255,-0.008 0.03862,-0.0225 0.05118,-0.0302 -0.0961,-0.14197 -0.238649,-0.11231 -0.349245,-0.047 m 7.935429,-0.25794 c 0.0038,0.0291 0.01094,0.088 0.01478,0.11764 0.02623,8.2e-4 0.07825,0.003 0.104491,0.003 -0.0013,-0.0324 -0.0045,-0.0971 -0.0059,-0.12991 -0.02822,0.002 -0.0847,0.007 -0.113381,0.009 m 0.599666,-0.0197 c -0.03627,0.11649 0.210012,0.0964 0.17419,-0.007 -0.05185,-0.0466 -0.132936,-0.0406 -0.17419,0.007 m -24.365469,0.73388 c 0.0056,0.0286 0.01709,0.0852 0.02266,0.11375 0.05613,0.0622 0.11699,-0.01 0.16838,-0.033 -0.06358,-0.0306 -0.126852,-0.058 -0.191036,-0.0807 m 0.915276,0.0632 c -4.38e-4,0.0283 -3.98e-4,0.0846 -8.36e-4,0.11286 0.05786,4.4e-4 0.116338,0.002 0.17583,0.006 -0.0051,-0.0426 -0.01018,-0.0849 -0.01417,-0.12549 -0.05451,9.7e-4 -0.107944,0.004 -0.160822,0.007 m 0.216155,0.0842 c 0.215987,-0.0109 0.436271,0.0873 0.647502,0.0375 -0.172369,-0.21763 -0.468618,-0.17366 -0.647502,-0.0375 m 13.266016,-0.43385 c 0.170081,0.008 0.358053,0.0572 0.509606,-0.0349 -0.172852,-0.0311 -0.365903,-0.0857 -0.509606,0.0349 m 7.58687,-0.12525 c 0.166439,0.022 0.405343,0.0621 0.463452,-0.15895 -0.172898,-0.0176 -0.331739,0.0518 -0.463452,0.15895 m 16.133381,-0.43613 0.131583,-0.0106 c 3.27e-4,0.0314 0.0018,0.093 0.0026,0.12426 0.08515,0.11459 0.218437,0.15414 0.339731,0.18361 0.205289,0.0391 0.442076,0.0344 0.57547,-0.1538 -0.28364,-0.0285 -0.582637,0.0856 -0.857508,-0.0544 -0.05721,-0.0919 0.06061,-0.13963 0.104616,-0.18685 0.0047,-0.0179 0.01348,-0.0542 0.01764,-0.0726 -0.114275,0.0325 -0.257912,0.0371 -0.314104,0.17037 m -37.448249,0.93108 c -0.04337,0.077 0.08718,0.11192 0.122941,0.065 0.04505,-0.0786 -0.08937,-0.12022 -0.122941,-0.065 m 9.935548,-0.20836 c 0.113403,0.0239 0.242075,0.0678 0.3373,-0.0185 -0.114418,-0.0202 -0.232897,-0.0305 -0.3373,0.0185 m 10.204775,-0.28448 c 0.348704,-0.0705 0.714989,0.13113 1.055426,0.0186 -0.347965,-0.0292 -0.752145,-0.25701 -1.055426,-0.0186 m 1.453577,0.1989 c 0.0537,0.0141 0.108271,0.0278 0.163805,0.0419 0.0055,0.014 0.01559,0.0419 0.02068,0.0563 -0.07457,0.0303 -0.140586,0.0776 -0.204006,0.12806 l 0.141928,0.0247 c -0.0254,0.0357 -0.04968,0.0735 -0.07243,0.11281 -0.184558,0.0131 -0.378764,-0.0158 -0.539784,-0.14604 -0.01028,0.0541 -0.02677,0.10577 -0.04906,0.15445 -0.02716,0.0551 -0.145565,0.0831 -0.08083,0.16268 0.104486,0.0686 0.197346,-0.0557 0.28981,-0.0908 0.04245,0.049 0.08585,0.0984 0.130728,0.1488 -0.100635,0.064 -0.04187,0.2556 -0.157112,0.29231 -0.221121,0.0846 -0.455823,-0.0623 -0.680649,-0.10389 0.08482,0.16266 0.274632,0.0815 0.386885,0.21047 0.194116,-0.098 0.417279,-0.0218 0.615136,0.0723 0.306153,-0.20462 0.681437,-0.29419 1.052042,-0.23997 0.183314,0.0256 0.366098,0.15307 0.43346,0.3622 0.01565,-0.0882 0.01222,-0.18841 0.06465,-0.25729 0.07298,-0.0512 0.181492,-0.035 0.245055,-0.0979 -0.105809,-0.14273 -0.121385,-0.3105 -0.07579,-0.47217 -0.16289,-0.0419 -0.327275,-0.0476 -0.490361,-0.0727 -0.06372,0.12667 -0.143267,0.24177 -0.205005,0.36994 -0.235046,0.0223 -0.470447,0.0458 -0.708774,0.0301 -0.03053,-0.10048 -0.05983,-0.19786 -0.09285,-0.29565 0.0723,-0.007 0.15508,-2.4e-4 0.195349,-0.0808 -0.05801,0.008 -0.174492,0.0222 -0.232447,0.0301 0.04579,-0.10838 0.05871,-0.22891 0.07744,-0.34646 -0.01023,-0.22537 0.219097,-0.14258 0.347111,-0.16608 -0.06451,-0.0447 -0.13631,-0.12619 -0.212553,-0.0896 -0.137087,0.0572 -0.239915,0.17818 -0.362446,0.26212 m -20.272031,0.46941 c 0.175676,0.004 0.410958,0.17061 0.527508,-0.0302 -0.176681,0.0139 -0.383103,-0.11132 -0.527508,0.0302 m 3.875772,-0.0373 c 0.179946,6.3e-4 0.370607,-0.0157 0.53706,0.10433 -0.01254,-0.0482 -0.03763,-0.14467 -0.04971,-0.19291 0.08026,0.0322 0.131201,0.0976 0.15339,0.19727 0.04,-0.0973 0.08498,-0.19048 0.134443,-0.28017 -0.24979,0.0965 -0.58152,-0.0618 -0.775182,0.17148 m -1.066317,0.0388 c 0.158796,0.005 0.355392,0.0395 0.466845,-0.10576 -0.161128,0.004 -0.34511,-0.0236 -0.466845,0.10576 m 0.501566,-0.11667 c 0.04234,0.1179 0.138027,0.11569 0.197411,0.0383 -0.06647,-0.018 -0.131052,-0.0308 -0.197411,-0.0383 m 15.013537,-0.44707 c -0.0077,0.12245 0.08394,0.27499 0.01847,0.37924 -0.09687,-0.0239 -0.115419,-0.14245 -0.166976,-0.21882 -0.02445,0.003 -0.07337,0.01 -0.09782,0.0132 0.04789,0.0671 0.0937,0.13628 0.138907,0.20865 -0.147976,0.0538 -0.357233,0.0118 -0.423398,0.20692 0.189478,-0.0284 0.409781,-0.12609 0.581923,0.0565 -9.93e-4,-0.0381 -0.0035,-0.11483 -0.0045,-0.15294 0.07768,0.0526 0.158309,0.10728 0.244061,0.14402 -0.06514,-0.0744 -0.12086,-0.28649 -0.229517,-0.14078 0.01845,-0.0784 0.02673,-0.15747 0.02474,-0.23839 0.08099,-0.0117 0.158562,-0.0395 0.233231,-0.0735 -0.105553,-0.0655 -0.212778,-0.12455 -0.319139,-0.1842 m 0.621175,0.0544 c 0.0023,0.0276 0.0072,0.0829 0.0094,0.10995 0.02868,0.002 0.08553,0.007 0.114206,0.009 l -0.02137,-0.0961 c 0.06811,0.0253 0.138391,0.054 0.20812,0.0818 -0.02964,-0.0681 -0.0576,-0.13314 -0.08866,-0.19702 -0.04819,0.0886 -0.130903,0.11552 -0.221725,0.0925 m 1.971836,0.0326 c 0.0891,0.0194 0.187379,0.0155 0.270001,0.0764 0.03367,0.0952 -0.02974,0.15496 -0.07536,0.21842 0.26069,-0.004 0.407459,-0.24773 0.519823,-0.47242 -0.247976,0.008 -0.521992,-0.007 -0.714467,0.17759 m -19.107979,0.4394 c -0.04543,0.11675 0.156293,0.13346 0.152706,0.0222 -0.01612,-0.0799 -0.121574,-0.0744 -0.152706,-0.0222 m 12.3729,-0.22034 c 0.109515,-0.011 0.23327,-0.0171 0.30174,-0.12353 -0.119302,-0.0186 -0.219227,0.0433 -0.30174,0.12353 m 3.518103,-0.20732 c 0.0975,0.0301 0.192773,0.0937 0.294878,0.0961 -0.02004,-0.14778 -0.204087,-0.12478 -0.294878,-0.0961 m -20.131004,0.65764 c 0.116249,0.0202 0.23371,0.0293 0.347589,0.007 -0.113123,-0.0584 -0.243246,-0.0703 -0.347589,-0.007 m 10.79244,-0.30488 c 0.115283,0.0197 0.231928,0.0253 0.344127,-3.8e-4 -0.113321,-0.0511 -0.243196,-0.0699 -0.344127,3.8e-4 m 0.466734,0.0238 c 0.08119,0.12567 0.238526,0.15306 0.329623,0.0528 -0.105953,-0.0555 -0.221709,-0.0987 -0.329623,-0.0528 m 15.61114,-0.43641 c 0.127111,0.0654 0.279893,0.11636 0.380581,-0.003 -0.1285,-0.0235 -0.25821,-0.0313 -0.380581,0.003 m 7.389423,-0.14052 c 0.155179,0.066 0.315967,0.0913 0.475757,0.12958 0.06731,-0.0202 0.128962,-0.0559 0.184602,-0.10138 -0.102718,-0.0132 -0.204661,-0.014 -0.304644,-0.0415 -0.03071,0.0145 -0.05988,0.0304 -0.08798,0.048 l -0.01669,-0.0904 c -0.08588,0.0134 -0.168944,0.032 -0.251044,0.0558 m -35.437374,1.09007 c 0.249791,0.0483 0.495585,0.12588 0.739555,0.21296 0.206082,0.0751 0.441813,0.0877 0.604564,-0.0679 -0.18108,0.0485 -0.375255,0.0572 -0.562213,-0.0101 -0.256774,-0.0726 -0.528574,-0.25605 -0.781906,-0.13495 m 25.821571,-0.77537 c 0.01081,0.0446 -0.0015,0.11498 0.05505,0.1306 0.02983,-0.0233 0.06012,-0.0466 0.09086,-0.0699 -0.04944,-0.0221 -0.09776,-0.0422 -0.145916,-0.0606 m 10.404464,-0.19038 c 0.295594,-0.0366 0.602123,0.005 0.892916,-0.0615 -0.295051,-0.0605 -0.656643,-0.16778 -0.892916,0.0615 M 27.2313,103.08275 c 0.143452,0.0215 0.289848,0.0356 0.43001,0.005 -0.140938,-0.0613 -0.30025,-0.0761 -0.43001,-0.005 m 22.609869,-0.70946 c 0.02054,0.0689 0.04098,0.13674 0.06411,0.2087 -0.112218,-0.007 -0.260304,-0.10386 -0.334856,0.0247 0.233221,0.0571 0.466379,0.0249 0.684153,-0.0472 -0.157161,0.007 -0.267755,-0.14229 -0.413409,-0.18621 m 2.724074,-0.0128 c 0.112429,0.0187 0.237177,0.0507 0.333631,-0.0231 -0.113132,-0.0119 -0.235647,-0.0445 -0.333631,0.0231 m 4.397933,-0.0799 c 0.0782,0.0814 0.17658,0.13915 0.281213,0.1205 0.155015,-0.0149 0.373062,-0.0608 0.387099,-0.27275 -0.1952,0.14295 -0.439271,0.12953 -0.668317,0.15225 m -3.962379,0.1599 c 0.08339,0.008 0.162285,-0.0155 0.229016,-0.065 -0.08497,-0.0149 -0.179302,-0.0267 -0.229016,0.065 m 7.590124,-0.26952 c 0.179803,0.0878 0.383377,0.21213 0.5662,0.11133 -0.17687,-0.10466 -0.379418,-0.14852 -0.5662,-0.11133 m -35.097378,1.00097 c 0.09954,0.18627 0.298431,0.16494 0.455082,0.15734 -0.101369,-0.19092 -0.299089,-0.16231 -0.455082,-0.15734 m 16.876423,-0.39775 c 0.119516,0.0394 0.243995,0.05 0.354955,-0.002 -0.02249,-0.0187 -0.067,-0.056 -0.08949,-0.0748 -0.08881,0.0255 -0.178283,0.049 -0.265464,0.077 m 1.749443,0.0437 c 0.150491,-0.0142 0.308653,-0.0485 0.40196,-0.18697 -0.148251,0.023 -0.295469,0.0706 -0.40196,0.18697 M 30.34298,103.0873 c 0.107962,0.0946 0.255569,0.16771 0.374084,0.0849 -0.121408,-0.054 -0.247088,-0.10946 -0.374084,-0.0849 m 20.167452,-0.52495 c 0.379252,0.0582 0.83208,0.26256 1.158225,-9e-5 -0.379661,0.0824 -0.777434,-0.0661 -1.158225,9e-5 M 22.574364,103.469 c 0.0761,0.0412 0.147158,0.0125 0.213231,-0.0249 -0.04776,-0.0237 -0.09496,-0.0464 -0.141959,-0.067 -0.02418,0.0294 -0.04826,0.0599 -0.07127,0.0919 m 5.187594,-0.12272 c 0.03132,-0.004 0.09482,-0.0111 0.126545,-0.015 0.01782,-0.0428 0.03625,-0.0841 0.05518,-0.12486 -0.079,0.018 -0.163902,0.0365 -0.181727,0.13996 m 12.662296,-0.46472 c 0.173973,0.11259 0.374202,0.1001 0.556919,0.073 -0.181268,-0.0748 -0.374982,-0.1267 -0.556919,-0.073 m 5.490276,-0.0592 c 0.139278,0.0164 0.280539,0.0296 0.417397,0.003 0.0081,-0.0948 -0.09321,-0.15459 -0.162242,-0.13329 -0.101438,-2.5e-4 -0.178364,0.0714 -0.255155,0.13056 m 10.546972,-0.28116 c 0.162539,0.0429 0.335436,-1.6e-4 0.429396,-0.15067 -0.152933,0.0174 -0.296483,0.0743 -0.429396,0.15067 m -29.796911,0.79877 c 0.133995,0.0934 0.292516,0.0674 0.427927,0.15184 -0.162189,0.23134 -0.453051,0.1994 -0.671806,0.32213 0.04771,0.0279 0.09477,0.0584 0.141671,0.0921 -0.138405,0.14185 -0.379012,0.0657 -0.49019,0.24173 0.230333,-3e-4 0.464671,0.0541 0.693208,0.0309 0.124769,-0.01 0.229102,-0.0875 0.289119,-0.20517 0.12532,0.1218 0.272946,0.0784 0.403481,0.0246 0.03612,-0.19275 0.198153,-0.28094 0.303208,-0.41662 -0.154002,0.0159 -0.291368,0.11696 -0.451297,0.0912 -0.04835,-0.067 -0.07012,-0.15316 -0.102004,-0.22538 0.1427,0.0372 0.290533,0.0706 0.429462,0.0227 -0.0669,-0.0597 -0.135637,-0.11471 -0.203047,-0.17025 -0.256458,0.0147 -0.51731,-9.7e-4 -0.769732,0.0402 m 25.036288,-0.7253 c 0.05119,0.0493 0.09511,0.12266 0.164734,0.14 0.373478,0.0834 0.753091,0.0846 1.115722,0.007 -0.4262,-0.0876 -0.854155,-0.0577 -1.28046,-0.14636 m -6.99513,0.40303 c 0.154512,0.0593 0.322146,0.0514 0.447051,-0.0551 -0.121173,-0.15431 -0.345187,-0.0618 -0.447051,0.0551 m -21.663777,0.5634 c 0.0978,0.16856 0.270755,0.0701 0.406513,0.0694 -0.08322,-0.19771 -0.270357,-0.0848 -0.406513,-0.0694 m 1.873349,0.0344 c 0.521289,-0.0514 1.074728,0.0608 1.566826,-0.14285 -0.523697,0.0269 -1.076049,-0.0602 -1.566826,0.14285 m 24.163029,-0.69259 c 0.104248,0.0195 0.239613,-0.0413 0.302865,0.10735 -0.171325,0.031 -0.361666,0.004 -0.522,0.0535 0.01351,0.044 0.04051,0.13205 0.05402,0.17608 -0.04627,0.0755 -0.116047,0.12188 -0.190003,0.15846 0.109397,0.0439 0.21632,0.0999 0.327038,0.14323 -0.0227,-0.0302 -0.0686,-0.091 -0.09176,-0.1212 0.02839,-0.0426 0.0578,-0.0842 0.08879,-0.12372 0.270436,0.12289 0.546304,-0.0537 0.818436,0.0958 0.0042,-0.0738 0.0024,-0.14791 0.02289,-0.21536 0.02504,-0.10937 0.141077,-0.096 0.218901,-0.12587 0.0063,-0.0248 0.01836,-0.0747 0.02418,-0.0994 -0.235695,0.0391 -0.406688,0.32554 -0.672156,0.18788 l 0.06118,-0.0639 c -0.108295,-0.0606 -0.202016,-0.15044 -0.193117,-0.2933 -0.08438,0.0379 -0.168299,0.0759 -0.249265,0.12045 m 5.846775,-0.24453 c 0.270635,0.0502 0.542847,0.0185 0.805077,-0.0308 -0.27108,-0.0267 -0.543765,-0.0231 -0.805077,0.0308 m -31.182646,0.9072 c -0.04136,0.1114 0.156899,0.1256 0.165626,0.0277 -0.01897,-0.0809 -0.127879,-0.0731 -0.165626,-0.0277 m 0.387081,-0.0162 c 0.140855,0.15375 0.336976,0.16959 0.508247,0.12865 -0.169099,-0.049 -0.339204,-0.0849 -0.508247,-0.12865 m 4.767066,0.12277 c 0.142643,0.0273 0.285262,0.0217 0.427786,0.0244 -0.02259,0.055 -0.04309,0.11249 -0.06257,0.17103 0.02651,-0.043 0.05312,-0.0851 0.07928,-0.12711 0.137562,-0.0384 0.280889,-0.0508 0.424369,-0.0617 -0.04263,-0.0323 -0.08511,-0.0629 -0.127028,-0.0925 0.04144,-0.0638 0.08442,-0.1262 0.126474,-0.18852 -0.305262,0.027 -0.614055,0.0927 -0.86831,0.27444 m 31.282197,-1.13154 c -0.10227,0.0521 -0.241206,0.0111 -0.314552,0.11918 0.298377,0.0944 0.582016,-0.10121 0.88266,0.0302 -0.146083,-0.2257 -0.377833,-0.0718 -0.568108,-0.14942 m -22.475195,0.82839 c 0.04299,-0.0294 0.08645,-0.0589 0.130002,-0.0873 0.08055,0.0119 0.160948,0.0267 0.24241,0.0432 -0.09619,-0.1383 -0.379013,-0.15845 -0.372412,0.044 m 3.161705,-0.0144 c 0.04595,-0.0833 0.0944,-0.16462 0.138934,-0.24843 -0.130874,-9.7e-4 -0.193943,0.11366 -0.138934,0.24843 m 0.412132,-0.18151 c 0.140096,0.02 0.309323,0.10768 0.416566,-0.0244 -0.140902,-0.01 -0.290462,-0.0466 -0.416566,0.0244 m -11.118585,0.35281 c 0.01206,0.16004 0.146469,0.11755 0.245773,0.11941 -0.0049,-0.0448 -0.0091,-0.088 -0.01286,-0.13075 -0.0782,0.003 -0.155941,0.006 -0.232918,0.0114 m 11.715803,-0.38341 c 0.121647,0.0984 0.26826,0.1381 0.410586,0.14816 -0.130316,-0.0747 -0.266488,-0.14809 -0.410586,-0.14816 m 13.974163,-0.26962 c 0.08201,-0.0201 0.165629,-0.047 0.228124,-0.11149 -0.09718,-0.008 -0.220399,-0.0387 -0.228124,0.11149 m -14.832061,0.38391 c 0.01489,0.0722 0.03402,0.15001 0.0537,0.22415 0.01502,-0.0432 0.04506,-0.1298 0.06009,-0.17305 0.178508,0.12603 0.247822,0.42965 0.476282,0.4477 -0.06637,-0.0916 -0.05479,-0.19329 -0.0271,-0.28967 -0.06995,-0.0534 -0.136703,-0.11156 -0.200861,-0.17137 -0.112159,0.0773 -0.239647,-0.0245 -0.362099,-0.0378 m 15.31036,-0.4712 c 0.10254,0.11411 0.116477,0.2652 0.117289,0.41353 0.05623,-0.15623 0.286154,-0.30069 0.399875,-0.11482 0.01205,-0.004 0.03661,-0.0105 0.04865,-0.0139 -0.05044,-0.0602 -0.103406,-0.12295 -0.149869,-0.18014 0.311674,-0.0131 0.623582,0.0789 0.936451,0.0966 -0.401326,-0.35738 -0.907767,-0.15959 -1.352395,-0.20125 m -1.063245,0.07 c 0.03187,0.20282 0.219405,0.14995 0.336119,0.10953 -0.112854,-0.037 -0.223525,-0.0798 -0.336119,-0.10953 m 5.888639,0.0626 c 0.05987,-0.0398 0.118566,-0.0823 0.177823,-0.12365 -0.02598,-0.008 -0.07756,-0.0234 -0.103133,-0.0316 -0.0262,0.0509 -0.0525,0.10075 -0.07469,0.15518 m -22.282827,0.63798 c -0.114111,-0.0171 -0.228427,-0.0363 -0.340919,-0.065 0.07258,0.16406 0.22955,0.12249 0.340919,0.065 m 1.982069,-0.1667 c -0.007,0.17102 0.125743,0.28949 0.271041,0.25974 -0.0859,-0.0942 -0.171328,-0.1884 -0.271041,-0.25974 m 12.045862,-0.20933 c 0.0363,-0.004 0.109361,-0.0125 0.14612,-0.0167 0.02496,-0.15221 -0.126961,-0.0685 -0.14612,0.0167 m 1.009864,-0.13221 c 0.07942,0.0703 0.164986,0.0585 0.225436,-0.022 -0.07713,-4.2e-4 -0.152127,0.007 -0.225436,0.022 m 0.735339,0.002 c 0.157325,0.018 0.314865,0.0427 0.472961,0.0592 0.06453,0.008 0.09921,-0.0645 0.146928,-0.0972 -0.207089,0.003 -0.426068,-0.0395 -0.619889,0.0381 m 1.37898,0.0469 c 0.08139,-0.0263 0.159405,-0.0683 0.205978,-0.15005 -0.09402,0.005 -0.168368,0.0565 -0.205978,0.15005 m -5.526262,0.22066 c 0.405628,0.0417 0.853632,0.18307 1.20933,-0.0637 -0.191589,-0.007 -0.382357,0.009 -0.57437,-0.0171 -0.216112,-0.0231 -0.458174,-0.0721 -0.63496,0.0808 M 29.47756,104.0053 c 0.267523,0.1026 0.572094,0.10594 0.800327,-0.0604 -0.266422,0.0113 -0.559822,-0.0792 -0.800327,0.0604 m 2.313741,-0.0184 c 0.140495,0.0101 0.29372,0.047 0.416252,-0.0369 -0.144511,-0.079 -0.297849,-0.061 -0.416252,0.0369 m 4.563566,-0.11278 c 0.143177,-0.01 0.280627,-0.0628 0.428249,-0.0409 0.196278,0.0174 0.425377,0.0699 0.571797,-0.0978 -0.224995,-9.7e-4 -0.449939,-0.002 -0.673606,0.005 -0.117396,0.0101 -0.260426,0.0116 -0.32644,0.13363 m 1.031298,-0.0216 c 0.08669,-0.01 0.157586,-0.0589 0.194794,-0.14712 -0.09534,9.7e-4 -0.172187,0.041 -0.194794,0.14712 m 10.382304,-0.39244 c 0.04732,0.052 0.07777,0.11427 0.09038,0.18653 0.160049,-0.0991 0.356203,-0.0362 0.534608,-0.056 -0.174223,-0.18518 -0.422109,-0.20007 -0.624991,-0.13055 m -12.601155,0.42848 c 0.199524,0.004 0.415403,0.0571 0.599301,-0.0327 -0.200903,-0.0131 -0.415556,-0.0587 -0.599301,0.0327 m -3.893229,0.15846 c 0.08526,0.0644 0.175762,0.12612 0.275339,0.1541 -0.06506,-0.10628 -0.163288,-0.24662 -0.275339,-0.1541 m 24.638545,-0.6868 c -0.08491,0.009 -0.129593,0.0914 -0.177189,0.15809 0.243982,0.0312 0.416856,-0.18948 0.660671,-0.17866 -0.163395,-0.0377 -0.32736,-0.0111 -0.483482,0.0206 m -24.155431,0.7932 c 0.176132,0.0738 0.378136,0.13549 0.552288,0.0678 -0.184484,-0.0187 -0.368949,-0.084 -0.552288,-0.0678 m 1.139342,0.0459 c -0.120538,-0.0452 -0.283318,-0.0766 -0.326268,0.0887 0.135922,0.015 0.268458,-0.0139 0.404837,9.8e-4 0.106151,0.0482 0.199206,0.13119 0.305612,0.18197 -0.06134,-0.10586 -0.2244,-0.16809 -0.185654,-0.31075 0.122199,-0.05 0.251451,0.10253 0.377357,0.0389 -0.16965,-0.18063 -0.414173,-0.11462 -0.575884,2.2e-4 m 5.485368,-0.23987 c 0.0041,0.0281 0.01206,0.0853 0.0162,0.11342 0.02532,8.4e-4 0.07637,0.002 0.102152,0.003 -8.36e-4,-0.0319 -0.0029,-0.095 -0.0037,-0.12683 -0.02867,0.002 -0.08598,0.008 -0.114604,0.0106 m 10.929006,-0.31608 c 0.08953,0.13119 0.252929,0.17354 0.345023,0.0461 -0.07653,-0.004 -0.152291,-0.004 -0.227236,-8.4e-4 -0.02955,-0.0112 -0.08824,-0.0341 -0.117787,-0.0453 m 2.377411,-0.0756 c 0.0076,0.0311 0.02331,0.0923 0.03136,0.12291 0.09952,0.0134 0.199935,0.0173 0.299335,0.006 -0.117662,0.28753 -0.424149,0.092 -0.631889,0.0373 0.07017,-0.0658 0.162346,-0.0803 0.252484,-0.097 -0.602763,0.0255 -1.217644,-0.0442 -1.811557,0.0573 0.227272,0.0572 0.470817,0.0466 0.68675,0.17529 0.113566,0.1096 -0.02334,0.22007 -0.0695,0.31071 0.333747,-0.0873 0.610237,-0.31358 0.938275,-0.41695 0.04048,0.0944 0.07554,0.18956 0.0928,0.29511 -0.109745,-0.0193 -0.217436,-0.0972 -0.325515,-0.0623 0.140855,0.0884 0.291205,0.15678 0.426985,0.25895 0.01873,-0.12225 0.05992,-0.25402 0.173636,-0.29226 0.198497,-0.0814 0.420443,-0.0783 0.63041,-0.11773 -0.228366,-0.10112 -0.45347,-0.25769 -0.693584,-0.27748 m -15.322612,0.54729 c 0.08988,0.0555 0.187829,0.0761 0.286474,0.0806 -0.04816,-0.15379 -0.188863,-0.10067 -0.286474,-0.0806 m 16.833575,-0.52086 c 0.106214,0.0675 0.234559,0.0753 0.335442,0.014 -0.112284,-0.0219 -0.226238,-0.0327 -0.335442,-0.014 m -26.6935,0.82162 c 0.04884,0.10465 0.142549,0.11034 0.220108,0.0637 -0.07349,-0.0288 -0.146218,-0.0496 -0.220108,-0.0637 m 6.800054,0.0586 c 0.27669,0.0511 0.571522,0.0161 0.764783,-0.20724 -0.153028,-0.0442 -0.308762,-0.10665 -0.464598,-0.0954 -0.149828,0.021 -0.227464,0.17417 -0.300185,0.30266 m -4.622836,-0.0794 c 0.44045,0.10184 0.919954,0.20886 1.332592,0.0231 -0.441352,0.0617 -0.904058,-0.16386 -1.332592,-0.0231 m 13.511266,-0.33374 c 0.02833,0.0874 0.170739,0.0751 0.180546,-0.0119 -0.03188,-0.0769 -0.170129,-0.0688 -0.180546,0.0119 m 10.298641,-0.0626 c 0.405237,0.0563 0.792291,-0.0627 1.184789,-0.11264 0.210157,-0.0561 0.466024,-0.1888 0.655334,0.0425 -0.0662,-0.0107 -0.131139,-0.0177 -0.195619,-0.02 -0.06658,0.0416 -0.0985,0.12296 -0.136589,0.193 0.205187,-0.046 0.418695,-0.0401 0.631589,-0.0311 -0.151813,-0.12523 -0.05269,-0.30253 0.03429,-0.4121 -0.754979,-0.0944 -1.447013,0.24131 -2.173789,0.34037 m 7.655525,-0.32311 c 0.09368,-0.046 0.251485,1.6e-4 0.304601,-0.0991 -0.07833,-0.18061 -0.266197,-0.0238 -0.304601,0.0991 m -16.605174,0.37488 0.116666,0.029 c 0.02031,0.0339 0.06144,0.10221 0.08176,0.1361 -0.09416,0.0131 -0.189489,0.0284 -0.265053,0.0906 0.02674,-0.0128 0.08067,-0.0384 0.107407,-0.0511 0.05095,1.2e-4 0.102203,0.003 0.154629,0.009 0.09301,0.0966 0.201271,0.17553 0.309298,0.0795 -0.04343,-0.017 -0.129795,-0.0506 -0.173225,-0.0677 0.01595,-0.0945 0.102982,-0.18473 0.05212,-0.28671 -0.132606,-0.005 -0.274028,-0.0241 -0.383596,0.0611 m 11.875741,-0.19887 c -0.205462,0.0106 -0.442751,-0.0412 -0.599743,0.12627 0.491968,-0.0276 1.054049,0.0838 1.455231,-0.26974 -0.256574,-0.005 -0.467611,0.24735 -0.73684,0.10405 0.08703,-0.0296 0.173902,-0.0608 0.260571,-0.0941 -0.155268,-0.12774 -0.323355,-0.0404 -0.379214,0.13356 m -21.30788,0.45402 c -0.0037,0.17249 0.140967,0.17359 0.228275,0.10946 -0.07488,-0.0428 -0.151425,-0.0793 -0.228275,-0.10946 M 56.6126,103.76351 c 0.304085,0.0358 0.616535,0.1799 0.915558,0.10347 -0.303277,-0.0368 -0.62838,-0.24904 -0.915558,-0.10347 m -13.83294,0.37582 c -0.04106,0.10512 0.165842,0.11856 0.177117,0.0279 -0.02675,-0.0807 -0.133773,-0.0677 -0.177117,-0.0279 m -7.497902,0.39541 c 0.389167,-0.0137 0.782683,0.0121 1.170368,-0.0119 -0.38896,-0.0542 -0.818403,-0.19348 -1.170368,0.0119 m 2.842285,-0.094 c 0.145228,0.0162 0.304402,0.0529 0.433292,-0.027 -0.146192,-0.012 -0.301855,-0.0458 -0.433292,0.027 m -5.415639,0.26765 c 9.74e-4,0.01 0.0033,0.0291 0.0043,0.0391 0.283138,0.0374 0.568342,0.0491 0.83058,-0.0607 -0.281051,-0.0348 -0.562838,-0.0305 -0.834879,0.0217 m 9.153243,-0.18869 c 0.10401,-0.0249 0.21267,-0.0212 0.321433,-0.0165 0.0095,-0.0342 0.02764,-0.10161 0.03672,-0.1353 -0.126843,0.026 -0.284018,0.019 -0.358155,0.15177 m 0.386689,0.0125 c 0.123084,-0.027 0.251559,-0.0459 0.360372,-0.11526 -0.134345,-0.0129 -0.289332,-0.0304 -0.360372,0.11526 m 9.368742,-0.38654 c 0.0676,0.10412 0.181277,0.15887 0.280383,0.10276 -0.09196,-0.0439 -0.182757,-0.0946 -0.280383,-0.10276 m 6.381216,-0.0382 c 0.100118,-0.004 0.18652,-0.0492 0.239843,-0.14161 -0.106486,-0.0142 -0.227536,7.3e-4 -0.239843,0.14161 m -5.776462,0.16822 c 0.08411,0.0854 0.197463,0.10408 0.29674,0.0683 -0.09289,-0.0626 -0.18202,-0.12437 -0.272972,-0.18603 -0.01004,0.0379 -0.01815,0.0767 -0.02377,0.1177 m -20.984184,0.68455 c 0.402623,-0.0402 0.81077,-0.0335 1.212777,-0.0799 -0.235898,-0.033 -0.471534,-0.0539 -0.706808,-0.0666 -0.178828,-0.003 -0.384102,-0.0141 -0.505969,0.14658 m 8.65959,-0.24358 c 0.206347,0.0124 0.412785,0.0164 0.620253,0.045 -0.168197,-0.22663 -0.430548,-0.12721 -0.620253,-0.045 m 12.650507,-0.38392 c 0.09709,0.0307 0.269175,0.20338 0.321887,0.0441 -0.08068,-0.12987 -0.220462,-0.0674 -0.321887,-0.0441 m 1.999275,-0.0663 c 0.05171,0.22262 0.295565,0.28986 0.465135,0.35294 -0.09954,-0.12097 -0.245475,-0.2004 -0.288913,-0.36685 -0.05984,0.003 -0.119282,0.005 -0.176222,0.0139 m 1.042456,0.0126 c 0.209997,0.0682 0.440264,0.11857 0.636096,0.0148 -0.207928,-0.0844 -0.445406,-0.12888 -0.636096,-0.0148 m -20.887107,0.77112 c 0.183913,0.004 0.339478,-0.10369 0.517063,-0.13175 l -0.03598,0.10551 c 0.338054,-0.10418 0.655544,0.19394 0.995449,0.19261 -0.05349,-0.0773 -0.10384,-0.15532 -0.15499,-0.23222 -0.117963,0.0791 -0.251254,0.0395 -0.374451,-0.028 0.0888,-0.0349 0.183713,-0.0637 0.25154,-0.13933 -0.178525,-0.005 -0.351477,0.033 -0.529646,0.0271 -0.238171,-0.01 -0.501997,0.01 -0.66899,0.20607 m 14.65611,-0.6333 c 0.0058,0.0494 0.01643,0.14842 0.02221,0.19787 0.05392,-0.0396 0.110593,-0.0747 0.165021,-0.11388 -0.06302,-0.0295 -0.125427,-0.0575 -0.187224,-0.084 m 3.533718,0.0169 c 0.172484,0.0181 0.334949,-0.0378 0.502829,-0.0571 -0.01319,-0.0221 -0.03996,-0.0658 -0.05361,-0.0878 -0.168625,-0.0255 -0.360217,-0.0373 -0.449226,0.14495 m -16.14939,0.5907 c 0.05306,-0.0344 0.107085,-0.0684 0.160704,-0.10174 0.02217,0.0667 0.04357,0.1351 0.06558,0.205 0.311477,-0.0804 0.638943,0.0157 0.958472,0.0312 0.183788,-0.0351 0.409303,-0.089 0.552631,0.12268 -0.10364,-0.0226 -0.208804,-0.0421 -0.279824,0.0477 0.146915,0.0288 0.296515,0.0427 0.44069,0.0156 -0.03754,-0.0224 -0.113022,-0.0667 -0.150567,-0.0892 0.02228,-0.0628 0.04603,-0.12459 0.07085,-0.18486 0.02509,0.0264 0.07475,0.0789 0.09984,0.1053 0.04583,-0.0425 0.0911,-0.0862 0.13699,-0.12823 -0.587949,0.0502 -1.198988,-0.19517 -1.772627,-0.0415 -0.02618,-0.0656 -0.0518,-0.13017 -0.07773,-0.19315 -0.09511,0.0267 -0.230786,0.0656 -0.205007,0.21113 m 16.651218,-0.62536 c 0.06064,0.0521 0.09802,0.12414 0.112979,0.21565 0.128034,0.005 0.254781,-0.013 0.341449,-0.121 0.235574,0.0717 0.516247,0.15403 0.702101,-0.0466 -0.36428,-0.17663 -0.74157,-0.0421 -1.111683,-0.1193 -0.01615,0.0224 -0.03078,0.0463 -0.04485,0.0713 m -2.784474,0.16395 c 0.0332,0.0623 0.0666,0.12662 0.100505,0.19147 0.108655,-0.006 0.220011,-0.008 0.32483,-0.038 -0.08554,-0.0206 -0.17031,-0.038 -0.254323,-0.0523 0.02451,-0.0634 0.05249,-0.12425 0.08153,-0.18359 -0.08989,0.01 -0.178655,0.0265 -0.252541,0.0825 m 4.419831,-0.17451 c 0.02199,0.11169 0.108579,0.17557 0.205395,0.18952 -0.05898,-0.0725 -0.101629,-0.27763 -0.205395,-0.18952 m 0.413805,0.0269 c -0.04669,0.11782 0.150652,0.13675 0.153523,0.0259 -0.0147,-0.0796 -0.121066,-0.0738 -0.153523,-0.0259 m -2.792798,0.25665 c 0.07302,0.005 0.14721,0.009 0.222209,0.0104 -0.01847,-0.0198 -0.05496,-0.0595 -0.07338,-0.0789 -0.05134,0.0192 -0.1009,0.0425 -0.148829,0.0685 m -20.343218,0.53884 c 0.0045,0.0322 0.0141,0.0968 0.01906,0.12848 0.04123,-0.006 0.08303,-0.01 0.124921,-0.0129 -0.01492,-0.0957 -0.06878,-0.12551 -0.143977,-0.11553 m 2.132067,0.0521 c 0.312429,-0.0288 0.673274,0.17358 0.944541,-0.0405 -0.311505,0.0428 -0.653443,-0.0979 -0.944541,0.0405 m -2.355267,0.18412 c 0.06641,0.0127 0.133231,0.0202 0.200909,0.0225 -0.05808,-0.0913 -0.164161,-0.18548 -0.200909,-0.0225 m 3.359016,-0.19182 c 0.130282,0.23763 0.405841,0.19791 0.588984,0.11904 -0.08594,-0.0153 -0.15092,-0.0834 -0.217111,-0.14061 -0.0027,0.0288 -0.0085,0.0865 -0.01116,0.11525 -0.111769,-0.0867 -0.236708,-0.17192 -0.360717,-0.0936 m 4.055705,-0.12547 c -0.03805,0.11235 0.161165,0.11765 0.164858,0.0198 -0.02177,-0.0814 -0.130317,-0.0699 -0.164858,-0.0198 m 17.081571,-0.42084 c 0.136509,0.0536 0.276834,0.0386 0.407225,-0.003 -0.136188,-0.0317 -0.289581,-0.0889 -0.407225,0.003 m -16.096329,0.48628 c 0.152959,0.0202 0.303158,0.0917 0.457519,0.0795 -0.109641,-0.16771 -0.315435,-0.12319 -0.457519,-0.0795 m -3.592653,0.12116 c -0.05033,0.0856 0.08852,0.13957 0.11999,0.063 0.04789,-0.087 -0.09066,-0.14265 -0.11999,-0.063 m 2.541266,0.0368 c 0.0617,0.10012 0.175384,0.0942 0.262471,0.14924 -0.477942,0.0162 -0.957162,0.0242 -1.433362,0.0581 0.06391,0.0619 0.130006,0.12742 0.197924,0.18817 0.06133,-0.0529 0.109982,-0.14156 0.197945,-0.14303 0.151631,0.0114 0.296796,0.083 0.442966,0.13679 -0.407398,0.11765 -0.837535,0.14871 -1.268093,0.0868 0.0029,-0.0168 0.008,-0.0494 0.01048,-0.0662 -0.05979,0.0174 -0.119519,0.0353 -0.179044,0.0505 -0.01345,-0.0341 -0.03983,-0.10177 -0.05328,-0.13587 -0.132447,0.0111 -0.267629,0.0363 -0.365538,0.13736 0.09147,0.002 0.182789,-0.003 0.273898,-0.0146 -0.06656,0.20982 -0.306094,0.14455 -0.463686,0.18926 1.61e-4,0.011 7.5e-5,0.0334 -2.22e-4,0.0444 0.0784,-0.0101 0.156847,-0.0196 0.237484,-0.0255 0.0034,0.0667 0.0069,0.13511 0.01,0.20449 0.03811,-0.0465 0.07417,-0.0951 0.119751,-0.13088 0.07135,-0.0537 0.154846,0.0207 0.225289,0.0558 0.246482,-0.17209 0.572549,-0.25818 0.85778,-0.0641 0.01929,0.17288 -0.124809,0.24281 -0.197639,0.36085 0.202296,-0.0287 0.402295,-0.0715 0.604998,-0.10082 -0.06354,-0.0348 -0.160704,-0.0429 -0.149188,-0.14515 0.130195,-0.2487 0.438031,-0.15614 0.657191,-0.20939 0.138143,0.13554 0.314168,0.19425 0.487401,0.20134 0.514277,0.0266 0.997089,-0.15013 1.500686,-0.19948 -0.135771,-0.009 -0.274934,-0.005 -0.400424,-0.0867 -0.0436,0.0325 -0.08818,0.0647 -0.132845,0.0957 0.01839,-0.093 0.04787,-0.18053 0.08127,-0.26559 0.237505,-0.002 0.494833,0.14157 0.711799,0.005 -0.551458,-0.26011 -1.063374,0.17604 -1.614319,0.0659 -0.04887,-0.007 -0.08668,-0.0508 -0.12402,-0.0805 0.08223,-0.0504 0.307138,0.0388 0.253877,-0.13418 -0.167606,-0.0245 -0.342316,-0.0279 -0.494423,-0.13741 0.205457,-0.09 0.495153,0.0189 0.636804,-0.20672 -0.306663,-0.006 -0.576356,0.19613 -0.893946,0.11636 m 1.752248,-0.16119 c 0.388623,0.0741 0.784556,0.14325 1.172084,0.11288 -0.367313,-0.21677 -0.796384,-0.18888 -1.172084,-0.11288 m 15.863543,-0.36158 c 0.119605,0.16638 0.260324,-0.0174 0.339419,-0.11362 -0.118408,0.0186 -0.2529,0.0135 -0.339419,0.11362 m -25.649339,0.80024 c 0.07644,0.0307 0.127852,-0.10917 0.04068,-0.13699 -0.07202,-0.0277 -0.134764,0.11355 -0.04068,0.13699 m 5.980783,-0.13906 c 0.111058,0.0141 0.233976,0.0461 0.332515,-0.0204 -0.113143,-0.0214 -0.235698,-0.0497 -0.332515,0.0204 m 2.872031,-0.0202 c 0.183692,0.12275 0.401907,0.10662 0.586793,0.0407 -0.171462,-0.15706 -0.401684,-0.0716 -0.586793,-0.0407 m 1.023217,-0.0151 c 0.139357,0.0546 0.300007,0.0923 0.418965,-0.01 -0.139913,-0.0509 -0.301532,-0.0938 -0.418965,0.01 m 14.077609,-0.37966 c -0.07167,0.0271 -0.01575,0.16188 0.05297,0.12335 0.07101,-0.0292 0.013,-0.16178 -0.05297,-0.12335 m -19.88748,0.68885 c 0.0034,0.0302 0.0113,0.0916 0.01519,0.1218 0.02608,-7.4e-4 0.0782,-0.003 0.104283,-0.004 -0.0024,-0.0291 -0.0081,-0.0875 -0.01056,-0.11671 -0.0271,-2.7e-4 -0.08181,-9.7e-4 -0.108913,-0.002 m 0.321385,0.053 c 0.170481,0.063 0.417034,0.13439 0.531364,-0.0423 -0.176972,0.0343 -0.380953,-0.0895 -0.531364,0.0423 m -3.352877,0.10023 c 0.0072,0.0499 0.02116,0.14984 0.02836,0.19979 0.0717,-0.0689 0.144006,-0.13627 0.218954,-0.20005 -0.08313,-7.6e-4 -0.165301,-9.7e-4 -0.247315,2.6e-4 m 4.038649,-0.15895 c 0.03939,0.11589 0.08458,0.25357 0.219762,0.22359 -0.05452,-0.0972 -0.133184,-0.16911 -0.219762,-0.22359 m 5.273763,0.217 c 0.07668,0.0845 0.163966,0.0527 0.226864,-0.0169 -0.07724,-0.002 -0.152892,0.004 -0.226864,0.0169 z"
       style="stroke:#000000;stroke-width:0.00458613" />
    <path
       id="path835"
       d="m 37.535517,106.71689 c 0.212221,-0.0842 0.447868,-0.0529 0.67415,-0.0284 -0.05932,0.0324 -0.116497,0.0679 -0.173722,0.10296 0.04889,0.0362 0.100525,0.0772 0.150789,0.11819 -0.260325,0.0178 -0.521207,0.025 -0.782913,0.0235 0.0081,-0.0981 0.04461,-0.19114 0.131701,-0.21628 z"
       style="stroke:#000000;stroke-width:0.00465315" />
    <text
       id="text1653"
       y="-40.143826"
       x="-40.076069"
       style="font-size:37.4999px;line-height:1.25;font-family:'Open Sans';-inkscape-font-specification:'Open Sans, Normal';stroke-width:0.9375"
       xml:space="preserve"><tspan
         style="font-style:normal;font-variant:normal;font-weight:normal;font-stretch:normal;font-size:37.4999px;font-family:'Cooper Std';-inkscape-font-specification:'Cooper Std, Normal';font-variant-ligatures:normal;font-variant-caps:normal;font-variant-numeric:normal;font-variant-east-asian:normal;text-align:center;text-anchor:middle;stroke-width:0.9375"
         y="-40.143826"
         x="-40.076069"
         id="tspan1651"
         sodipodi:role="line">EE</tspan><tspan
         id="tspan1655"
         style="font-style:normal;font-variant:normal;font-weight:normal;font-stretch:normal;font-size:37.4999px;font-family:'Cooper Std';-inkscape-font-specification:'Cooper Std, Normal';font-variant-ligatures:normal;font-variant-caps:normal;font-variant-numeric:normal;font-variant-east-asian:normal;text-align:center;text-anchor:middle;stroke-width:0.9375"
         y="8.9828844"
         x="-40.076069"
         sodipodi:role="line">BO</tspan></text>
    <text
       transform="matrix(1.0689853,-0.28402514,0.15444356,0.89443153,0,0)"
       id="text2687"
       y="33.468834"
       x="29.97052"
       style="font-size:7.3346px;line-height:1.25;font-family:'Open Sans';-inkscape-font-specification:'Open Sans, Normal';stroke-width:0.183366"
       xml:space="preserve"><tspan
         style="font-style:normal;font-variant:normal;font-weight:normal;font-stretch:normal;font-size:7.3346px;font-family:'Cooper Std';-inkscape-font-specification:'Cooper Std, Normal';font-variant-ligatures:normal;font-variant-caps:normal;font-variant-numeric:normal;font-variant-east-asian:normal;stroke-width:0.183366"
         y="33.468834"
         x="29.97052"
         id="tspan2685"
         sodipodi:role="line">EEBO</tspan></text>
    <text
       transform="matrix(1.1465096,-0.33079912,0.2824309,0.79072351,0,0)"
       id="text2691"
       y="48.811829"
       x="28.128622"
       style="font-size:7.33794px;line-height:1.25;font-family:'Open Sans';-inkscape-font-specification:'Open Sans, Normal';fill:#4a3f3f;fill-opacity:1;stroke-width:0.183448"
       xml:space="preserve"><tspan
         style="font-style:normal;font-variant:normal;font-weight:normal;font-stretch:normal;font-size:7.33794px;font-family:Chalkboard;-inkscape-font-specification:'Chalkboard, Normal';font-variant-ligatures:normal;font-variant-caps:normal;font-variant-numeric:normal;font-variant-east-asian:normal;fill:#4a3f3f;fill-opacity:1;stroke-width:0.183448"
         y="48.811829"
         x="28.128622"
         id="tspan2689"
         sodipodi:role="line">Travel</tspan></text>
  </g>
  <g
     inkscape:label="Layer3"
     id="layer2"
     inkscape:groupmode="layer" />
</svg>
